<svg xmlns="http://www.w3.org/2000/svg" viewBox="0 0 434.47 553.72"><defs><style>.cls-1{fill:#00ffffff; stroke:#ffffff; fill-opacity="0.0"}</style></defs><g id="Layer_2" data-name="Layer 2"><g id="Layer_4" data-name="Layer 4"><path class="cls-1" d="M113.5,493.49c.86-.12,1.73-.23,2.6-.33-.12-.29-.24-.57-.37-.86Z"/><path class="cls-1" d="M105.26,498.7c.47-1.94.45-3.93-2-4.05a76.77,76.77,0,0,0-8.68.55c-.08.38-.16.76-.25,1.14,2.46,1.56,4.81,3.32,7.39,4.62C103.65,502,104.8,500.63,105.26,498.7Z"/><path class="cls-1" d="M123.92,470.82c.34-1.79-.47-2.57-2.22-2.93-1.92-.39-2.82.49-3,2.12a50.67,50.67,0,0,0,0,5.39H123C123.33,473.82,123.64,472.32,123.92,470.82Z"/><path class="cls-1" d="M91.06,496.15l-21.88-2.37C80.38,497.36,88.64,498.13,91.06,496.15Z"/><path class="cls-1" d="M48.71,197.59c-.24-1.68-1.42-2.56-2.72-1.27-2.21,2.19-4.08,4.72-6.09,7.11,1,.55,1.5.6,1.88.41,2.26-1.13,4.5-2.3,6.75-3.46A12.62,12.62,0,0,0,48.71,197.59Z"/><path class="cls-1" d="M48.53,200.38s0,0,0,.05l.08-.08-.08.08.09,0v-.08Z"/><path class="cls-1" d="M136.23,475.69c1.85.36,3.84-2.14,3.81-5.26-.54-.35-1.43-1.35-2.44-1.49-1.59-.22-4.06,2.89-3.64,4.66A3.44,3.44,0,0,0,136.23,475.69Z"/><path class="cls-1" d="M125.13,513.16l1-.77-3.57-4.65-.9.69C121.88,510.73,122.47,512.73,125.13,513.16Z"/><path class="cls-1" d="M145.29,350.7l8.93-1.7C150.22,345.21,148.36,345.42,145.29,350.7Z"/><path class="cls-1" d="M385.9,201l.05.05s0,0,0-.06l-.09,0v.07l.09,0Z"/><path class="cls-1" d="M318.74,493c-.13.28-.25.57-.37.85.87.11,1.74.21,2.6.33Z"/><path class="cls-1" d="M434.25,380.56c-.61-2.78-.25-5.77-.48-8.65-.25-3.26-1.22-3.83-4.1-2.91-2.25-2.71-4.58-5.23-6.52-8-.59-.84-.33-2.49,0-3.66a5.22,5.22,0,0,1,1.74-2.72c2.66-2,2.34-4.1.91-6.6-.45-.79-.88-2.12-.52-2.75,1.88-3.33.1-6.45-.26-9.65-.05-.45-.09-1.17-.36-1.3-4.12-2-3.24-5.42-2.77-8.79,0-.3-.24-.64-.41-1-2.93-.18-1.54,2.32-2.39,4.16l-6.15-4.94a21.33,21.33,0,0,1,1.69-1.53c3.6-2.36,4.28-5.72,1.16-8.85-4-4-8.68-7.24-12.54-11.32-3.27-3.44-7.25-6.75-7-12.38.11-2.4,1-3.68,3.43-4.31a57.69,57.69,0,0,0,10.24-3.47c3.38-1.62,3.22-2.31.74-5.15-1.71-2-3.1-4.23-6.43-4.65.52,2,2.95,4.18-.85,5s-6.31-.14-7.14-3.31c-.19-.76-.43-1.51-.65-2.27l-.84,0-.45,5.51-.88.25c-2-4.41-3.89-8.85-6-13.21a26.53,26.53,0,0,0-2.91-4.15c-.71-.94-1.5-1.82-2.26-2.73,1.09-.14,2.17-.29,3.26-.42.44,0,.89-.08,2.07-.18-3.06-2.2-6.82-3.47-5-8,.54.07,1.37.07,1.39.19.63,4.2,7.34,4.66,6.15,10.06-.14.66,1,1.61,1.49,2.43l.84-.48c-.28-1.19-.57-2.37-1-4.1,3.36,1.23,2.84,3.84,3.11,6.6,1-1.12,1.6-1.82,2.12-2.43l7.94,6.55-6.38-.32c.59,2,2.09,2.07,3.63,2.06h8.05a40.64,40.64,0,0,0-.51-5.06c-.83-3.89-1.71-7.78-2.87-11.58a7.41,7.41,0,0,0-2.65-3.61,88.07,88.07,0,0,0-7.74-4.42c.27,2.3.56,4.72,1,8a28.12,28.12,0,0,1-4.05-3.13,2.42,2.42,0,0,1,.14-2.32c2.78-1.49,2.45-4.08,1.61-6.07a6.65,6.65,0,0,1,1-7.47c-2.22-2.28-5.9-3.72-5.51-8,5.8,1.5,6.74,3,7.48,8.21.52,3.59,1.57,7.35,6.11,9.22a16,16,0,0,0-.34-2.55,91.68,91.68,0,0,0-3.38-9.82c-.84-1.85-1.12-2.9,1.91-3.39l-4.92-4.21c1.64-2.09,4.11-4.15.67-6.36l-4.15,2.29-.79-.67a27.2,27.2,0,0,1,1.46-4.61c1.93-3.65,2-3.61-1.86-5.84a3.88,3.88,0,0,0-.69.18l-3.6,1.76a36.42,36.42,0,0,1-1.82-4.4,25.48,25.48,0,0,1-.5-4.22c-2.11-.58-4.43-.79-6.25-1.86-2.9-1.72-3.82.59-5.77,1.9.32-2.19,1.26-4.5.82-6.52-.68-3.12,1.9-3.92,3.06-5.69.93-1.41,2.18-2.62-.61-3.83,4.65-.63,5.6-.08,7.78,4.35l-4.29,1.87c1.45,3.48,4.2,1.85,5.74,1.13,3.4-1.57.38-3.81-.14-5.89l3.1-1.77a56.25,56.25,0,0,0-5-2.8c-1.83-.79-3.9-1.11-5.64-2-.87-.47-1.23-1.86-1.81-2.83l.76-.58a84.33,84.33,0,0,0-8.13-5.93,83.28,83.28,0,0,0-9.16-4l-.46.66a21.6,21.6,0,0,1,3.15,3.88c.74,1.5,1.44,3.39-.44,4.76-2.39-.46-.55-6.06-5.08-3.69-1.92,1-4.34,1.08-6.73,1.62.1-.34.07-1.21.46-1.47,1.77-1.19,2.43-2.58,1.46-4.61-.82-1.72-1.24-3.67-4-2.94-.68.17-2-1.15-2.66-2.07-1.84-2.71-4.2-4.21-7.51-4-.37-4.31,2-6.89,5.47-8.9a70.16,70.16,0,0,0,8.11-5.3,8.38,8.38,0,0,0,3.22-7.72c-.26-2.65.74-3.94,3.37-4.59,3.71-.92,4.15-2.06,4-5.89a14.74,14.74,0,0,1,.81-5.64c.68-1.86,9.72-4.17,11.35-2.94a3.2,3.2,0,0,1,.8,2.87,37.86,37.86,0,0,1-2.86,5.26l.6.47a41.06,41.06,0,0,1,4.23-4.67c1.38-1.14,3.2-1.72,4.77-2.63a8.93,8.93,0,0,0,2.91-2.12c1.53-2.15,2.67-4.57,4.14-6.77s4-3.14,6.14-4.55c4.9-3.18,11.45-5.31,12-12.83.09-1.19,1.15-2.29,1.64-3.48.94-2.29,1.92-4.57,2.65-6.93,1.17-3.77,1.82-7.72,3.29-11.35,2-4.85,1.57-7.92-2.33-11.59a5.07,5.07,0,0,1-.89-2.1c-.3-.94-.54-1.9-.81-2.86l-.93-.25c-1,1.36-2.2,2.67-3.13,4.11s-2,2-3.59,1-3.05-1.6-5.26-2.74a20,20,0,0,1,2.43-.79c2.5-.4,4.4-1.57,4.77-4.23.39-2.81-.39-5.27-3-6.88-.61-.38-1.21-.8-1.84-1.15-3.93-2.19-3.9-2.25-1.87-6.11a3.51,3.51,0,0,0-.16-2.61c-1.64-3.69-4.76-5.77-8.45-6.86-1-.3-2.4.61-4.3,1.73a29.63,29.63,0,0,1-2.16-5.33c-1.19-5.83-7.22-11.09-13.14-11.33a6.2,6.2,0,0,1-2.93-1.06c-2-1.3-3.41-3.87-6.49-2.56-.35.15-1.06-.46-1.57-.77-1.54-.95-3-2.29-4.62-2.82A155.94,155.94,0,0,0,338.1,1.06c-2-.39-4.34,1.34-6.57,1.57a11.73,11.73,0,0,1-6-.67c-4.24-2.07-8.2-1.52-12.05.54-2.13,1.13-4.08,1.44-6.18.37a7,7,0,0,0-7.52.51c-2.82,1.8-6,3.08-8.69,5s-2.42,2.49.28,4.43c-.12.3-.15.75-.38.93-3.91,3.07-7.58,6.58-11.85,9-4.58,2.63-5.46,6.6-6.21,11l1.07-.21c.73,1.43,2.21,3,2,4.28-.55,4.17-2.49,5.55-7.05,5.64-.06,1.24-.12,2.5-.18,3.71l3.69.2c-.09,1.15-.15,2.3-.25,3.45-.4,4.51-1.56,9,1.17,13.34.81,1.26.81,3,1.33,4.48.91,2.6,1.94,5.15,2.91,7.72a10.37,10.37,0,0,1,.95,2.7c.57,8.07,1.33,16.13,1.48,24.2.2,10.66-3.7,20.33-8.27,29.73-2.05,4.23-4.23,8.43-6.69,12.43-2.76,4.49-5.86,8.48-12.19,8.11-3.16-.19-6.06,4.34-5.06,7.42a21.76,21.76,0,0,0,3.28,6.37,34,34,0,0,0,17.1,12.28,13.19,13.19,0,0,1,2.31,1c.25.14.37.53.92,1.41-8.24-1.86-14.24-6.71-20.09-11-2.06.79-1.79,4.68-4.88,2.21,2.06-3,1-5.3-2.22-7,.9-1.78,2.87-3.5.77-5-4.52,2.86-8.84,5.57-13.12,8.34a4.89,4.89,0,0,0-1.73,1.83,7.78,7.78,0,0,1-6,4.67c-1.72.31-1.67.8.05,2.56-.33.16-.66.49-.92.44-.69-.11-1.37-.19-2-.25a25.28,25.28,0,0,0-10.24-.4c-.26,0-.59-.28-.92-.45,1.72-1.76,1.77-2.24.06-2.56a7.74,7.74,0,0,1-6-4.67,4.94,4.94,0,0,0-1.73-1.82c-4.28-2.78-8.6-5.48-13.12-8.35-2.09,1.52-.13,3.23.78,5-3.26,1.67-4.28,4-2.22,7-3.09,2.47-2.83-1.43-4.89-2.22-5.85,4.26-11.85,9.1-20.09,11,.55-.87.67-1.27.92-1.4a13.19,13.19,0,0,1,2.31-1,34.09,34.09,0,0,0,17.1-12.28,21.52,21.52,0,0,0,3.28-6.37c1-3.09-1.9-7.62-5.06-7.43-6.33.38-9.43-3.62-12.19-8.1-2.46-4-4.64-8.21-6.69-12.44-4.57-9.39-8.47-19.06-8.27-29.72.15-8.08.92-16.14,1.48-24.2a10.56,10.56,0,0,1,.95-2.71c1-2.57,2-5.12,2.91-7.71.52-1.48.53-3.22,1.33-4.49,2.73-4.3,1.57-8.83,1.17-13.34-.1-1.14-.16-2.29-.24-3.44l3.68-.21c-.06-1.2-.12-2.47-.18-3.7-4.56-.1-6.5-1.48-7-5.65-.17-1.31,1.31-2.84,2-4.27l1.07.2c-.75-4.34-1.63-8.32-6.21-10.95-4.27-2.45-7.94-5.95-11.85-9-.23-.19-.26-.63-.38-.94,2.7-1.94,2.9-2.54.28-4.42s-5.87-3.23-8.69-5a7,7,0,0,0-7.51-.51C125,3.29,123.09,3,121,1.84c-3.85-2.06-7.81-2.6-12-.54a11.52,11.52,0,0,1-6,.67c-2.23-.23-4.57-2-6.57-1.56A154.28,154.28,0,0,0,79.61,5.06c-1.67.53-3.08,1.86-4.62,2.81-.51.32-1.22.93-1.57.78-3.08-1.31-4.49,1.25-6.49,2.55A6.2,6.2,0,0,1,64,12.26c-5.93.24-12,5.51-13.14,11.34a30.65,30.65,0,0,1-2.17,5.32c-1.89-1.12-3.27-2-4.3-1.72-3.69,1.09-6.81,3.17-8.44,6.85a3.41,3.41,0,0,0-.16,2.61c2,3.86,2.05,3.92-1.88,6.12-.63.35-1.23.77-1.84,1.15-2.59,1.6-3.36,4.06-3,6.88.37,2.65,2.27,3.83,4.77,4.22a20.75,20.75,0,0,1,2.43.8c-2.21,1.14-3.78,1.85-5.25,2.73s-2.63.53-3.6-1-2.07-2.75-3.13-4.11l-.93.25c-.27.95-.5,1.92-.81,2.86a5,5,0,0,1-.89,2.09c-3.9,3.68-4.3,6.75-2.33,11.59,1.47,3.63,2.12,7.59,3.29,11.35.73,2.36,1.71,4.64,2.65,6.93.49,1.19,1.55,2.29,1.64,3.49.54,7.52,7.09,9.65,12,12.82,2.17,1.41,4.65,2.31,6.14,4.55s2.61,4.62,4.14,6.78a8.91,8.91,0,0,0,2.91,2.11c1.57.92,3.4,1.5,4.77,2.63a41.07,41.07,0,0,1,4.23,4.68l.6-.47a39.55,39.55,0,0,1-2.86-5.26,3.19,3.19,0,0,1,.8-2.87C61.29,115.79,70.34,118.1,71,120a15,15,0,0,1,.8,5.64c-.16,3.84.29,5,4,5.9,2.63.65,3.64,1.93,3.37,4.59a8.42,8.42,0,0,0,3.22,7.71,70.16,70.16,0,0,0,8.11,5.3c3.5,2,5.84,4.6,5.47,8.9-3.31-.16-5.67,1.33-7.51,4-.62.92-2,2.25-2.66,2.07-2.81-.73-3.23,1.23-4,3-1,2-.31,3.42,1.46,4.6.39.26.37,1.13.46,1.47-2.39-.54-4.8-.6-6.73-1.61-4.53-2.38-2.69,3.22-5.08,3.69-1.88-1.38-1.18-3.27-.44-4.76a21.26,21.26,0,0,1,3.15-3.88c-.15-.22-.3-.45-.46-.67a87.26,87.26,0,0,0-9.16,4,86.06,86.06,0,0,0-8.13,5.93l.77.58c-.59,1-1,2.37-1.82,2.83-1.74.94-3.8,1.25-5.64,2.05a53.81,53.81,0,0,0-5,2.8l3.1,1.76c-.52,2.08-3.54,4.33-.14,5.9,1.54.71,4.29,2.35,5.74-1.14l-4.28-1.86c2.17-4.43,3.12-5,7.78-4.36-2.8,1.21-1.55,2.42-.62,3.84,1.16,1.77,3.74,2.56,3.06,5.69-.44,2,.5,4.33.82,6.51-2-1.3-2.87-3.61-5.77-1.9-1.82,1.07-4.14,1.29-6.25,1.87a25.61,25.61,0,0,1-.5,4.22,36.42,36.42,0,0,1-1.82,4.4c-1.2-.59-2.39-1.18-3.6-1.76a3.79,3.79,0,0,0-.68-.19c-3.88,2.24-3.8,2.19-1.87,5.85a25.81,25.81,0,0,1,1.46,4.61l-.78.66-4.15-2.29c-3.45,2.22-1,4.28.66,6.36l-4.92,4.22c3,.49,2.75,1.54,1.91,3.39a92.27,92.27,0,0,0-3.38,9.81,16,16,0,0,0-.34,2.56c4.55-1.88,5.6-5.63,6.11-9.23.74-5.21,1.68-6.71,7.48-8.21.39,4.32-3.28,5.76-5.51,8.05a6.63,6.63,0,0,1,1,7.47c-.83,2-1.17,4.57,1.62,6.07a2.44,2.44,0,0,1,.13,2.32,28.56,28.56,0,0,1-4,3.12c.38-3.29.67-5.72.94-8a88.16,88.16,0,0,0-7.74,4.41,7.43,7.43,0,0,0-2.65,3.62c-1.16,3.79-2,7.69-2.87,11.58a44.69,44.69,0,0,0-.51,5.05H32.6c1.54,0,3,0,3.63-2.07l-6.38.32,7.94-6.54,2.12,2.43c.27-2.77-.24-5.38,3.11-6.61-.41,1.73-.7,2.92-1,4.1l.84.48c.53-.81,1.63-1.76,1.49-2.43-1.19-5.39,5.52-5.86,6.15-10.06,0-.12.85-.12,1.39-.19,1.82,4.53-1.94,5.81-5,8,1.18.1,1.63.12,2.08.18l3.25.41c-.76.91-1.55,1.79-2.26,2.73a27.3,27.3,0,0,0-2.91,4.16c-2.1,4.35-4,8.8-6,13.21l-.88-.26-.45-5.51-.83,0c-.22.76-.46,1.52-.66,2.28-.83,3.17-3.22,4.17-7.13,3.3s-1.38-3-.86-5c-3.33.43-4.72,2.69-6.43,4.65-2.47,2.85-2.64,3.53.74,5.15a56.13,56.13,0,0,0,10.24,3.47c2.44.63,3.32,1.91,3.43,4.32.26,5.63-3.72,8.93-7,12.38-3.86,4.07-8.57,7.33-12.54,11.31-3.12,3.14-2.44,6.5,1.16,8.85a22.37,22.37,0,0,1,1.69,1.54L15.42,328c-.85-1.85.54-4.34-2.39-4.17-.17.41-.45.75-.41,1.05.47,3.36,1.35,6.83-2.77,8.78-.27.13-.31.85-.36,1.31-.36,3.19-2.13,6.31-.26,9.64.36.64-.07,2-.52,2.76C7.28,349.86,7,352,9.63,354a5.14,5.14,0,0,1,1.73,2.71c.29,1.18.55,2.82,0,3.66-1.95,2.79-4.28,5.3-6.53,8C1.92,367.43,1,368,.7,371.25c-.22,2.89.14,5.87-.48,8.65-.69,3.09.25,5.05,2.87,6.2a7,7,0,0,1,4.11,5.12q4.14,15.4,8.39,30.78c.46,1.66,1.18,3.26,2,5.41a66.15,66.15,0,0,1,5.06-5.51c2.41-2.06,3.52-4.64,4.55-7.57,1.87-5.34,4.26-10.5,6.64-15.64,1.1-2.37,2.49-2.31,4.33-.34-1.19,1.36-3,2.55-3.43,4.1-1.28,4.84-2.08,9.81-2.95,14.75-.46,2.59-.12,5.45-1.07,7.81-3.18,7.82-6.91,15.41-10.17,23.2a143.25,143.25,0,0,0-5.41,15.17,99.73,99.73,0,0,0-3.06,14.28,10.12,10.12,0,0,0,1.31,6c1.35,2.38,3.45,4.27,3.52,7.34a3.09,3.09,0,0,0,1.86,2.3c3.32.41,6.68,1.91,10-.71S36,487.91,39.42,485c3.68-3.19,8.72-5.23,13.5-6.64S60.6,474,63.7,470.82c2.83-2.94,3.87-3.09,7.12-.69,1.91,1.41,3.47,2.41,5.59.19a5.39,5.39,0,0,1,3.68-1.2c5.88.17,11.76.52,17.64.88,3.18.2,6.35.56,9.57.85.09-.14.33-.32.35-.53.09-.95.13-1.92.17-2.88.29-5.95,4.7-8.76,10-6.34,1.25.57,2.53,1.09,3.89,1.67a9.93,9.93,0,0,0,.79-1.72c1-5,1-5,6.19-5.5,1.2-.11,2.49-.51,3.59-.22a9.7,9.7,0,0,1,3.9,2.08c2.63,2.43,4.87,5.31,7.61,7.59,3.51,2.91,3.66,2.74.62,6.18-1.75,2-1.43,3.7.93,4.91.7.36,1.44.66,2.27,1-1.16,2.65-2,5.23-3.37,7.45-1,1.52-2.55,3.21-4.18,3.67-5.79,1.61-11.7,2.79-17.6,4-2.08.42-4.19.67-6.31.93a48.9,48.9,0,0,0,2.61,5.69c1,1.77,2.5,1.53,3.84,0,1-1.12,2.11-2.11,3.49-3.46,1.75,4.55-.37,9.23,2.73,13.51,1.67-6.05,5.95-9.39,10.12-12.87a24.74,24.74,0,0,0,3.56-4.07c3-3.89,6.42-7.49,7.59-12.5a3.49,3.49,0,0,1,1.42-2.05,12.74,12.74,0,0,0,6.22-8c.1-.38.88-.59,1.34-.87-.12.31-.24.61-.37.92,1.26,1.11,2.6,2.14,3.74,3.36,1.68,1.78,3.75,3.5,4.55,5.66.28.76-2.66,2.73-4.14,4.14a10,10,0,0,0-1.66,1.57c-1.78,2.85-3.47,5.76-5.45,9.07-.94-1.89-1.63-3.27-2.59-5.22-1.73,3.53-3.11,6.34-4.29,8.76-1.6,1.18-4.08,2.09-4.28,3.36-.36,2.31-1.89,3.46-2.95,5.11A33.35,33.35,0,0,0,138,511.4c-.81,2.12-2,2.73-3.83,1.85-2.55-1.22-4.08-.21-5.51,1.81a4.18,4.18,0,0,1-2.14,1.61c-4.31,1.11-7.24,4.46-6.55,8.88.66,4.19-1.76,6.51-4.1,9-.55.59-1.63.67-2.47,1-.15-.87-.63-1.83-.4-2.58.76-2.44-.44-3-2.5-3.14a58.53,58.53,0,0,1-6.48-.66c-4.16-.73-8.25-1.93-12.43-2.37-6-.64-12-.71-18-1.14-3.85-.28-5.53-2.12-6.12-5.92a32.48,32.48,0,0,0-1.39-4.54c-1.29,1.3-2.64,2.54-3.82,3.94-.41.49-.34,1.38-.57,2.06a37.62,37.62,0,0,1-1.91,5.14c-.85,1.63-1.27,3.13.68,3.94A44.07,44.07,0,0,0,78,533.83c4.43,0,8.87-.32,13.28-.11a88.18,88.18,0,0,1,12.23,1.47,51.25,51.25,0,0,1,8.92,2.8,2.86,2.86,0,0,1,1.07,2.49,6.62,6.62,0,0,1-1.63,2.74c-3.16,4-7.4,6-12.37,6.87-1.53.27-3.92.23-3.77,3h16.69a15.34,15.34,0,0,1,1.59-1.42c3.29-2.26,3.86-3.73,2.8-7.54-.51-1.85,3.53-6.38,5.25-5.66a3.74,3.74,0,0,1,1.79,2.74c.16,3.24,1.74,5.11,4.45,6.81,1.65,1,2.5,3.34,3.71,5.07h11.61c1.28-3.1,4.64-3.1,7.26,0h17.41c5.5-2.24,10.6-5,14.6-9.62a3.11,3.11,0,0,1,4.3-.76,18.53,18.53,0,0,0-.87,11h16l10.47-12.15-3.21-1a34.22,34.22,0,0,1,8.59-4,29.64,29.64,0,0,1,6.76,3.37l-3.21,1,10.47,12.15h16a17.7,17.7,0,0,0-.51-9.93,3.09,3.09,0,0,1,3.94,1c4,4.58,9.1,7.37,14.6,9.62h17.42c2.61-3.1,6-3.1,7.25,0h11.61c1.21-1.74,2.06-4.05,3.71-5.08,2.71-1.69,4.29-3.56,4.46-6.81a3.73,3.73,0,0,1,1.78-2.74c1.73-.71,5.76,3.82,5.25,5.66-1.06,3.81-.49,5.29,2.81,7.55a15.12,15.12,0,0,1,1.58,1.42h16.69c.16-2.75-2.23-2.71-3.77-3-5-.87-9.21-2.85-12.37-6.86a6.77,6.77,0,0,1-1.63-2.75,2.91,2.91,0,0,1,1.07-2.49,50.38,50.38,0,0,1,8.92-2.79,86.68,86.68,0,0,1,12.23-1.47c4.41-.22,8.85.06,13.28.1A43.9,43.9,0,0,0,374,530.94c1.95-.81,1.53-2.31.68-3.94a36.31,36.31,0,0,1-1.9-5.14c-.24-.68-.17-1.56-.58-2.06-1.18-1.39-2.53-2.64-3.81-3.94a31.25,31.25,0,0,0-1.4,4.54c-.59,3.81-2.26,5.64-6.12,5.92-6,.43-12,.51-18,1.14-4.18.45-8.27,1.65-12.42,2.38a61.22,61.22,0,0,1-6.49.66c-2.06.13-3.26.69-2.5,3.14.24.74-.25,1.71-.4,2.57-.84-.31-1.92-.4-2.46-1-2.35-2.52-4.77-4.83-4.11-9,.7-4.42-2.24-7.78-6.54-8.88a4.27,4.27,0,0,1-2.15-1.61c-1.43-2-3-3-5.5-1.82-1.85.89-3,.28-3.84-1.85a33.69,33.69,0,0,0-3.54-6.14c-1.06-1.64-2.59-2.8-2.95-5.11-.2-1.26-2.67-2.17-4.28-3.36l-4.29-8.75-2.59,5.21c-2-3.3-3.67-6.21-5.45-9.06a9.61,9.61,0,0,0-1.66-1.58c-1.48-1.41-4.42-3.37-4.14-4.14.8-2.16,2.87-3.87,4.55-5.66,1.15-1.21,2.48-2.24,3.74-3.35-.13-.31-.25-.62-.37-.93.46.29,1.24.49,1.34.88a12.72,12.72,0,0,0,6.22,8,3.54,3.54,0,0,1,1.43,2.06c1.16,5,4.6,8.61,7.58,12.49a24.8,24.8,0,0,0,3.56,4.07c4.17,3.48,8.45,6.82,10.12,12.88,3.1-4.28,1-9,2.74-13.51,1.37,1.35,2.5,2.34,3.48,3.45,1.34,1.52,2.8,1.76,3.84,0a47.43,47.43,0,0,0,2.61-5.7c-2.11-.25-4.23-.5-6.31-.92-5.9-1.19-11.81-2.38-17.6-4-1.63-.45-3.21-2.14-4.18-3.67-1.4-2.21-2.21-4.79-3.37-7.45.83-.38,1.57-.67,2.27-1,2.36-1.21,2.68-2.93.94-4.91-3-3.44-2.9-3.26.61-6.17,2.74-2.28,5-5.16,7.61-7.59a9.58,9.58,0,0,1,3.9-2.08c1.1-.3,2.39.11,3.59.22,5.16.46,5.15.47,6.19,5.49a10.28,10.28,0,0,0,.79,1.73c1.36-.59,2.64-1.1,3.89-1.68,5.25-2.41,9.66.4,9.95,6.35,0,1,.08,1.92.17,2.88,0,.2.26.39.35.52,3.22-.29,6.39-.65,9.57-.84,5.88-.37,11.76-.71,17.64-.88a5.39,5.39,0,0,1,3.69,1.2c2.11,2.22,3.67,1.21,5.58-.2,3.25-2.39,4.29-2.25,7.12.7,3.1,3.21,6.14,6.11,10.78,7.48s9.82,3.45,13.5,6.65c3.41,3,7.32,4.91,10.74,7.65,3.26,2.61,6.62,1.12,9.94.7a3,3,0,0,0,1.86-2.29c.07-3.08,2.17-5,3.52-7.34a10.24,10.24,0,0,0,1.32-6A101,101,0,0,0,419.36,464,144.05,144.05,0,0,0,414,448.86c-3.26-7.78-7-15.38-10.17-23.2-.95-2.35-.61-5.21-1.07-7.81-.86-4.93-1.67-9.9-2.95-14.74-.41-1.56-2.23-2.74-3.43-4.11,1.84-2,3.23-2,4.33.34,2.39,5.14,4.77,10.31,6.64,15.64,1,2.94,2.14,5.52,4.55,7.58a65.94,65.94,0,0,1,5.07,5.5c.78-2.15,1.5-3.74,2-5.41q4.25-15.37,8.39-30.77a7,7,0,0,1,4.11-5.13C434,385.6,434.94,383.65,434.25,380.56ZM359.79,123.91l1.51.67c-.4,1.12-.81,2.24-1.21,3.35l-2-.85C358.66,126,359.23,125,359.79,123.91ZM74.38,127.28l-1.21-3.35,1.51-.68c.56,1.06,1.13,2.12,1.7,3.18ZM136.43,525a22.52,22.52,0,0,0-2.89,3.58c-.42-.29-.83-.59-1.24-.89,1.11-2.84,2.21-5.68,3.36-8.63C139.46,521.69,139.45,522.54,136.43,525Zm162.38-5.28c1.15,2.94,2.25,5.78,3.36,8.62l-1.23.9a22.68,22.68,0,0,0-2.9-3.58C295,523.19,295,522.34,298.81,519.76ZM384.66,296c.49,3.1.79,6.23,1.16,9.35l-2,.34c-.67-3.05-1.4-6.1-1.93-9.17-.08-.45.69-1.38,1.22-1.51A1.85,1.85,0,0,1,384.66,296Zm1.52,14.81-.45,7.46c-2.23-2.49-1.86-5-1-7.49Zm-2.41-44-.53,1.06c-3.32,1.24-6.35-.76-9.46-1.4-.43-.08-.88-2.09-.61-3,.21-.73,1.83-1.82,2.24-1.61C378.28,263.35,381,265.13,383.77,266.82Zm-7,10.4-.73,1.13-5.65-3.84.6-1Zm7.49-69.5q1.22,1.91,2.45,3.81c-.16.33-.32.66-.49,1-.81-.3-2.14-.4-2.35-.94a14.41,14.41,0,0,1-.48-3.87Zm-7.86,11.51c2.15,1.34,4,2.45,3.89-1.72,0-.74,1.49-1.52,2.29-2.28l.68.61c-.32,1.47-.63,2.94-.95,4.42l3.1,2.18-.22.88-5.32-.3c.78,1.62,1.47,3,2.16,4.44-2.82-2.39-6.35-4.13-7.12-8.4C375.71,219.15,376.12,219.07,376.38,219.23Zm-7.47,8.44c-.47-2.13,1.74-4.36,4.56-4.61-.93,1.56-1.81,3.05-2.76,4.66l3.58,2.15C371.34,230.44,369.49,230.31,368.91,227.67Zm5.18-23.74-2.44,6C369.58,205.44,370,204.39,374.09,203.93Zm.52-20.45c-.31,1.43-1.36,2.71-2.1,4.06-.56,1-1.61,2-1.58,3,.1,3-1.69,4.67-4,6.54-.3-6.49,1.89-11.66,6.44-16.47C373.8,181.5,374.79,182.61,374.61,183.48ZM371,172.69l.85.25,1.19,4-7.36,8.77-.72-.44C365.28,180.24,370.59,177.67,371,172.69Zm-16.55,49.58-3.39-1.75-.57.77c.9.77,1.76,1.63,2.73,2.31,2.22,1.58,1.66,2.77-.23,3.94-5.62-4.59-5.66-11.62-8.31-17.42-.6-1.31-.45-3-.64-4.46l.76-.16C348,211,351.14,216.54,354.44,222.27Zm-5.86,19.84c-4.25.14-5-1.27-2.58-6.75,1.61,3.35,7.15,4.13,4.55,9.35,0,.09,0,.24,0,.36.67,4,1.37,8.07,2,12.12.3,2,.43,4,.67,6.33-6.49-1-7.38-3-5-8.07a18.14,18.14,0,0,0,1.21-6.95A38.84,38.84,0,0,0,348.58,242.11Zm-9.66-117.42c1.87-.13,3.75.63,3.72,2.93,0,.81-1.17,1.61-2.37,3.14-1.5-1.64-2.69-2.63-3.37-3.89C336.73,126.55,338.15,124.75,338.92,124.69Zm-.45,34c.86,2.81,1.73,5.62,2.67,8.69l.93-.17,1.53-.32c.65,3.47-.8,4.63-4.07,3.61C335.07,164.68,334.93,163.13,338.47,158.73Zm-51.26,15.89c4.15.72,3.81,4.87,6.13,7.21-4.9,3.27-7.55-1.34-11.66-2C283.26,177.12,283.47,174,287.21,174.62ZM273.12,326.4l1.74,1L271.8,333l-1.44-.76Zm-30-139.12c.2-.33,1-.31,1.64-.47l-.9-3.07.47-.25c.33.28.77.5,1,.86a9.63,9.63,0,0,0,12.45,4,25.87,25.87,0,0,1,7.58-2.08c.94-.12,2.07,1.35,3.11,2.1a31.7,31.7,0,0,1-3.07,1.69c-.37.16-.93-.17-1.41-.22-4.55-.4-6.77,1.57-6.93,6.06-1.32,0-2.75.34-3.9-.09-1.56-.57-3.75-1.46-4.16-2.71-.9-2.78-2.22-3-4.59-2.26-.64.2-1.57-.51-2.36-.8A15.55,15.55,0,0,1,243.16,187.28Zm-24,346.66c-2.5-.39-5-.87-7.45-1.39a6.93,6.93,0,0,1,1.89-2.11,6.52,6.52,0,0,0,3.32-5.59,15.21,15.21,0,0,1,.44-2.51,18.36,18.36,0,0,1,.27,1.85,6.54,6.54,0,0,0,3.32,5.6c1.09.65,1.75,2,2.6,3.08-.41.12-.83.29-1.25.45C221.21,533.54,220.17,533.75,219.12,533.94ZM175.45,339.06,172.93,342c-.65-.92-1.91-1.92-1.81-2.75s1.44-1.75,2.24-2.62Zm7.46,5.33c3.74,2.67,3.83,3.52,1.36,6-1.31,1.32-2.51,2.76-3.76,4.14-.47-.29-.94-.58-1.4-.88C180.35,350.6,181.6,347.58,182.91,344.39Zm2.77-6.89-.2-.61,5.79-.88c-.08,1.22-.13,2.06-.18,2.95Zm30.43,130.1a3.31,3.31,0,0,1,.73-3,3.23,3.23,0,0,1,1.52,3.68c-.37,2.12-.72,4.23-1.07,6.35C216.9,472.26,216.52,469.93,216.11,467.6Zm-15.8,38c1.32.25,2,.16,2.37.48l.9.87c-.69,1.09-1.35,2.2-2,3.32A24.57,24.57,0,0,0,200.31,505.58Zm31.09,1.51.4-.38c.32-.32,1-.23,2.36-.48a23.29,23.29,0,0,0-1.08,3.71Q232.27,508.5,231.4,507.09ZM249,337.54l-.2.62-5.4,1.45c-.06-.89-.11-1.73-.19-2.95Zm2.57,7.5c1.32,3.19,2.56,6.22,3.81,9.25l-1.41.88c-1.25-1.39-2.44-2.83-3.76-4.15C247.73,348.56,247.82,347.71,251.56,345Zm9.55-7.8c.8.86,2.13,1.67,2.24,2.61s-1.16,1.83-1.81,2.75c-.75-.85-1.49-1.71-2.52-2.89Zm-92-151.62a26,26,0,0,1,7.59,2.09,9.62,9.62,0,0,0,12.44-4c.19-.35.64-.58,1-.86l.47.26c-.27.93-.55,1.86-.9,3.06.64.17,1.44.14,1.64.48a15.73,15.73,0,0,1,1.12,2.77c-.8.29-1.72,1-2.37.8-2.37-.74-3.69-.52-4.59,2.25-.4,1.25-2.6,2.14-4.15,2.72-1.16.42-2.59.08-3.9.08-.17-4.49-2.39-6.45-6.94-6.05-.48,0-1,.38-1.41.22-1.06-.47-2-1.12-3.07-1.7C167,187,168.17,185.51,169.11,185.62Zm-7.76,140.13,2.76,5.8-1.44.75-3.06-5.61ZM147.26,174c3.74-.65,4,2.5,5.53,5.24-4.11.64-6.75,5.25-11.66,2C143.45,178.84,143.11,174.69,147.26,174Zm-53-43.86c-1.21-1.53-2.37-2.33-2.38-3.14,0-2.3,1.86-3.06,3.72-2.92.77.06,2.19,1.86,2,2.17C96.89,127.48,95.7,128.47,94.21,130.1Zm-3.34,36.17,1.54.32c.42.09.86.16.92.17.94-3.06,1.81-5.87,2.67-8.68,3.54,4.39,3.41,5.95-1,11.81C91.67,170.91,90.23,169.75,90.87,166.27Zm-7.44,53.59L80,221.62l9.65-16.78.76.17c-.19,1.49,0,3.14-.64,4.45-2.65,5.8-2.69,12.83-8.31,17.42-1.89-1.16-2.45-2.35-.23-3.93,1-.69,1.83-1.54,2.73-2.32C83.81,220.37,83.62,220.12,83.43,219.86Zm2.81,34.94c2.36,5.1,1.47,7.09-5,8.07.24-2.36.37-4.36.67-6.34.62-4,1.33-8.08,2-12.12,0-.12.08-.26,0-.36-2.59-5.22,2.94-6,4.55-9.35,2.41,5.48,1.67,6.89-2.58,6.75a39.1,39.1,0,0,0-.86,6.4A18.33,18.33,0,0,0,86.24,254.8ZM62.63,172.28l.86-.25c.39,5,5.7,7.55,6,12.57l-.71.44c-2.39-2.83-4.77-5.67-7.37-8.76Zm-2.77,10.54c-.18-.86.81-2,1.2-2.82,4.55,4.81,6.74,10,6.44,16.47-2.27-1.88-4.06-3.49-4-6.55,0-1-1-2-1.58-3C61.22,185.54,60.17,184.26,59.86,182.82Zm3,26.42-2.44-6C64.44,203.74,64.89,204.79,62.82,209.24Zm1,17.82L61,222.4c2.82.25,5,2.49,4.56,4.61-.58,2.65-2.43,2.77-5.38,2.2ZM63.5,272.9l.6,1-5.65,3.84-.73-1.14Zm-15.72-62Q49,209,50.23,207.06h.87a14.33,14.33,0,0,1-.48,3.86c-.21.54-1.53.64-2.35.94C48.1,211.53,47.94,211.2,47.78,210.87Zm1.52,11.8-.22-.89,3.1-2.17c-.32-1.49-.63-3-1-4.43l.68-.61c.8.76,2.31,1.55,2.29,2.28-.14,4.18,1.74,3.06,3.89,1.73.26-.16.67-.09,1.49-.17-.77,4.26-4.3,6-7.12,8.4l2.16-4.44Zm9.76,38.54c.41-.21,2,.88,2.24,1.62.27.91-.18,2.91-.61,3-3.11.63-6.14,2.63-9.46,1.4l-.53-1.07C53.47,264.48,56.19,262.7,59.06,261.21Zm-9.25,34.13a1.88,1.88,0,0,1,1.56-1c.53.14,1.3,1.06,1.22,1.51-.53,3.08-1.26,6.12-1.93,9.17l-2-.33C49,301.57,49.32,298.44,49.81,295.34Zm-.09,14.77c.88,2.5,1.25,5-1,7.49l-.45-7.45ZM32.59,350.43c-3.25,1.82-4.91,4.64-6.7,7.68-1.49,2.53-3.84,4.56-5.9,6.73-1.38,1.45-3.08,2.63-4.3,4.2-.64.82-1.15,2.7-.69,3.25,2.8,3.33,1.84,7,1.4,10.58-5.46-9.31-3.21-25.12,4.21-26.37l-1.73,3.78c3.78-1.89,3.78-1.89,10.15-11.86,1.88,1.44,3.31.81,4.47-1.14A19.28,19.28,0,0,1,37,343C37.25,346.52,35.29,348.92,32.59,350.43Zm4.58,30.44c-.33.71-.73,1.4-1.09,2.09l-.8-.31c2.24-7,4.23-14,6.8-20.91,2.32-6.21,5.36-12.15,7.91-18.28.82-2,2.23-2.13,3.79-1.78,1.92.42,1.59,1.89,1.4,3.47a52.46,52.46,0,0,0-.38,8.22,22.48,22.48,0,0,1-2.73,11.57l-.94-.16c-.4-2.13-.81-4.26-1.21-6.38l-1.12-.34a26.25,26.25,0,0,0-3,4.07C42.84,368.33,40,374.62,37.17,380.87Zm14-2.67-6.8,7.74C44.86,380.17,46.82,377.91,51.16,378.2Zm13.66,41.5c-.79,3.52-1.52,7.08-2.65,10.49-1.77,5.34-3.82,10.59-5.85,15.83-.26.66-1.16,1.1-1.82,1.56-.48.34-1.21.42-1.56.84-5.1,6.09-11.18,11.46-14.35,19-.69,1.63-.65,3.56-1,5.65-2.34-1.11-3.17-2.35-2.55-4.52s1.1-4.64,1.66-7a4.88,4.88,0,0,1,.6-2.07c4.28-4.92,3.2-11.44,5-17.1.71-2.27.59-4.45,2.57-6.43,1.54-1.54,1.83-4.27,2.92-6.35s2-4.71,5.17-5c.78-.07,1.76-1.14,2.14-2,1.06-2.32,2.27-3.95,5.12-4.48,1.14-.22,2-2.54,2.77-4s1.39-3,2.07-4.45l1.61.63C66,413.47,65.51,416.6,64.82,419.7ZM63.64,232.4c3-2,5.07-5.93,9.86-3.79C71.65,233.71,67.76,235.29,63.64,232.4ZM81,433.72c-.88,3.06-2,6-3.11,9A15.76,15.76,0,0,1,76,446.65c-.46.62-1.59.74-2.42,1.09-.3-.73-.92-1.49-.85-2.18.27-2.64.69-5.27,1.2-7.87,1.18-5.91,2.43-11.81,3.69-17.7.19-.87.58-1.69,1.06-3.09.9,1.11,1.74,1.67,1.82,2.33.42,3.28.7,6.58.88,9.88A14.53,14.53,0,0,1,81,433.72Zm7-151.19a15.58,15.58,0,0,1-2.79-2.72l.06-1c1.57.14,3.29,0,4.64.57.64.29.58,2.13.84,3.26C89.85,282.64,88.73,283,88,282.53Zm4.27-90.14-.88.09v-8.29l.88-.2ZM93,181.61l-5.42-3.13c4.7-1.68,5.29-1.37,6,2.26Zm10.7,48.94a29.63,29.63,0,0,1-5.92,2.76c-.27.11-1.08-.35-1.1-.6a2,2,0,0,1,.5-1.5,14.42,14.42,0,0,1,2.63-1.27l-3.56-1.5c2-2.15,3.54-4.06,5.36-5.69.55-.48,1.83-.13,2.77-.17a11,11,0,0,1-1,2.37A5.09,5.09,0,0,1,102,226.1C102.66,227.89,103.94,230.36,103.67,230.55Zm-5-18c.39-3.29,2.22-3.07,4.06-2.82l.48,1.32Zm10.26,145.15c-.47,4-1.22,8-1.79,12-.27,1.85-.39,3.72-.58,5.59l-1.51-.11q1.62-13.4,3.26-26.79l1.18.06C109.33,351.57,109.3,354.68,108.94,357.75Zm8.48-148.59.93-3c.71-2.25,1.85-4.24-.51-6.62-.93-.94-.73-3.28-2.23-4.78-1.79-1.79-2.78-1.24-4,.24.51,1.16,1.59,2.41,1.33,3.24-1,3.06-.23,6.88-4,8.85-2.21,1.16-9.27,1.2-11.17-.66,2.93-2.88,7.59,2.35,10.13-2.51l-7.72-2.85,6.76-5.33c-3.92-4.06-5.15,3.28-8.43,1.53-1.95-8.54,3.41-13.44,9.47-18.26,2.07,2.34,4.54,3.4,7.44.95l-5.1.5c2.4-4.07,2.87-7.44-1.13-10-2.63,1.22-4.37,5.31-8.32,2.33.26-.88.55-1.83.87-2.9-4.41-.75-4.83,3.71-8.44,5.55.76-2.3,1.32-3.95,1.87-5.6,2.88-1.53,6.52-1.5,8.5-5,1-1.84,5-1,6.24,1.06,3.46,5.68,9,8.68,14.65,11.41.84.41,2.34.59,2.89.12s.65-1.92.69-2.94a39.79,39.79,0,0,0-.09-5.35c-.32-3.57-.91-7.12-1.12-10.69-.08-1.34.59-2.73.92-4.1a34.19,34.19,0,0,1,5.58,3.43c.41.36-.42,2.44-1,3.53-.46.81-1.49,1.28-2.72,2.27l4.15,1.51c-.55.75-.83,1.48-1.36,1.8-2.56,1.53-3.23,2.94-.56,5.22.84.71.59,2.67.87,4.06.36,1.78.75,3.56,1.25,5.88-1.13,3-2.47,6.7-4,10.36-.73,1.77-2,3.33-2.57,5.12a39,39,0,0,0-1.06,5.91C120.82,201.27,121.41,208.5,117.42,209.16ZM129.3,345.51c.69-.65,1.74-1.36,1.83-2.13.51-4.72,4.67-5.27,8-6.86a52.88,52.88,0,0,0-4.84,5.23,8.37,8.37,0,0,0-1.2,4.24c0,.73.92,1.53,1.43,2.3.67-.55,1.34-1.12,2-1.65,1.57-1.21,3-2.88,4.79-3.46,1.58-.51,2.87-.76,2.69-2.59s3-4.7-2.89-5.59l3.09-3.5,1.18.88,1.91,3.19c.76-1.66,1.25-2.76,1.75-3.85,4.81,1.06,5,1.95,1,6.38l3.5,1.4c-.42,1.05-.84,2.08-1.33,3.27,1.74.9,3.36,2.39,5,2.43,1.95.05,3.93-1.17,6.13-1.92-1.53-.52-3.52-.6-4.36-1.63s-.61-3-.84-4.62c3.55-2.4,4.14-2.25,6,1.56,2.84,6,1.59,7.6-3.81,11.46a20.12,20.12,0,0,1-9.54,3.93c-1.29.17-2.44,1.31-4,2.22-.37-1.47-.67-2.64-1.1-4.34l-4.06,2.35s0,0,0,0c-.89.13-2,.66-2.62.31-4.86-2.77-6-2.69-9.91,1.2C126.61,352.73,126.75,347.87,129.3,345.51Zm12.2,8.79c.92.51,2.18.86,2.58,1.64.25.49-.65,1.94-1.38,2.5a40.38,40.38,0,0,1-4.76,2.73C137.22,357.67,140.57,356.61,141.5,354.3Zm-10.91,9.94c.34-2.32.59-4,.93-6.32l4.08-1C135.15,360.48,134.06,362.87,130.59,364.24Zm10.94,34.46.21-1.2c2.47-.3,4.52.9,6.59,2.05-.07.31-.15.61-.22.91Zm-3.4-9.21c4.6-2.24,5.94-1.76,7.88,2.94l-3.8,1.61ZM142,454.24c0-3.47.81-4.38,3.94-3.92s6.29,1.12,9.66,1.74C151.35,456.12,146.72,455.62,142,454.24Zm8.26-20.19c2.11.15,3.87.73,4.15,3.28C150.75,438,150.37,437.71,150.24,434.05Zm2.13-5-2.18,4.89c-1.86-1.4-1.75-3.11.46-5.67,1.68-1.93,3-.88,4.93.78Zm4.49-28.44c-1.7-2.83,1.8-2.91,2.25-4.78l-4.71-2.51a62.28,62.28,0,0,0,6.83-3.52,54.32,54.32,0,0,0,5.41-4.9l2.67.36c-.17,1.24-.32,2.34-.53,3.9H173a11.52,11.52,0,0,1-.29,3,8.85,8.85,0,0,1-1.62,2.16,10.12,10.12,0,0,1-1.75-2.16c-.69-1.54-4-2.61-5.26-1.56l-2.69,2.18C164.07,397.5,158.7,397.92,156.86,400.58Zm8.66-25.32,4.75-4.4C169.54,373.16,169,375.62,165.52,375.26Zm7.67,5-.65.67-5.33-3,2.86-2.7ZM160.6,420.1c1.81-2.72,1.81-2.72,5-1.62C164.2,420.89,164,421,160.6,420.1Zm5.59-4.72c.26-1.43.24-3.22.92-4.69,1.18-2.55,3.73-1.83,5.83-2.09l.57.83Zm12.55-39.46c-3-2.4-3-3.86-.12-7.14l2.68.14C180.37,371.48,179.56,373.67,178.74,375.92Zm-.15-7.27-3.4-1.06c.52-1.21,1-2.43,1.57-3.64s1.08-2.4,1.84-4.08c-5.3.92-8.59,3.09-8.17,5.37.31,1.73-.39,2.29-1.42,3.22-2.83,2.53-5.68,4.75-9.55,3.08-.1,1.7.37,3.87-.41,4.51-1.32,1.07-3.63,1.94-5.17,1.54-3.9-1-6.95,1.18-10.36,2-.56.13-1.05.91-1.42,1.49s-.38,1.53-.86,2a18.77,18.77,0,0,1-3.89,2.75c-.3.15-1.83-1.07-1.75-1.36a9.79,9.79,0,0,1,1.82-4c2.1-2.26,4.51-4.24,6.7-6.89l-3.69.61-2.12-6.65c1.81-2.42,3.07-4.24,4.5-5.92a9.76,9.76,0,0,1,2.3-1.48c0,1,.39,2.28-.07,3-1.3,2.13-2.94,4.05-4.45,6.06l.57.67,5.74-4.71,1,.73q-1.43,2.71-2.86,5.43l.72.58c2.56-1.82,5.23-3.5,7.63-5.5a7.06,7.06,0,0,1,6.69-1.48,11,11,0,0,0,5.59,0c2.32-.77,4-2.57,3.47-5.45,2.43-1.38,6.11.38,7-4.21l5.2,5.55a14.58,14.58,0,0,1,1.4-2.74,11.64,11.64,0,0,1,2.85-2.44c.84-.48,2.46-.2,2.84-.81a14.94,14.94,0,0,0,1.89-5c.11-.58-1-1.39-1.79-2.4,1.7-3.13,6.27-5.22,4.61-10.11l.25.05.48,2.93c.34,2,1.47,3.78,1.92,5.74-.71,3.35-1.38,6.72-2.23,10.05a9.69,9.69,0,0,1-2.42,3.57,20.37,20.37,0,0,1-3.65,3.36c-1.34.92-2.94,2.12-4.38,2.07C178.79,364.8,178.75,364.59,178.59,368.65Zm77.14,7.92c-.82-2.24-1.62-4.44-2.56-7l2.68-.15C258.7,372.72,258.69,374.18,255.73,376.57ZM261,410.08l.57-.82c2.1.25,4.65-.46,5.83,2.09.68,1.47.66,3.26.92,4.69Zm3.44-34.22,2.86,2.69-5.33,3-.65-.68Zm-.2-4.35,4.75,4.41C265.51,376.28,264.94,373.82,264.2,371.51Zm4.66,47.63c3.2-1.1,3.2-1.1,5,1.61C270.48,421.61,270.27,421.54,268.86,419.14Zm8.75-17.91c-1.84-2.66-7.21-3.08-4.53-7.84-1-.79-1.82-1.49-2.69-2.18-1.3-1-4.57,0-5.26,1.56a10.37,10.37,0,0,1-1.75,2.16,9,9,0,0,1-1.62-2.16,11.64,11.64,0,0,1-.29-3h4.22c-.21-1.55-.36-2.66-.53-3.89l2.67-.36a54,54,0,0,0,5.41,4.89,61.61,61.61,0,0,0,6.84,3.52l-4.71,2.52C275.81,398.32,279.31,398.4,277.61,401.23Zm6.21,27.66c2.22,2.56,2.32,4.27.46,5.68l-2.18-4.89h-3.21C280.78,428,282.14,427,283.82,428.89Zm.41,5.82c-.13,3.65-.51,3.94-4.15,3.27C280.36,435.43,282.12,434.85,284.23,434.71Zm-5.33,18c3.36-.62,6.49-1.29,9.65-1.75s4,.46,3.94,3.92C287.75,456.28,283.12,456.78,278.9,452.72Zm7.47-51.6c-.08-.31-.16-.61-.23-.91,2.07-1.16,4.13-2.36,6.59-2.06l.21,1.21Zm5.89-6.42-3.8-1.62c1.94-4.7,3.28-5.18,7.88-2.93Zm4.86-8.31a19.39,19.39,0,0,1-3.89-2.74c-.48-.43-.48-1.36-.86-2s-.86-1.36-1.42-1.49c-3.41-.78-6.46-3-10.36-1.95-1.54.39-3.85-.47-5.16-1.55-.79-.64-.32-2.8-.42-4.5-3.87,1.67-6.72-.56-9.54-3.08-1-.93-1.74-1.5-1.42-3.22.41-2.29-2.88-4.46-8.18-5.38.76,1.68,1.31,2.88,1.84,4.09s1.05,2.42,1.57,3.63l-3.4,1.07c-.16-4.06-.2-3.86-4.52-3.7-1.44.05-3-1.16-4.37-2.07a20.46,20.46,0,0,1-3.66-3.36,9.72,9.72,0,0,1-2.42-3.58c-.91-3.53-1.6-7.12-2.37-10.7.05-.2.08-.41.13-.61.44-2,1.59-3.8,1.93-5.78.09-.53.17-1.05.26-1.58l.47-.09c-1.66,4.88,2.91,7,4.62,10.11-.79,1-1.91,1.82-1.79,2.4a15,15,0,0,0,1.88,5c.39.61,2,.33,2.85.82a11.57,11.57,0,0,1,2.84,2.44,13.89,13.89,0,0,1,1.4,2.73l5.2-5.55c.86,4.6,4.54,2.84,7,4.22-.52,2.88,1.15,4.68,3.48,5.45a11,11,0,0,0,5.58,0,7.08,7.08,0,0,1,6.69,1.47c2.4,2,5.08,3.69,7.63,5.51l.72-.59-2.86-5.43,1-.72q2.88,2.34,5.74,4.7l.57-.67c-1.51-2-3.15-3.93-4.45-6.06-.45-.74-.07-2-.07-3a9.24,9.24,0,0,1,2.3,1.47c1.43,1.68,2.69,3.51,4.5,5.92-.53,1.69-1.33,4.18-2.12,6.65l-3.68-.6c2.18,2.65,4.59,4.63,6.69,6.89a9.75,9.75,0,0,1,1.82,4C299,385.33,297.42,386.54,297.12,386.39Zm-.59-24.57a41.21,41.21,0,0,1-4.76-2.73c-.73-.55-1.63-2-1.38-2.49.41-.79,1.66-1.13,2.58-1.65C293.9,357.26,297.25,358.33,296.53,361.82Zm2.34-4.28,4.08,1c.34,2.3.59,4,.93,6.32C300.42,363.53,299.32,361.14,298.87,357.54Zm6.57-1.21c-3.94-3.89-5.05-4-9.91-1.2-.61.35-1.73-.18-2.62-.3a.08.08,0,0,1,0,0l-4.05-2.35c-.44,1.69-.74,2.86-1.11,4.34-1.6-.92-2.75-2.05-4-2.22a20.13,20.13,0,0,1-9.55-3.94c-5.39-3.85-6.65-5.5-3.81-11.45,1.81-3.81,2.41-4,5.95-1.57-.23,1.58,0,3.56-.84,4.62s-2.83,1.12-4.36,1.63c2.2.75,4.18,2,6.13,1.93,1.66,0,3.29-1.54,5-2.43-.49-1.19-.91-2.23-1.33-3.27l3.5-1.4c-4-4.44-3.86-5.33.95-6.39l1.75,3.86c.88-1.48,1.4-2.34,1.91-3.19l1.18-.89,3.09,3.5c-5.86.9-2.69,3.68-2.89,5.6s1.11,2.08,2.69,2.59c1.78.57,3.22,2.25,4.79,3.46.69.53,1.36,1.09,2,1.64.51-.77,1.47-1.56,1.43-2.3a8.36,8.36,0,0,0-1.2-4.23,51.79,51.79,0,0,0-4.84-5.23c3.33,1.58,7.49,2.14,8,6.85.09.77,1.14,1.49,1.83,2.13C307.72,348.52,307.87,353.38,305.44,356.33ZM327.9,376c-.18-1.86-.31-3.73-.57-5.58-.58-4-1.33-8-1.8-12-.36-3.07-.39-6.18-.56-9.28l1.18-.05,3.27,26.78Zm9.42-144.1a2,2,0,0,1,.5,1.5c0,.24-.83.71-1.1.6a29,29,0,0,1-5.91-2.77c-.28-.19,1-2.65,1.71-4.45a5.15,5.15,0,0,1-1.37-1.14,11,11,0,0,1-1-2.37c.94,0,2.22-.31,2.77.17,1.82,1.62,3.39,3.54,5.36,5.68l-3.56,1.51A13.79,13.79,0,0,1,337.32,231.87Zm-6.06-20.12c.15-.44.31-.88.47-1.32,1.84-.25,3.67-.47,4.07,2.83Zm1.49-41.2c.32,1.07.61,2,.87,2.91-3.94,3-5.69-1.11-8.31-2.33-4,2.58-3.53,6-1.14,10l-5.1-.5c2.9,2.45,5.37,1.4,7.44-.94,6.07,4.82,11.42,9.71,9.47,18.25-3.28,1.75-4.51-5.59-8.43-1.52l6.76,5.32-7.72,2.85c2.54,4.87,7.2-.36,10.13,2.52-1.9,1.85-9,1.82-11.17.65-3.75-2-3-5.79-4-8.85-.27-.82.81-2.07,1.32-3.24-1.26-1.47-2.25-2-4-.23-1.5,1.5-1.29,3.83-2.23,4.77-2.36,2.39-1.22,4.37-.51,6.62l.93,3c-4-.67-3.39-7.89-9-5.77a40.18,40.18,0,0,0-1.07-5.9c-.59-1.8-1.84-3.36-2.57-5.12-1.5-3.66-2.84-7.39-4-10.36.5-2.33.89-4.1,1.26-5.89.28-1.38,0-3.35.86-4.06,2.67-2.27,2-3.69-.56-5.22-.53-.31-.81-1.05-1.36-1.8l4.16-1.5c-1.24-1-2.27-1.47-2.73-2.27-.61-1.09-1.44-3.18-1-3.54a34.14,34.14,0,0,1,5.58-3.42c.33,1.36,1,2.75.92,4.09-.21,3.58-.79,7.12-1.12,10.69a41.7,41.7,0,0,0-.09,5.36c0,1,.07,2.4.69,2.93s2,.29,2.89-.11c5.7-2.73,11.19-5.74,14.65-11.42,1.29-2.1,5.21-2.89,6.24-1,2,3.55,5.62,3.52,8.51,5l1.86,5.59C337.58,174.27,337.16,169.8,332.75,170.55Zm8.15,10.84c.73-3.62,1.32-3.94,6-2.25l-5.42,3.13Zm2.15,11.75-.89-.1v-8.39l.89.2Zm3.39,90.05c-.7.41-1.82.1-2.76.12.26-1.14.2-3,.84-3.26,1.35-.62,3.07-.43,4.64-.57l.06,1A15.86,15.86,0,0,1,346.44,283.19Zm14.41,165.2c-.83-.35-2-.47-2.41-1.09a15.35,15.35,0,0,1-1.89-3.88c-1.11-3-2.24-6-3.12-9.05a14.44,14.44,0,0,1-.37-4.6c.17-3.3.46-6.6.87-9.88.08-.66.92-1.23,1.82-2.33a32.14,32.14,0,0,1,1.06,3.08c1.26,5.9,2.51,11.79,3.69,17.7.51,2.6.93,5.23,1.2,7.87C361.78,446.9,361.15,447.66,360.85,448.39ZM361,229.26c4.79-2.13,6.86,1.8,9.86,3.8C366.71,235.94,362.82,234.36,361,229.26Zm36.2,230.89a5,5,0,0,1,.61,2.06c.55,2.33,1,4.68,1.65,7s-.2,3.4-2.55,4.51c-.35-2.08-.31-4-1-5.65-3.18-7.5-9.26-12.87-14.35-19-.35-.42-1.09-.5-1.57-.84-.66-.46-1.56-.89-1.81-1.55-2-5.24-4.09-10.49-5.86-15.83-1.13-3.42-1.86-7-2.65-10.5-.69-3.09-1.21-6.23-1.81-9.34l1.61-.63c.68,1.49,1.28,3,2.07,4.45s1.63,3.78,2.77,4c2.85.53,4.06,2.17,5.12,4.48.38.84,1.36,1.91,2.14,2,3.19.27,4,2.81,5.17,5s1.38,4.8,2.92,6.35c2,2,1.86,4.16,2.57,6.42C394,448.71,392.89,455.23,397.17,460.15Zm-13.86-81.29c4.34-.3,6.3,2,6.8,7.73Zm15.08,4.76c-.36-.7-.76-1.38-1.09-2.09-2.87-6.26-5.67-12.54-8.64-18.75a26.25,26.25,0,0,0-3-4.07l-1.12.34c-.4,2.13-.81,4.25-1.21,6.38l-.94.16A22.56,22.56,0,0,1,379.67,354a52.57,52.57,0,0,0-.38-8.22c-.19-1.57-.52-3,1.4-3.47,1.56-.35,3-.19,3.79,1.79,2.55,6.13,5.59,12.07,7.91,18.28,2.57,6.85,4.56,13.92,6.8,20.9Zm19.68-.09c-.44-3.59-1.39-7.26,1.4-10.59.46-.54-.05-2.43-.68-3.25-1.22-1.56-2.93-2.74-4.31-4.2-2.06-2.17-4.41-4.2-5.9-6.73-1.79-3-3.45-5.85-6.69-7.67-2.71-1.52-4.67-3.92-4.43-7.47a18.59,18.59,0,0,1,3.51,4.32c1.17,1.95,2.6,2.57,4.47,1.14,6.37,10,6.37,10,10.16,11.86l-1.74-3.78C421.28,358.4,423.53,374.21,418.07,383.53Z"/><path class="cls-1" d="M331.25,495.31c-2.49.11-2.51,2.11-2,4.05s1.61,3.24,3.58,2.25c2.58-1.3,4.94-3.05,7.39-4.61-.08-.39-.17-.77-.25-1.15A74.49,74.49,0,0,0,331.25,495.31Z"/><path class="cls-1" d="M312.77,468.54c-1.75.36-2.56,1.14-2.22,2.94.29,1.5.59,3,.91,4.58h4.36a50.62,50.62,0,0,0,0-5.39C315.59,469,314.69,468.15,312.77,468.54Z"/><path class="cls-1" d="M365.29,494.43l-21.87,2.38C345.83,498.79,354.09,498,365.29,494.43Z"/><path class="cls-1" d="M394.58,204.08c-2-2.38-3.89-4.92-6.1-7.1-1.3-1.29-2.48-.42-2.72,1.26a13.18,13.18,0,0,0,.18,2.79c2.25,1.16,4.49,2.34,6.76,3.47C393.07,204.68,393.55,204.64,394.58,204.08Z"/><path class="cls-1" d="M296.88,469.6c-1,.13-1.91,1.14-2.44,1.49,0,3.12,1.95,5.62,3.8,5.26a3.48,3.48,0,0,0,2.28-2.09C300.93,472.49,298.46,469.38,296.88,469.6Z"/><path class="cls-1" d="M308.31,513l1,.78c2.66-.44,3.25-2.44,3.44-4.74l-.9-.68Z"/><path class="cls-1" d="M280.26,349.66l8.93,1.7C286.11,346.07,284.25,345.87,280.26,349.66Z"/></g></g></svg>