<svg width="435" height="554" viewBox="0 0 435 554" fill="none" xmlns="http://www.w3.org/2000/svg">
<path d="M113.5 493.49C114.36 493.37 115.23 493.26 116.1 493.16C115.98 492.87 115.86 492.59 115.73 492.3L113.5 493.49Z" stroke="white" stroke-width="3"/>
<path d="M105.26 498.7C105.73 496.76 105.71 494.77 103.26 494.65C100.359 494.669 97.4606 494.853 94.58 495.2C94.5 495.58 94.42 495.96 94.33 496.34C96.79 497.9 99.14 499.66 101.72 500.96C103.65 502 104.8 500.63 105.26 498.7Z" stroke="white" stroke-width="3"/>
<path d="M123.92 470.82C124.26 469.03 123.45 468.25 121.7 467.89C119.78 467.5 118.88 468.38 118.7 470.01C118.604 471.805 118.604 473.605 118.7 475.4H123C123.33 473.82 123.64 472.32 123.92 470.82Z" stroke="white" stroke-width="3"/>
<path d="M91.06 496.15L69.18 493.78C80.38 497.36 88.64 498.13 91.06 496.15Z" stroke="white" stroke-width="3"/>
<path d="M48.71 197.59C48.47 195.91 47.29 195.03 45.99 196.32C43.78 198.51 41.91 201.04 39.9 203.43C40.9 203.98 41.4 204.03 41.78 203.84C44.04 202.71 46.28 201.54 48.53 200.38C48.6931 199.46 48.7535 198.524 48.71 197.59V197.59Z" stroke="white" stroke-width="3"/>
<path d="M48.53 200.38C48.53 200.38 48.53 200.38 48.53 200.43L48.61 200.35L48.53 200.43H48.62V200.35L48.53 200.38Z" stroke="white" stroke-width="3"/>
<path d="M136.23 475.69C138.08 476.05 140.07 473.55 140.04 470.43C139.5 470.08 138.61 469.08 137.6 468.94C136.01 468.72 133.54 471.83 133.96 473.6C134.15 474.101 134.453 474.551 134.848 474.914C135.242 475.277 135.715 475.542 136.23 475.69V475.69Z" stroke="white" stroke-width="3"/>
<path d="M125.13 513.16L126.13 512.39L122.56 507.74L121.66 508.43C121.88 510.73 122.47 512.73 125.13 513.16Z" stroke="white" stroke-width="3"/>
<path d="M145.29 350.7L154.22 349C150.22 345.21 148.36 345.42 145.29 350.7Z" stroke="white" stroke-width="3"/>
<path d="M385.9 201L385.95 201.05C385.95 201.05 385.95 201.05 385.95 200.99H385.86V201.06H385.95L385.9 201Z" stroke="white" stroke-width="3"/>
<path d="M318.74 493C318.61 493.28 318.49 493.57 318.37 493.85C319.24 493.96 320.11 494.06 320.97 494.18L318.74 493Z" stroke="white" stroke-width="3"/>
<path d="M434.25 380.56C433.64 377.78 434 374.79 433.77 371.91C433.52 368.65 432.55 368.08 429.67 369C427.42 366.29 425.09 363.77 423.15 361C422.56 360.16 422.82 358.51 423.15 357.34C423.428 356.272 424.037 355.32 424.89 354.62C427.55 352.62 427.23 350.52 425.8 348.02C425.35 347.23 424.92 345.9 425.28 345.27C427.16 341.94 425.38 338.82 425.02 335.62C424.97 335.17 424.93 334.45 424.66 334.32C420.54 332.32 421.42 328.9 421.89 325.53C421.89 325.23 421.65 324.89 421.48 324.53C418.55 324.35 419.94 326.85 419.09 328.69L412.94 323.75C413.476 323.21 414.04 322.7 414.63 322.22C418.23 319.86 418.91 316.5 415.79 313.37C411.79 309.37 407.11 306.13 403.25 302.05C399.98 298.61 396 295.3 396.25 289.67C396.36 287.27 397.25 285.99 399.68 285.36C403.194 284.526 406.623 283.365 409.92 281.89C413.3 280.27 413.14 279.58 410.66 276.74C408.95 274.74 407.56 272.51 404.23 272.09C404.75 274.09 407.18 276.27 403.38 277.09C399.58 277.91 397.07 276.95 396.24 273.78C396.05 273.02 395.81 272.27 395.59 271.51H394.75L394.3 277.02L393.42 277.27C391.42 272.86 389.53 268.42 387.42 264.06C386.585 262.587 385.61 261.197 384.51 259.91C383.8 258.97 383.01 258.09 382.25 257.18C383.34 257.04 384.42 256.89 385.51 256.76C385.95 256.76 386.4 256.68 387.58 256.58C384.52 254.38 380.76 253.11 382.58 248.58C383.12 248.65 383.95 248.65 383.97 248.77C384.6 252.97 391.31 253.43 390.12 258.83C389.98 259.49 391.12 260.44 391.61 261.26L392.45 260.78C392.17 259.59 391.88 258.41 391.45 256.68C394.81 257.91 394.29 260.52 394.56 263.28C395.56 262.16 396.16 261.46 396.68 260.85L404.62 267.4L398.24 267.08C398.83 269.08 400.33 269.15 401.87 269.14H409.92C409.856 267.444 409.685 265.754 409.41 264.08C408.58 260.19 407.7 256.3 406.54 252.5C406.05 251.052 405.125 249.791 403.89 248.89C401.386 247.287 398.803 245.812 396.15 244.47C396.42 246.77 396.71 249.19 397.15 252.47C395.708 251.552 394.352 250.504 393.1 249.34C392.927 248.973 392.849 248.568 392.873 248.162C392.898 247.757 393.024 247.364 393.24 247.02C396.02 245.53 395.69 242.94 394.85 240.95C394.241 239.75 394.011 238.393 394.19 237.06C394.368 235.726 394.947 234.478 395.85 233.48C393.63 231.2 389.95 229.76 390.34 225.48C396.14 226.98 397.08 228.48 397.82 233.69C398.34 237.28 399.39 241.04 403.93 242.91C403.885 242.052 403.772 241.199 403.59 240.36C402.65 237.025 401.521 233.747 400.21 230.54C399.37 228.69 399.09 227.64 402.12 227.15L397.2 222.94C398.84 220.85 401.31 218.79 397.87 216.58L393.72 218.87L392.93 218.2C393.279 216.623 393.767 215.08 394.39 213.59C396.32 209.94 396.39 209.98 392.53 207.75C392.295 207.789 392.064 207.849 391.84 207.93L388.24 209.69C387.538 208.265 386.93 206.795 386.42 205.29C386.136 203.9 385.969 202.488 385.92 201.07C383.81 200.49 381.49 200.28 379.67 199.21C376.77 197.49 375.85 199.8 373.9 201.11C374.22 198.92 375.16 196.61 374.72 194.59C374.04 191.47 376.62 190.67 377.78 188.9C378.71 187.49 379.96 186.28 377.17 185.07C381.82 184.44 382.77 184.99 384.95 189.42L380.66 191.29C382.11 194.77 384.86 193.14 386.4 192.42C389.8 190.85 386.78 188.61 386.26 186.53L389.36 184.76C387.742 183.742 386.073 182.808 384.36 181.96C382.53 181.17 380.46 180.85 378.72 179.96C377.85 179.49 377.49 178.1 376.91 177.13L377.67 176.55C375.08 174.413 372.366 172.433 369.54 170.62C366.57 169.104 363.511 167.769 360.38 166.62L359.92 167.28C361.117 168.447 362.174 169.749 363.07 171.16C363.81 172.66 364.51 174.55 362.63 175.92C360.24 175.46 362.08 169.86 357.55 172.23C355.63 173.23 353.21 173.31 350.82 173.85C350.92 173.51 350.89 172.64 351.28 172.38C353.05 171.19 353.71 169.8 352.74 167.77C351.92 166.05 351.5 164.1 348.74 164.83C348.06 165 346.74 163.68 346.08 162.76C344.24 160.05 341.88 158.55 338.57 158.76C338.2 154.45 340.57 151.87 344.04 149.86C346.862 148.282 349.572 146.511 352.15 144.56C353.316 143.668 354.227 142.485 354.792 141.13C355.357 139.776 355.556 138.296 355.37 136.84C355.11 134.19 356.11 132.9 358.74 132.25C362.45 131.33 362.89 130.19 362.74 126.36C362.641 124.445 362.916 122.529 363.55 120.72C364.23 118.86 373.27 116.55 374.9 117.78C375.256 118.158 375.515 118.616 375.654 119.116C375.794 119.616 375.809 120.143 375.7 120.65C374.887 122.476 373.931 124.235 372.84 125.91L373.44 126.38C374.728 124.717 376.142 123.156 377.67 121.71C379.05 120.57 380.87 119.99 382.44 119.08C383.544 118.578 384.534 117.857 385.35 116.96C386.88 114.81 388.02 112.39 389.49 110.19C390.96 107.99 393.49 107.05 395.63 105.64C400.53 102.46 407.08 100.33 407.63 92.81C407.72 91.62 408.78 90.52 409.27 89.33C410.21 87.04 411.19 84.76 411.92 82.4C413.09 78.63 413.74 74.68 415.21 71.05C417.21 66.2 416.78 63.13 412.88 59.46C412.428 58.8367 412.123 58.1185 411.99 57.36C411.69 56.42 411.45 55.46 411.18 54.5L410.25 54.25C409.25 55.61 408.05 56.92 407.12 58.36C406.19 59.8 405.12 60.36 403.53 59.36C401.94 58.36 400.48 57.76 398.27 56.62C399.062 56.3051 399.874 56.0413 400.7 55.83C403.2 55.43 405.1 54.26 405.47 51.6C405.86 48.79 405.08 46.33 402.47 44.72C401.86 44.34 401.26 43.92 400.63 43.57C396.7 41.38 396.73 41.32 398.76 37.46C399.045 36.6019 398.988 35.6669 398.6 34.85C396.96 31.16 393.84 29.08 390.15 27.99C389.15 27.69 387.75 28.6 385.85 29.72C384.959 28.0176 384.235 26.2325 383.69 24.39C382.5 18.56 376.47 13.3 370.55 13.06C369.499 12.9618 368.491 12.597 367.62 12C365.62 10.7 364.21 8.12999 361.13 9.43999C360.78 9.58999 360.07 8.97999 359.56 8.66999C358.02 7.71999 356.56 6.37999 354.94 5.84999C349.421 3.93922 343.799 2.34004 338.1 1.05999C336.1 0.669994 333.76 2.39999 331.53 2.62999C329.506 2.93399 327.437 2.70301 325.53 1.95999C321.29 -0.110006 317.33 0.439994 313.48 2.49999C311.35 3.62999 309.4 3.93999 307.3 2.86999C306.128 2.22878 304.798 1.93608 303.465 2.02645C302.133 2.11681 300.854 2.58647 299.78 3.37999C296.96 5.17999 293.78 6.45999 291.09 8.37999C288.4 10.3 288.67 10.87 291.37 12.81C291.25 13.11 291.22 13.56 290.99 13.74C287.08 16.81 283.41 20.32 279.14 22.74C274.56 25.37 273.68 29.34 272.93 33.74L274 33.53C274.73 34.96 276.21 36.53 276 37.81C275.45 41.98 273.51 43.36 268.95 43.45C268.89 44.69 268.83 45.95 268.77 47.16L272.46 47.36C272.37 48.51 272.31 49.66 272.21 50.81C271.81 55.32 270.65 59.81 273.38 64.15C274.19 65.41 274.19 67.15 274.71 68.63C275.62 71.23 276.65 73.78 277.62 76.35C278.06 77.2018 278.38 78.1104 278.57 79.05C279.14 87.12 279.9 95.18 280.05 103.25C280.25 113.91 276.35 123.58 271.78 132.98C269.73 137.21 267.55 141.41 265.09 145.41C262.33 149.9 259.23 153.89 252.9 153.52C249.74 153.33 246.84 157.86 247.84 160.94C248.574 163.23 249.682 165.382 251.12 167.31C255.377 173.109 261.364 177.409 268.22 179.59C269.02 179.849 269.794 180.184 270.53 180.59C270.78 180.73 270.9 181.12 271.45 182C263.21 180.14 257.21 175.29 251.36 171C249.3 171.79 249.57 175.68 246.48 173.21C248.54 170.21 247.48 167.91 244.26 166.21C245.16 164.43 247.13 162.71 245.03 161.21C240.51 164.07 236.19 166.78 231.91 169.55C231.183 169.999 230.587 170.629 230.18 171.38C229.663 172.607 228.84 173.68 227.789 174.498C226.739 175.316 225.496 175.85 224.18 176.05C222.46 176.36 222.51 176.85 224.23 178.61C223.9 178.77 223.57 179.1 223.31 179.05C222.62 178.94 221.94 178.86 221.31 178.8C217.96 177.969 214.475 177.833 211.07 178.4C210.81 178.4 210.48 178.12 210.15 177.95C211.87 176.19 211.92 175.71 210.21 175.39C208.893 175.194 207.648 174.661 206.597 173.843C205.546 173.024 204.724 171.949 204.21 170.72C203.8 169.974 203.204 169.348 202.48 168.9C198.2 166.12 193.88 163.42 189.36 160.55C187.27 162.07 189.23 163.78 190.14 165.55C186.88 167.22 185.86 169.55 187.92 172.55C184.83 175.02 185.09 171.12 183.03 170.33C177.18 174.59 171.18 179.43 162.94 181.33C163.49 180.46 163.61 180.06 163.86 179.93C164.596 179.524 165.37 179.189 166.17 178.93C173.023 176.743 179.008 172.445 183.27 166.65C184.712 164.725 185.82 162.572 186.55 160.28C187.55 157.19 184.65 152.66 181.49 152.85C175.16 153.23 172.06 149.23 169.3 144.75C166.84 140.75 164.66 136.54 162.61 132.31C158.04 122.92 154.14 113.25 154.34 102.59C154.49 94.51 155.26 86.45 155.82 78.39C156.012 77.4476 156.331 76.5359 156.77 75.68C157.77 73.11 158.77 70.56 159.68 67.97C160.2 66.49 160.21 64.75 161.01 63.48C163.74 59.18 162.58 54.65 162.18 50.14C162.08 49 162.02 47.85 161.94 46.7L165.62 46.49C165.56 45.29 165.5 44.02 165.44 42.79C160.88 42.69 158.94 41.31 158.44 37.14C158.27 35.83 159.75 34.3 160.44 32.87L161.51 33.07C160.76 28.73 159.88 24.75 155.3 22.12C151.03 19.67 147.36 16.17 143.45 13.12C143.22 12.93 143.19 12.49 143.07 12.18C145.77 10.24 145.97 9.63999 143.35 7.75999C140.73 5.87999 137.48 4.52999 134.66 2.75999C133.587 1.96848 132.31 1.49998 130.979 1.40963C129.649 1.31928 128.32 1.61084 127.15 2.24999C125 3.28999 123.09 2.99999 121 1.83999C117.15 -0.220006 113.19 -0.760006 109 1.29999C107.095 2.05275 105.024 2.28402 103 1.96999C100.77 1.73999 98.43 -0.0300064 96.43 0.409994C90.7401 1.64141 85.1244 3.19389 79.61 5.05999C77.94 5.58999 76.53 6.91999 74.99 7.86999C74.48 8.18999 73.77 8.79999 73.42 8.64999C70.34 7.33999 68.93 9.89999 66.93 11.2C66.0595 11.797 65.051 12.1618 64 12.26C58.07 12.5 52 17.77 50.86 23.6C50.3048 25.4374 49.5783 27.2185 48.69 28.92C46.8 27.8 45.42 26.92 44.39 27.2C40.7 28.29 37.58 30.37 35.95 34.05C35.7529 34.4531 35.6373 34.8912 35.6099 35.339C35.5824 35.7869 35.6436 36.2358 35.79 36.66C37.79 40.52 37.84 40.58 33.91 42.78C33.28 43.13 32.68 43.55 32.07 43.93C29.48 45.53 28.71 47.99 29.07 50.81C29.44 53.46 31.34 54.64 33.84 55.03C34.6657 55.2464 35.4772 55.5136 36.27 55.83C34.06 56.97 32.49 57.68 31.02 58.56C29.55 59.44 28.39 59.09 27.42 57.56C26.45 56.03 25.35 54.81 24.29 53.45L23.36 53.7C23.09 54.65 22.86 55.62 22.55 56.56C22.4176 57.3157 22.1131 58.0308 21.66 58.65C17.76 62.33 17.36 65.4 19.33 70.24C20.8 73.87 21.45 77.83 22.62 81.59C23.35 83.95 24.33 86.23 25.27 88.52C25.76 89.71 26.82 90.81 26.91 92.01C27.45 99.53 34 101.66 38.91 104.83C41.08 106.24 43.56 107.14 45.05 109.38C46.54 111.62 47.66 114 49.19 116.16C50.0066 117.054 50.9967 117.772 52.1 118.27C53.67 119.19 55.5 119.77 56.87 120.9C58.3979 122.349 59.8121 123.914 61.1 125.58L61.7 125.11C60.6151 123.431 59.6591 121.673 58.84 119.85C58.7297 119.343 58.7449 118.816 58.8843 118.316C59.0238 117.816 59.2832 117.357 59.64 116.98C61.29 115.79 70.34 118.1 71 120C71.6245 121.812 71.896 123.726 71.8 125.64C71.64 129.48 72.09 130.64 75.8 131.54C78.43 132.19 79.44 133.47 79.17 136.13C78.9894 137.584 79.1915 139.06 79.7562 140.413C80.3209 141.765 81.2288 142.946 82.39 143.84C84.968 145.791 87.6778 147.562 90.5 149.14C94 151.14 96.34 153.74 95.97 158.04C92.66 157.88 90.3 159.37 88.46 162.04C87.84 162.96 86.46 164.29 85.8 164.11C82.99 163.38 82.57 165.34 81.8 167.11C80.8 169.11 81.49 170.53 83.26 171.71C83.65 171.97 83.63 172.84 83.72 173.18C81.33 172.64 78.92 172.58 76.99 171.57C72.46 169.19 74.3 174.79 71.91 175.26C70.03 173.88 70.73 171.99 71.47 170.5C72.3638 169.087 73.4211 167.785 74.62 166.62C74.47 166.4 74.32 166.17 74.16 165.95C71.0328 167.107 67.9744 168.443 65 169.95C62.1767 171.766 59.462 173.746 56.87 175.88L57.64 176.46C57.05 177.46 56.64 178.83 55.82 179.29C54.08 180.23 52.02 180.54 50.18 181.34C48.4648 182.184 46.7957 183.119 45.18 184.14L48.28 185.9C47.76 187.98 44.74 190.23 48.14 191.8C49.68 192.51 52.43 194.15 53.88 190.66L49.6 188.8C51.77 184.37 52.72 183.8 57.38 184.44C54.58 185.65 55.83 186.86 56.76 188.28C57.92 190.05 60.5 190.84 59.82 193.97C59.38 195.97 60.32 198.3 60.64 200.48C58.64 199.18 57.77 196.87 54.87 198.58C53.05 199.65 50.73 199.87 48.62 200.45C48.5705 201.868 48.4033 203.28 48.12 204.67C47.61 206.175 47.002 207.645 46.3 209.07C45.1 208.48 43.91 207.89 42.7 207.31C42.4797 207.226 42.2521 207.162 42.02 207.12C38.14 209.36 38.22 209.31 40.15 212.97C40.7799 214.458 41.2687 216.001 41.61 217.58L40.83 218.24L36.68 215.95C33.23 218.17 35.68 220.23 37.34 222.31L32.42 226.53C35.42 227.02 35.17 228.07 34.33 229.92C33.0202 233.124 31.8918 236.399 30.95 239.73C30.7679 240.573 30.6542 241.429 30.61 242.29C35.16 240.41 36.21 236.66 36.72 233.06C37.46 227.85 38.4 226.35 44.2 224.85C44.59 229.17 40.92 230.61 38.69 232.9C39.5954 233.896 40.176 235.145 40.3546 236.479C40.5333 237.813 40.3014 239.171 39.69 240.37C38.86 242.37 38.52 244.94 41.31 246.44C41.5228 246.785 41.6462 247.178 41.6689 247.584C41.6916 247.989 41.6129 248.393 41.44 248.76C40.2018 249.917 38.8632 250.961 37.44 251.88C37.82 248.59 38.11 246.16 38.38 243.88C35.7273 245.219 33.144 246.691 30.64 248.29C29.4048 249.195 28.4792 250.459 27.99 251.91C26.83 255.7 25.99 259.6 25.12 263.49C24.8545 265.162 24.6842 266.848 24.61 268.54H32.6C34.14 268.54 35.6 268.54 36.23 266.47L29.85 266.79L37.79 260.25L39.91 262.68C40.18 259.91 39.67 257.3 43.02 256.07C42.61 257.8 42.32 258.99 42.02 260.17L42.86 260.65C43.39 259.84 44.49 258.89 44.35 258.22C43.16 252.83 49.87 252.36 50.5 248.16C50.5 248.04 51.35 248.04 51.89 247.97C53.71 252.5 49.95 253.78 46.89 255.97C48.07 256.07 48.52 256.09 48.97 256.15L52.22 256.56C51.46 257.47 50.67 258.35 49.96 259.29C48.8629 260.583 47.8887 261.976 47.05 263.45C44.95 267.8 43.05 272.25 41.05 276.66L40.17 276.4L39.72 270.89H38.89C38.67 271.65 38.43 272.41 38.23 273.17C37.4 276.34 35.01 277.34 31.1 276.47C27.19 275.6 29.72 273.47 30.24 271.47C26.91 271.9 25.52 274.16 23.81 276.12C21.34 278.97 21.17 279.65 24.55 281.27C27.8437 282.753 31.273 283.916 34.79 284.74C37.23 285.37 38.11 286.65 38.22 289.06C38.48 294.69 34.5 297.99 31.22 301.44C27.36 305.51 22.65 308.77 18.68 312.75C15.56 315.89 16.24 319.25 19.84 321.6C20.4292 322.084 20.9933 322.598 21.53 323.14L15.42 328C14.57 326.15 15.96 323.66 13.03 323.83C12.86 324.24 12.58 324.58 12.62 324.88C13.09 328.24 13.97 331.71 9.85 333.66C9.58 333.79 9.54 334.51 9.49 334.97C9.13 338.16 7.36 341.28 9.23 344.61C9.59 345.25 9.16 346.61 8.71 347.37C7.28 349.86 7 352 9.63 354C10.4816 354.695 11.088 355.645 11.36 356.71C11.65 357.89 11.91 359.53 11.36 360.37C9.41 363.16 7.08 365.67 4.83 368.37C1.92 367.43 0.999996 368 0.699996 371.25C0.479996 374.14 0.839996 377.12 0.219996 379.9C-0.470004 382.99 0.469996 384.95 3.09 386.1C4.14146 386.552 5.06596 387.256 5.7825 388.148C6.49904 389.041 6.98575 390.096 7.2 391.22C9.96 401.487 12.7567 411.747 15.59 422C16.05 423.66 16.77 425.26 17.59 427.41C19.1714 425.479 20.8607 423.64 22.65 421.9C25.06 419.84 26.17 417.26 27.2 414.33C29.07 408.99 31.46 403.83 33.84 398.69C34.94 396.32 36.33 396.38 38.17 398.35C36.98 399.71 35.17 400.9 34.74 402.45C33.46 407.29 32.66 412.26 31.79 417.2C31.33 419.79 31.67 422.65 30.72 425.01C27.54 432.83 23.81 440.42 20.55 448.21C18.4636 453.161 16.6574 458.226 15.14 463.38C13.7724 468.059 12.7496 472.832 12.08 477.66C11.8846 479.747 12.3424 481.844 13.39 483.66C14.74 486.04 16.84 487.93 16.91 491C17.003 491.508 17.222 491.985 17.5469 492.387C17.8718 492.789 18.2924 493.103 18.77 493.3C22.09 493.71 25.45 495.21 28.77 492.59C32.09 489.97 36 487.91 39.42 485C43.1 481.81 48.14 479.77 52.92 478.36C57.7 476.95 60.6 474 63.7 470.82C66.53 467.88 67.57 467.73 70.82 470.13C72.73 471.54 74.29 472.54 76.41 470.32C77.4458 469.478 78.7571 469.051 80.09 469.12C85.97 469.29 91.85 469.64 97.73 470C100.91 470.2 104.08 470.56 107.3 470.85C107.39 470.71 107.63 470.53 107.65 470.32C107.74 469.37 107.78 468.4 107.82 467.44C108.11 461.49 112.52 458.68 117.82 461.1C119.07 461.67 120.35 462.19 121.71 462.77C122.027 462.223 122.292 461.647 122.5 461.05C123.5 456.05 123.5 456.05 128.69 455.55C129.89 455.44 131.18 455.04 132.28 455.33C133.723 455.714 135.057 456.426 136.18 457.41C138.81 459.84 141.05 462.72 143.79 465C147.3 467.91 147.45 467.74 144.41 471.18C142.66 473.18 142.98 474.88 145.34 476.09C146.04 476.45 146.78 476.75 147.61 477.09C146.45 479.74 145.61 482.32 144.24 484.54C143.24 486.06 141.69 487.75 140.06 488.21C134.27 489.82 128.36 491 122.46 492.21C120.38 492.63 118.27 492.88 116.15 493.14C116.898 495.09 117.769 496.991 118.76 498.83C119.76 500.6 121.26 500.36 122.6 498.83C123.6 497.71 124.71 496.72 126.09 495.37C127.84 499.92 125.72 504.6 128.82 508.88C130.49 502.83 134.77 499.49 138.94 496.01C140.272 494.787 141.466 493.423 142.5 491.94C145.5 488.05 148.92 484.45 150.09 479.44C150.295 478.605 150.8 477.875 151.51 477.39C153.039 476.553 154.38 475.411 155.45 474.035C156.52 472.659 157.296 471.078 157.73 469.39C157.83 469.01 158.61 468.8 159.07 468.52C158.95 468.83 158.83 469.13 158.7 469.44C159.96 470.55 161.3 471.58 162.44 472.8C164.12 474.58 166.19 476.3 166.99 478.46C167.27 479.22 164.33 481.19 162.85 482.6C162.239 483.058 161.682 483.585 161.19 484.17C159.41 487.02 157.72 489.93 155.74 493.24C154.8 491.35 154.11 489.97 153.15 488.02C151.42 491.55 150.04 494.36 148.86 496.78C147.26 497.96 144.78 498.87 144.58 500.14C144.22 502.45 142.69 503.6 141.63 505.25C140.203 507.164 138.986 509.226 138 511.4C137.19 513.52 136 514.13 134.17 513.25C131.62 512.03 130.09 513.04 128.66 515.06C128.143 515.817 127.391 516.382 126.52 516.67C122.21 517.78 119.28 521.13 119.97 525.55C120.63 529.74 118.21 532.06 115.87 534.55C115.32 535.14 114.24 535.22 113.4 535.55C113.25 534.68 112.77 533.72 113 532.97C113.76 530.53 112.56 529.97 110.5 529.83C108.329 529.73 106.166 529.51 104.02 529.17C99.86 528.44 95.77 527.24 91.59 526.8C85.59 526.16 79.59 526.09 73.59 525.66C69.74 525.38 68.06 523.54 67.47 519.74C67.118 518.195 66.6535 516.677 66.08 515.2C64.79 516.5 63.44 517.74 62.26 519.14C61.85 519.63 61.92 520.52 61.69 521.2C61.1792 522.957 60.5408 524.675 59.78 526.34C58.93 527.97 58.51 529.47 60.46 530.28C66.0023 532.65 71.9721 533.859 78 533.83C82.43 533.83 86.87 533.51 91.28 533.72C95.3859 533.924 99.4726 534.415 103.51 535.19C106.562 535.85 109.548 536.787 112.43 537.99C112.8 538.284 113.092 538.666 113.279 539.1C113.465 539.535 113.541 540.009 113.5 540.48C113.188 541.512 112.628 542.453 111.87 543.22C108.71 547.22 104.47 549.22 99.5 550.09C97.97 550.36 95.58 550.32 95.73 553.09H112.42C112.916 552.58 113.448 552.106 114.01 551.67C117.3 549.41 117.87 547.94 116.81 544.13C116.3 542.28 120.34 537.75 122.06 538.47C122.547 538.761 122.961 539.159 123.271 539.634C123.581 540.108 123.779 540.647 123.85 541.21C124.01 544.45 125.59 546.32 128.3 548.02C129.95 549.02 130.8 551.36 132.01 553.09H143.62C144.9 549.99 148.26 549.99 150.88 553.09H168.29C173.79 550.85 178.89 548.09 182.89 543.47C183.363 542.804 184.08 542.351 184.884 542.208C185.689 542.066 186.517 542.246 187.19 542.71C185.79 546.203 185.486 550.04 186.32 553.71H202.32L212.79 541.56L209.58 540.56C212.244 538.835 215.135 537.488 218.17 536.56C220.558 537.39 222.83 538.523 224.93 539.93L221.72 540.93L232.19 553.08H248.19C248.972 549.789 248.795 546.343 247.68 543.15C248.347 542.812 249.113 542.727 249.838 542.911C250.562 543.095 251.195 543.535 251.62 544.15C255.62 548.73 260.72 551.52 266.22 553.77H283.64C286.25 550.67 289.64 550.67 290.89 553.77H302.5C303.71 552.03 304.56 549.72 306.21 548.69C308.92 547 310.5 545.13 310.67 541.88C310.739 541.318 310.936 540.779 311.244 540.305C311.552 539.83 311.965 539.432 312.45 539.14C314.18 538.43 318.21 542.96 317.7 544.8C316.64 548.61 317.21 550.09 320.51 552.35C321.069 552.786 321.597 553.26 322.09 553.77H338.78C338.94 551.02 336.55 551.06 335.01 550.77C330.01 549.9 325.8 547.92 322.64 543.91C321.885 543.137 321.326 542.194 321.01 541.16C320.973 540.689 321.051 540.217 321.237 539.783C321.424 539.349 321.713 538.967 322.08 538.67C324.96 537.466 327.947 536.532 331 535.88C335.037 535.101 339.124 534.609 343.23 534.41C347.64 534.19 352.08 534.47 356.51 534.51C362.523 534.53 368.476 533.315 374 530.94C375.95 530.13 375.53 528.63 374.68 527C373.918 525.337 373.283 523.619 372.78 521.86C372.54 521.18 372.61 520.3 372.2 519.8C371.02 518.41 369.67 517.16 368.39 515.86C367.809 517.336 367.341 518.853 366.99 520.4C366.4 524.21 364.73 526.04 360.87 526.32C354.87 526.75 348.87 526.83 342.87 527.46C338.69 527.91 334.6 529.11 330.45 529.84C328.3 530.175 326.134 530.395 323.96 530.5C321.9 530.63 320.7 531.19 321.46 533.64C321.7 534.38 321.21 535.35 321.06 536.21C320.22 535.9 319.14 535.81 318.6 535.21C316.25 532.69 313.83 530.38 314.49 526.21C315.19 521.79 312.25 518.43 307.95 517.33C307.079 517.039 306.325 516.474 305.8 515.72C304.37 513.72 302.8 512.72 300.3 513.9C298.45 514.79 297.3 514.18 296.46 512.05C295.499 509.885 294.313 507.827 292.92 505.91C291.86 504.27 290.33 503.11 289.97 500.8C289.77 499.54 287.3 498.63 285.69 497.44L281.4 488.69L278.81 493.9C276.81 490.6 275.14 487.69 273.36 484.84C272.872 484.249 272.314 483.719 271.7 483.26C270.22 481.85 267.28 479.89 267.56 479.12C268.36 476.96 270.43 475.25 272.11 473.46C273.26 472.25 274.59 471.22 275.85 470.11C275.72 469.8 275.6 469.49 275.48 469.18C275.94 469.47 276.72 469.67 276.82 470.06C277.253 471.749 278.029 473.33 279.099 474.706C280.169 476.082 281.51 477.224 283.04 478.06C283.752 478.549 284.261 479.282 284.47 480.12C285.63 485.12 289.07 488.73 292.05 492.61C293.085 494.092 294.279 495.457 295.61 496.68C299.78 500.16 304.06 503.5 305.73 509.56C308.83 505.28 306.73 500.56 308.47 496.05C309.84 497.4 310.97 498.39 311.95 499.5C313.29 501.02 314.75 501.26 315.79 499.5C316.785 497.66 317.657 495.755 318.4 493.8C316.29 493.55 314.17 493.3 312.09 492.88C306.19 491.69 300.28 490.5 294.49 488.88C292.86 488.43 291.28 486.74 290.31 485.21C288.91 483 288.1 480.42 286.94 477.76C287.77 477.38 288.51 477.09 289.21 476.76C291.57 475.55 291.89 473.83 290.15 471.85C287.15 468.41 287.25 468.59 290.76 465.68C293.5 463.4 295.76 460.52 298.37 458.09C299.49 457.102 300.826 456.39 302.27 456.01C303.37 455.71 304.66 456.12 305.86 456.23C311.02 456.69 311.01 456.7 312.05 461.72C312.259 462.32 312.524 462.899 312.84 463.45C314.2 462.86 315.48 462.35 316.73 461.77C321.98 459.36 326.39 462.17 326.68 468.12C326.68 469.12 326.76 470.04 326.85 471C326.85 471.2 327.11 471.39 327.2 471.52C330.42 471.23 333.59 470.87 336.77 470.68C342.65 470.31 348.53 469.97 354.41 469.8C355.746 469.728 357.062 470.156 358.1 471C360.21 473.22 361.77 472.21 363.68 470.8C366.93 468.41 367.97 468.55 370.8 471.5C373.9 474.71 376.94 477.61 381.58 478.98C386.22 480.35 391.4 482.43 395.08 485.63C398.49 488.63 402.4 490.54 405.82 493.28C409.08 495.89 412.44 494.4 415.76 493.98C416.241 493.791 416.665 493.481 416.991 493.079C417.317 492.678 417.534 492.2 417.62 491.69C417.69 488.61 419.79 486.69 421.14 484.35C422.184 482.532 422.644 480.438 422.46 478.35C421.776 473.498 420.74 468.702 419.36 464C417.856 458.858 416.067 453.803 414 448.86C410.74 441.08 407 433.48 403.83 425.66C402.88 423.31 403.22 420.45 402.76 417.85C401.9 412.92 401.09 407.95 399.81 403.11C399.4 401.55 397.58 400.37 396.38 399C398.22 397 399.61 397 400.71 399.34C403.1 404.48 405.48 409.65 407.35 414.98C408.35 417.92 409.49 420.5 411.9 422.56C413.693 424.296 415.385 426.132 416.97 428.06C417.75 425.91 418.47 424.32 418.97 422.65C421.803 412.403 424.6 402.147 427.36 391.88C427.573 390.754 428.059 389.697 428.775 388.803C429.492 387.908 430.417 387.203 431.47 386.75C434 385.6 434.94 383.65 434.25 380.56ZM359.79 123.91L361.3 124.58C360.9 125.7 360.49 126.82 360.09 127.93L358.09 127.08C358.66 126 359.23 125 359.79 123.91ZM74.38 127.28L73.17 123.93L74.68 123.25C75.24 124.31 75.81 125.37 76.38 126.43L74.38 127.28ZM136.43 525C135.347 526.092 134.379 527.291 133.54 528.58C133.12 528.29 132.71 527.99 132.3 527.69C133.41 524.85 134.51 522.01 135.66 519.06C139.46 521.69 139.45 522.54 136.43 525ZM298.81 519.72C299.96 522.66 301.06 525.5 302.17 528.34L300.94 529.24C300.097 527.951 299.126 526.752 298.04 525.66C295 523.19 295 522.34 298.81 519.76V519.72ZM384.66 296C385.15 299.1 385.45 302.23 385.82 305.35L383.82 305.69C383.15 302.64 382.42 299.59 381.89 296.52C381.81 296.07 382.58 295.14 383.11 295.01C383.432 295.026 383.745 295.125 384.017 295.299C384.289 295.472 384.51 295.714 384.66 296V296ZM386.18 310.81L385.73 318.27C383.5 315.78 383.87 313.27 384.73 310.78L386.18 310.81ZM383.77 266.81L383.24 267.87C379.92 269.11 376.89 267.11 373.78 266.47C373.35 266.39 372.9 264.38 373.17 263.47C373.38 262.74 375 261.65 375.41 261.86C378.28 263.35 381 265.13 383.77 266.82V266.81ZM376.77 277.21L376.04 278.34L370.39 274.5L370.99 273.5L376.77 277.21ZM384.26 207.71C385.073 208.983 385.89 210.253 386.71 211.52C386.55 211.85 386.39 212.18 386.22 212.52C385.41 212.22 384.08 212.12 383.87 211.58C383.535 210.318 383.374 209.016 383.39 207.71H384.26ZM376.4 219.22C378.55 220.56 380.4 221.67 380.29 217.5C380.29 216.76 381.78 215.98 382.58 215.22L383.26 215.83C382.94 217.3 382.63 218.77 382.31 220.25L385.41 222.43L385.19 223.31L379.87 223.01C380.65 224.63 381.34 226.01 382.03 227.45C379.21 225.06 375.68 223.32 374.91 219.05C375.71 219.15 376.12 219.07 376.38 219.23L376.4 219.22ZM368.93 227.66C368.46 225.53 370.67 223.3 373.49 223.05C372.56 224.61 371.68 226.1 370.73 227.71L374.31 229.86C371.34 230.44 369.49 230.31 368.91 227.67L368.93 227.66ZM374.11 203.92L371.67 209.92C369.58 205.44 370 204.39 374.09 203.93L374.11 203.92ZM374.63 183.47C374.32 184.9 373.27 186.18 372.53 187.53C371.97 188.53 370.92 189.53 370.95 190.53C371.05 193.53 369.26 195.2 366.95 197.07C366.65 190.58 368.84 185.41 373.39 180.6C373.8 181.5 374.79 182.61 374.61 183.48L374.63 183.47ZM371 172.69L371.85 172.94L373.04 176.94L365.68 185.71L364.96 185.27C365.28 180.24 370.59 177.67 371 172.69ZM354.45 222.27L351.06 220.52L350.49 221.29C351.39 222.06 352.25 222.92 353.22 223.6C355.44 225.18 354.88 226.37 352.99 227.54C347.37 222.95 347.33 215.92 344.68 210.12C344.08 208.81 344.23 207.12 344.04 205.66L344.8 205.5C348 211 351.14 216.54 354.44 222.27H354.45ZM348.59 242.11C344.34 242.25 343.59 240.84 346.01 235.36C347.62 238.71 353.16 239.49 350.56 244.71C350.56 244.8 350.56 244.95 350.56 245.07C351.23 249.07 351.93 253.14 352.56 257.19C352.86 259.19 352.99 261.19 353.23 263.52C346.74 262.52 345.85 260.52 348.23 255.45C349.084 253.235 349.495 250.874 349.44 248.5C349.331 246.35 349.043 244.212 348.58 242.11H348.59ZM338.93 124.69C340.8 124.56 342.68 125.32 342.65 127.62C342.65 128.43 341.48 129.23 340.28 130.76C338.78 129.12 337.59 128.13 336.91 126.87C336.73 126.55 338.15 124.75 338.92 124.69H338.93ZM338.48 158.69C339.34 161.5 340.21 164.31 341.15 167.38L342.08 167.21L343.61 166.89C344.26 170.36 342.81 171.52 339.54 170.5C335.07 164.68 334.93 163.13 338.47 158.73L338.48 158.69ZM287.22 174.58C291.37 175.3 291.03 179.45 293.35 181.79C288.45 185.06 285.8 180.45 281.69 179.79C283.26 177.12 283.47 174 287.21 174.62L287.22 174.58ZM273.12 326.4L274.86 327.4L271.8 333L270.36 332.24L273.12 326.4ZM243.12 187.28C243.32 186.95 244.12 186.97 244.76 186.81L243.86 183.74L244.33 183.49C244.66 183.77 245.1 183.99 245.33 184.35C246.521 186.461 248.464 188.046 250.772 188.787C253.08 189.529 255.582 189.373 257.78 188.35C260.186 187.275 262.742 186.573 265.36 186.27C266.3 186.15 267.43 187.62 268.47 188.37C267.479 188.99 266.454 189.554 265.4 190.06C265.03 190.22 264.47 189.89 263.99 189.84C259.44 189.44 257.22 191.41 257.06 195.9C255.74 195.9 254.31 196.24 253.16 195.81C251.6 195.24 249.41 194.35 249 193.1C248.1 190.32 246.78 190.1 244.41 190.84C243.77 191.04 242.84 190.33 242.05 190.04C242.331 189.087 242.703 188.162 243.16 187.28H243.12ZM219.12 533.94C216.62 533.55 214.12 533.07 211.67 532.55C212.148 531.724 212.791 531.006 213.56 530.44C214.554 529.88 215.384 529.069 215.966 528.088C216.549 527.107 216.864 525.991 216.88 524.85C216.956 524.002 217.103 523.163 217.32 522.34C217.441 522.952 217.531 523.569 217.59 524.19C217.606 525.332 217.921 526.45 218.504 527.432C219.086 528.415 219.916 529.228 220.91 529.79C222 530.44 222.66 531.79 223.51 532.87C223.1 532.99 222.68 533.16 222.26 533.32C221.21 533.54 220.17 533.75 219.12 533.94ZM175.45 339.06L172.93 342C172.28 341.08 171.02 340.08 171.12 339.25C171.22 338.42 172.56 337.5 173.36 336.63L175.45 339.06ZM182.91 344.39C186.65 347.06 186.74 347.91 184.27 350.39C182.96 351.71 181.76 353.15 180.51 354.53C180.04 354.24 179.57 353.95 179.11 353.65C180.35 350.6 181.6 347.58 182.91 344.39ZM185.68 337.5L185.48 336.89L191.27 336.01C191.19 337.23 191.14 338.07 191.09 338.96L185.68 337.5ZM216.11 467.6C215.979 467.078 215.977 466.532 216.104 466.01C216.231 465.487 216.484 465.003 216.84 464.6C217.468 464.955 217.959 465.511 218.234 466.178C218.51 466.845 218.554 467.585 218.36 468.28C217.99 470.4 217.64 472.51 217.29 474.63C216.9 472.26 216.52 469.93 216.11 467.6ZM200.31 505.6C201.63 505.85 202.31 505.76 202.68 506.08L203.58 506.95C202.89 508.04 202.23 509.15 201.58 510.27C201.313 508.669 200.887 507.098 200.31 505.58V505.6ZM231.4 507.11L231.8 506.73C232.12 506.41 232.8 506.5 234.16 506.25C233.698 507.455 233.337 508.696 233.08 509.96C232.54 508.987 231.98 508.03 231.4 507.09V507.11ZM249 337.54L248.8 338.16L243.4 339.61C243.34 338.72 243.29 337.88 243.21 336.66L249 337.54ZM251.57 345.04C252.89 348.23 254.13 351.26 255.38 354.29L253.97 355.17C252.72 353.78 251.53 352.34 250.21 351.02C247.73 348.56 247.82 347.71 251.56 345L251.57 345.04ZM261.12 337.24C261.92 338.1 263.25 338.91 263.36 339.85C263.47 340.79 262.2 341.68 261.55 342.6C260.8 341.75 260.06 340.89 259.03 339.71L261.12 337.24ZM169.12 185.62C171.741 185.927 174.301 186.632 176.71 187.71C178.906 188.732 181.407 188.888 183.713 188.146C186.019 187.405 187.961 185.821 189.15 183.71C189.34 183.36 189.79 183.13 190.15 182.85L190.62 183.11C190.35 184.04 190.07 184.97 189.72 186.17C190.36 186.34 191.16 186.31 191.36 186.65C191.82 187.536 192.195 188.463 192.48 189.42C191.68 189.71 190.76 190.42 190.11 190.22C187.74 189.48 186.42 189.7 185.52 192.47C185.12 193.72 182.92 194.61 181.37 195.19C180.21 195.61 178.78 195.27 177.47 195.27C177.3 190.78 175.08 188.82 170.53 189.22C170.05 189.22 169.53 189.6 169.12 189.44C168.06 188.97 167.12 188.32 166.05 187.74C167 187 168.17 185.51 169.11 185.62H169.12ZM161.36 325.75L164.12 331.55L162.68 332.3L159.62 326.69L161.36 325.75ZM147.26 174C151 173.35 151.26 176.5 152.79 179.24C148.68 179.88 146.04 184.49 141.13 181.24C143.45 178.84 143.11 174.69 147.26 174ZM94.26 130.14C93.05 128.61 91.89 127.81 91.88 127C91.88 124.7 93.74 123.94 95.6 124.08C96.37 124.14 97.79 125.94 97.6 126.25C96.89 127.48 95.7 128.47 94.21 130.1L94.26 130.14ZM90.92 166.31L92.46 166.63C92.88 166.72 93.32 166.79 93.38 166.8C94.32 163.74 95.19 160.93 96.05 158.12C99.59 162.51 99.46 164.07 95.05 169.93C91.67 170.91 90.23 169.75 90.87 166.27L90.92 166.31ZM83.48 219.9L80 221.62L89.65 204.84L90.41 205.01C90.22 206.5 90.41 208.15 89.77 209.46C87.12 215.26 87.08 222.29 81.46 226.88C79.57 225.72 79.01 224.53 81.23 222.95C82.23 222.26 83.06 221.41 83.96 220.63C83.81 220.37 83.62 220.12 83.43 219.86L83.48 219.9ZM86.29 254.84C88.65 259.94 87.76 261.93 81.29 262.91C81.53 260.55 81.66 258.55 81.96 256.57C82.58 252.57 83.29 248.49 83.96 244.45C83.96 244.33 84.04 244.19 83.96 244.09C81.37 238.87 86.9 238.09 88.51 234.74C90.92 240.22 90.18 241.63 85.93 241.49C85.4674 243.596 85.1797 245.737 85.07 247.89C85.0119 250.247 85.4092 252.593 86.24 254.8L86.29 254.84ZM62.63 172.28L63.49 172.03C63.88 177.03 69.19 179.58 69.49 184.6L68.78 185.04C66.39 182.21 64.01 179.37 61.41 176.28L62.63 172.28ZM59.86 182.82C59.68 181.96 60.67 180.82 61.06 180C65.61 184.81 67.8 190 67.5 196.47C65.23 194.59 63.44 192.98 63.5 189.92C63.5 188.92 62.5 187.92 61.92 186.92C61.22 185.54 60.17 184.26 59.86 182.82ZM62.86 209.24L60.42 203.24C64.44 203.74 64.89 204.79 62.82 209.24H62.86ZM63.86 227.06L61 222.4C63.82 222.65 66 224.89 65.56 227.01C64.98 229.66 63.13 229.78 60.18 229.21L63.86 227.06ZM63.5 272.9L64.1 273.9L58.45 277.74L57.72 276.6L63.5 272.9ZM47.78 210.9C48.5933 209.633 49.41 208.353 50.23 207.06H51.1C51.1162 208.363 50.9547 209.661 50.62 210.92C50.41 211.46 49.09 211.56 48.27 211.86C48.1 211.53 47.94 211.2 47.78 210.87V210.9ZM49.3 222.7L49.08 221.81L52.18 219.64C51.86 218.15 51.55 216.64 51.18 215.21L51.86 214.6C52.66 215.36 54.17 216.15 54.15 216.88C54.01 221.06 55.89 219.94 58.04 218.61C58.3 218.45 58.71 218.52 59.53 218.44C58.76 222.7 55.23 224.44 52.41 226.84L54.57 222.4L49.3 222.7ZM59.06 261.24C59.47 261.03 61.06 262.12 61.3 262.86C61.57 263.77 61.12 265.77 60.69 265.86C57.58 266.49 54.55 268.49 51.23 267.26L50.7 266.19C53.47 264.48 56.19 262.7 59.06 261.21V261.24ZM49.81 295.37C49.9615 295.083 50.1848 294.84 50.4582 294.664C50.7316 294.489 51.0457 294.388 51.37 294.37C51.9 294.51 52.67 295.43 52.59 295.88C52.06 298.96 51.33 302 50.66 305.05L48.66 304.72C49 301.57 49.32 298.44 49.81 295.34V295.37ZM49.72 310.14C50.6 312.64 50.97 315.14 48.72 317.63L48.27 310.18L49.72 310.14ZM32.59 350.43C29.34 352.25 27.68 355.07 25.89 358.11C24.4 360.64 22.05 362.67 19.99 364.84C18.61 366.29 16.91 367.47 15.69 369.04C15.05 369.86 14.54 371.74 15 372.29C17.8 375.62 16.84 379.29 16.4 382.87C10.94 373.56 13.19 357.75 20.61 356.5L18.88 360.28C22.66 358.39 22.66 358.39 29.03 348.42C30.91 349.86 32.34 349.23 33.5 347.28C34.455 345.693 35.6338 344.251 37 343C37.25 346.52 35.29 348.92 32.59 350.43ZM37.17 380.87C36.84 381.58 36.44 382.27 36.08 382.96L35.28 382.65C37.52 375.65 39.51 368.65 42.08 361.74C44.4 355.53 47.44 349.59 49.99 343.46C50.81 341.46 52.22 341.33 53.78 341.68C55.7 342.1 55.37 343.57 55.18 345.15C54.8383 347.876 54.7112 350.624 54.8 353.37C54.9447 357.402 54.0017 361.398 52.07 364.94L51.13 364.78C50.73 362.65 50.32 360.52 49.92 358.4L48.8 358.06C47.6714 359.317 46.6667 360.68 45.8 362.13C42.84 368.33 40 374.62 37.17 380.87ZM51.17 378.2L44.37 385.94C44.86 380.17 46.82 377.91 51.16 378.2H51.17ZM64.83 419.7C64.04 423.22 63.31 426.78 62.18 430.19C60.41 435.53 58.36 440.78 56.33 446.02C56.07 446.68 55.17 447.12 54.51 447.58C54.03 447.92 53.3 448 52.95 448.42C47.85 454.51 41.77 459.88 38.6 467.42C37.91 469.05 37.95 470.98 37.6 473.07C35.26 471.96 34.43 470.72 35.05 468.55C35.67 466.38 36.15 463.91 36.71 461.55C36.7532 460.824 36.9582 460.117 37.31 459.48C41.59 454.56 40.51 448.04 42.31 442.38C43.02 440.11 42.9 437.93 44.88 435.95C46.42 434.41 46.71 431.68 47.8 429.6C48.89 427.52 49.8 424.89 52.97 424.6C53.75 424.53 54.73 423.46 55.11 422.6C56.17 420.28 57.38 418.65 60.23 418.12C61.37 417.9 62.23 415.58 63 414.12C63.77 412.66 64.39 411.12 65.07 409.67L66.68 410.3C66 413.47 65.51 416.6 64.82 419.7H64.83ZM63.64 232.4C66.64 230.4 68.71 226.47 73.5 228.61C71.65 233.71 67.76 235.29 63.64 232.4ZM81 433.72C80.12 436.78 79 439.72 77.89 442.72C77.4452 444.111 76.8091 445.434 76 446.65C75.54 447.27 74.41 447.39 73.58 447.74C73.28 447.01 72.66 446.25 72.73 445.56C73 442.92 73.42 440.29 73.93 437.69C75.11 431.78 76.36 425.88 77.62 419.99C77.81 419.12 78.2 418.3 78.68 416.9C79.58 418.01 80.42 418.57 80.5 419.23C80.92 422.51 81.2 425.81 81.38 429.11C81.5003 430.657 81.372 432.213 81 433.72ZM88 282.53C86.9598 281.744 86.0225 280.83 85.21 279.81L85.27 278.81C86.84 278.95 88.56 278.81 89.91 279.38C90.55 279.67 90.49 281.51 90.75 282.64C89.85 282.64 88.73 283 88 282.53V282.53ZM92.27 192.39L91.39 192.48V184.19L92.27 183.99V192.39ZM93 181.61L87.58 178.48C92.28 176.8 92.87 177.11 93.58 180.74L93 181.61ZM103.7 230.55C101.834 231.685 99.849 232.611 97.78 233.31C97.51 233.42 96.7 232.96 96.68 232.71C96.657 232.439 96.6895 232.166 96.7755 231.908C96.8614 231.651 96.9991 231.413 97.18 231.21C98.0114 230.699 98.8926 230.273 99.81 229.94L96.25 228.44C98.25 226.29 99.79 224.38 101.61 222.75C102.16 222.27 103.44 222.62 104.38 222.58C104.14 223.406 103.805 224.202 103.38 224.95C102.992 225.412 102.525 225.802 102 226.1C102.66 227.89 103.94 230.36 103.67 230.55H103.7ZM98.7 212.55C99.09 209.26 100.92 209.48 102.76 209.73L103.24 211.05L98.7 212.55ZM108.96 357.7C108.49 361.7 107.74 365.7 107.17 369.7C106.9 371.55 106.78 373.42 106.59 375.29L105.08 375.18C106.16 366.247 107.247 357.317 108.34 348.39L109.52 348.45C109.33 351.57 109.3 354.68 108.94 357.75L108.96 357.7ZM117.44 209.11L118.37 206.11C119.08 203.86 120.22 201.87 117.86 199.49C116.93 198.55 117.13 196.21 115.63 194.71C113.84 192.92 112.85 193.47 111.63 194.95C112.14 196.11 113.22 197.36 112.96 198.19C111.96 201.25 112.73 205.07 108.96 207.04C106.75 208.2 99.69 208.24 97.79 206.38C100.72 203.5 105.38 208.73 107.92 203.87L100.2 201.02L106.96 195.69C103.04 191.63 101.81 198.97 98.53 197.22C96.58 188.68 101.94 183.78 108 178.96C110.07 181.3 112.54 182.36 115.44 179.91L110.34 180.41C112.74 176.34 113.21 172.97 109.21 170.41C106.58 171.63 104.84 175.72 100.89 172.74C101.15 171.86 101.44 170.91 101.76 169.84C97.35 169.09 96.93 173.55 93.32 175.39C94.08 173.09 94.64 171.44 95.19 169.79C98.07 168.26 101.71 168.29 103.69 164.79C104.69 162.95 108.69 163.79 109.93 165.85C113.39 171.53 118.93 174.53 124.58 177.26C125.42 177.67 126.92 177.85 127.47 177.38C128.02 176.91 128.12 175.46 128.16 174.44C128.25 172.657 128.22 170.869 128.07 169.09C127.75 165.52 127.16 161.97 126.95 158.4C126.87 157.06 127.54 155.67 127.87 154.3C129.835 155.262 131.704 156.411 133.45 157.73C133.86 158.09 133.03 160.17 132.45 161.26C131.99 162.07 130.96 162.54 129.73 163.53L133.88 165.04C133.33 165.79 133.05 166.52 132.52 166.84C129.96 168.37 129.29 169.78 131.96 172.06C132.8 172.77 132.55 174.73 132.83 176.12C133.19 177.9 133.58 179.68 134.08 182C132.95 185 131.61 188.7 130.08 192.36C129.35 194.13 128.08 195.69 127.51 197.48C127.005 199.42 126.651 201.396 126.45 203.39C120.82 201.27 121.41 208.5 117.42 209.16L117.44 209.11ZM129.3 345.51C129.99 344.86 131.04 344.15 131.13 343.38C131.64 338.66 135.8 338.11 139.13 336.52C137.401 338.153 135.784 339.9 134.29 341.75C133.518 343.031 133.104 344.495 133.09 345.99C133.09 346.72 134.01 347.52 134.52 348.29C135.19 347.74 135.86 347.17 136.52 346.64C138.09 345.43 139.52 343.76 141.31 343.18C142.89 342.67 144.18 342.42 144 340.59C143.82 338.76 147 335.89 141.11 335L144.2 331.5L145.38 332.38L147.29 335.57C148.05 333.91 148.54 332.81 149.04 331.72C153.85 332.78 154.04 333.67 150.04 338.1L153.54 339.5C153.12 340.55 152.7 341.58 152.21 342.77C153.95 343.67 155.57 345.16 157.21 345.2C159.16 345.25 161.14 344.03 163.34 343.28C161.81 342.76 159.82 342.68 158.98 341.65C158.14 340.62 158.37 338.65 158.14 337.03C161.69 334.63 162.28 334.78 164.14 338.59C166.98 344.59 165.73 346.19 160.33 350.05C157.546 352.167 154.258 353.522 150.79 353.98C149.5 354.15 148.35 355.29 146.79 356.2C146.42 354.73 146.12 353.56 145.69 351.86L141.63 354.21C140.74 354.34 139.63 354.87 139.01 354.52C134.15 351.75 133.01 351.83 129.1 355.72C126.61 352.73 126.75 347.87 129.3 345.51ZM141.5 354.3C142.42 354.81 143.68 355.16 144.08 355.94C144.33 356.43 143.43 357.88 142.7 358.44C141.177 359.457 139.587 360.369 137.94 361.17C137.22 357.67 140.57 356.61 141.5 354.3ZM130.59 364.24C130.93 361.92 131.18 360.24 131.52 357.92L135.6 356.92C135.15 360.48 134.06 362.87 130.59 364.24ZM141.53 398.7L141.74 397.5C144.21 397.2 146.26 398.4 148.33 399.55C148.26 399.86 148.18 400.16 148.11 400.46L141.53 398.7ZM138.13 389.49C142.73 387.25 144.07 387.73 146.01 392.43L142.21 394.04L138.13 389.49ZM142 454.24C142 450.77 142.81 449.86 145.94 450.32C149.07 450.78 152.23 451.44 155.6 452.06C151.35 456.12 146.72 455.62 142 454.24ZM150.26 434.05C152.37 434.2 154.13 434.78 154.41 437.33C150.75 438 150.37 437.71 150.24 434.05H150.26ZM152.39 429.05L150.21 433.94C148.35 432.54 148.46 430.83 150.67 428.27C152.35 426.34 153.67 427.39 155.6 429.05H152.39ZM156.88 400.61C155.18 397.78 158.68 397.7 159.13 395.83L154.42 393.32C156.767 392.288 159.048 391.113 161.25 389.8C163.161 388.29 164.969 386.653 166.66 384.9L169.33 385.26C169.16 386.5 169.01 387.6 168.8 389.16H173C173.035 390.168 172.938 391.177 172.71 392.16C172.284 392.959 171.737 393.687 171.09 394.32C170.41 393.684 169.821 392.957 169.34 392.16C168.65 390.62 165.34 389.55 164.08 390.6L161.39 392.78C164.07 397.5 158.7 397.92 156.86 400.58L156.88 400.61ZM165.54 375.29L170.29 370.89C169.54 373.16 169 375.62 165.52 375.26L165.54 375.29ZM173.21 380.29L172.56 380.96L167.23 377.96L170.09 375.26L173.21 380.29ZM160.6 420.1C162.41 417.38 162.41 417.38 165.6 418.48C164.2 420.89 164 421 160.6 420.1ZM166.19 415.38C166.45 413.95 166.43 412.16 167.11 410.69C168.29 408.14 170.84 408.86 172.94 408.6L173.51 409.43L166.19 415.38ZM178.74 375.92C175.74 373.52 175.74 372.06 178.62 368.78L181.3 368.92C180.37 371.48 179.56 373.67 178.74 375.92ZM178.59 368.65L175.19 367.59C175.71 366.38 176.19 365.16 176.76 363.95C177.33 362.74 177.84 361.55 178.6 359.87C173.3 360.79 170.01 362.96 170.43 365.24C170.74 366.97 170.04 367.53 169.01 368.46C166.18 370.99 163.33 373.21 159.46 371.54C159.36 373.24 159.83 375.41 159.05 376.05C157.73 377.12 155.42 377.99 153.88 377.59C149.98 376.59 146.93 378.77 143.52 379.59C142.96 379.72 142.47 380.5 142.1 381.08C141.73 381.66 141.72 382.61 141.24 383.08C140.065 384.158 138.758 385.082 137.35 385.83C137.05 385.98 135.52 384.76 135.6 384.47C135.896 383.016 136.518 381.648 137.42 380.47C139.52 378.21 141.93 376.23 144.12 373.58L140.43 374.19L138.31 367.54C140.12 365.12 141.38 363.3 142.81 361.62C143.503 361.021 144.278 360.523 145.11 360.14C145.11 361.14 145.5 362.42 145.04 363.14C143.74 365.27 142.1 367.19 140.59 369.2L141.16 369.87L146.9 365.16L147.9 365.89C146.947 367.697 145.993 369.507 145.04 371.32L145.76 371.9C148.32 370.08 150.99 368.4 153.39 366.4C154.288 365.606 155.373 365.053 156.543 364.794C157.714 364.535 158.931 364.578 160.08 364.92C161.912 365.401 163.838 365.401 165.67 364.92C167.99 364.15 169.67 362.35 169.14 359.47C171.57 358.09 175.25 359.85 176.14 355.26L181.34 360.81C181.709 359.85 182.178 358.931 182.74 358.07C183.552 357.108 184.514 356.284 185.59 355.63C186.43 355.15 188.05 355.43 188.43 354.82C189.355 353.281 189.996 351.587 190.32 349.82C190.43 349.24 189.32 348.43 188.53 347.42C190.23 344.29 194.8 342.2 193.14 337.31L193.39 337.36L193.87 340.29C194.21 342.29 195.34 344.07 195.79 346.03C195.08 349.38 194.41 352.75 193.56 356.08C193.032 357.437 192.205 358.657 191.14 359.65C190.065 360.915 188.839 362.043 187.49 363.01C186.15 363.93 184.55 365.13 183.11 365.08C178.79 364.8 178.75 364.59 178.59 368.65V368.65ZM255.73 376.57C254.91 374.33 254.11 372.13 253.17 369.57L255.85 369.42C258.7 372.72 258.69 374.18 255.73 376.57V376.57ZM261 410.08L261.57 409.26C263.67 409.51 266.22 408.8 267.4 411.35C268.08 412.82 268.06 414.61 268.32 416.04L261 410.08ZM264.44 375.86L267.3 378.55L261.97 381.55L261.32 380.87L264.44 375.86ZM264.24 371.51L268.99 375.92C265.51 376.28 264.94 373.82 264.2 371.51H264.24ZM268.9 419.14C272.1 418.04 272.1 418.04 273.9 420.75C270.48 421.61 270.27 421.54 268.86 419.14H268.9ZM277.65 401.23C275.81 398.57 270.44 398.15 273.12 393.39C272.12 392.6 271.3 391.9 270.43 391.21C269.13 390.21 265.86 391.21 265.17 392.77C264.686 393.565 264.098 394.292 263.42 394.93C262.774 394.296 262.228 393.567 261.8 392.77C261.574 391.787 261.476 390.778 261.51 389.77H265.73C265.52 388.22 265.37 387.11 265.2 385.88L267.87 385.52C269.561 387.27 271.369 388.904 273.28 390.41C275.484 391.725 277.769 392.9 280.12 393.93L275.41 396.45C275.81 398.32 279.31 398.4 277.61 401.23H277.65ZM283.86 428.89C286.08 431.45 286.18 433.16 284.32 434.57L282.14 429.68H278.93C280.78 428 282.14 427 283.82 428.89H283.86ZM284.27 434.71C284.14 438.36 283.76 438.65 280.12 437.98C280.36 435.43 282.12 434.85 284.23 434.71H284.27ZM278.94 452.71C282.3 452.09 285.43 451.42 288.59 450.96C291.75 450.5 292.59 451.42 292.53 454.88C287.75 456.28 283.12 456.78 278.9 452.72L278.94 452.71ZM286.41 401.11C286.33 400.8 286.25 400.5 286.18 400.2C288.25 399.04 290.31 397.84 292.77 398.14L292.98 399.35L286.41 401.11ZM292.3 394.69L288.5 393.07C290.44 388.37 291.78 387.89 296.38 390.14L292.3 394.69ZM297.16 386.38C295.756 385.63 294.449 384.71 293.27 383.64C292.79 383.21 292.79 382.28 292.41 381.64C292.03 381 291.55 380.28 290.99 380.15C287.58 379.37 284.53 377.15 280.63 378.2C279.09 378.59 276.78 377.73 275.47 376.65C274.68 376.01 275.15 373.85 275.05 372.15C271.18 373.82 268.33 371.59 265.51 369.07C264.51 368.14 263.77 367.57 264.09 365.85C264.5 363.56 261.21 361.39 255.91 360.47C256.67 362.15 257.22 363.35 257.75 364.56C258.28 365.77 258.8 366.98 259.32 368.19L255.92 369.26C255.76 365.2 255.72 365.4 251.4 365.56C249.96 365.61 248.4 364.4 247.03 363.49C245.678 362.523 244.449 361.395 243.37 360.13C242.305 359.133 241.478 357.91 240.95 356.55C240.04 353.02 239.35 349.43 238.58 345.85C238.63 345.65 238.66 345.44 238.71 345.24C239.15 343.24 240.3 341.44 240.64 339.46C240.73 338.93 240.81 338.41 240.9 337.88L241.37 337.79C239.71 342.67 244.28 344.79 245.99 347.9C245.2 348.9 244.08 349.72 244.2 350.3C244.522 352.066 245.159 353.759 246.08 355.3C246.47 355.91 248.08 355.63 248.93 356.12C250.003 356.774 250.962 357.598 251.77 358.56C252.336 359.416 252.806 360.331 253.17 361.29L258.37 355.74C259.23 360.34 262.91 358.58 265.37 359.96C264.85 362.84 266.52 364.64 268.85 365.41C270.679 365.89 272.601 365.89 274.43 365.41C275.578 365.069 276.795 365.025 277.965 365.282C279.135 365.539 280.22 366.089 281.12 366.88C283.52 368.88 286.2 370.57 288.75 372.39L289.47 371.8L286.61 366.37L287.61 365.65C289.53 367.21 291.443 368.777 293.35 370.35L293.92 369.68C292.41 367.68 290.77 365.75 289.47 363.62C289.02 362.88 289.4 361.62 289.4 360.62C290.235 360.993 291.01 361.489 291.7 362.09C293.13 363.77 294.39 365.6 296.2 368.01C295.67 369.7 294.87 372.19 294.08 374.66L290.4 374.06C292.58 376.71 294.99 378.69 297.09 380.95C297.993 382.127 298.616 383.496 298.91 384.95C299 385.33 297.42 386.54 297.12 386.39L297.16 386.38ZM296.57 361.81C294.924 361.007 293.334 360.095 291.81 359.08C291.08 358.53 290.18 357.08 290.43 356.59C290.84 355.8 292.09 355.46 293.01 354.94C293.9 357.26 297.25 358.33 296.53 361.82L296.57 361.81ZM298.91 357.53L302.99 358.53C303.33 360.83 303.58 362.53 303.92 364.85C300.42 363.53 299.32 361.14 298.87 357.54L298.91 357.53ZM305.48 356.32C301.54 352.43 300.43 352.32 295.57 355.12C294.96 355.47 293.84 354.94 292.95 354.82L288.9 352.47C288.46 354.16 288.16 355.33 287.79 356.81C286.19 355.89 285.04 354.76 283.79 354.59C280.318 354.13 277.026 352.772 274.24 350.65C268.85 346.8 267.59 345.15 270.43 339.2C272.24 335.39 272.84 335.2 276.38 337.63C276.15 339.21 276.38 341.19 275.54 342.25C274.7 343.31 272.71 343.37 271.18 343.88C273.38 344.63 275.36 345.88 277.31 345.81C278.97 345.81 280.6 344.27 282.31 343.38C281.82 342.19 281.4 341.15 280.98 340.11L284.48 338.71C280.48 334.27 280.62 333.38 285.43 332.32L287.18 336.18C288.06 334.7 288.58 333.84 289.09 332.99L290.27 332.1L293.36 335.6C287.5 336.5 290.67 339.28 290.47 341.2C290.27 343.12 291.58 343.28 293.16 343.79C294.94 344.36 296.38 346.04 297.95 347.25C298.64 347.78 299.31 348.34 299.95 348.89C300.46 348.12 301.42 347.33 301.38 346.59C301.365 345.098 300.95 343.638 300.18 342.36C298.689 340.508 297.071 338.76 295.34 337.13C298.67 338.71 302.83 339.27 303.34 343.98C303.43 344.75 304.48 345.47 305.17 346.11C307.72 348.52 307.87 353.38 305.44 356.33L305.48 356.32ZM327.9 376C327.72 374.14 327.59 372.27 327.33 370.42C326.75 366.42 326 362.42 325.53 358.42C325.17 355.35 325.14 352.24 324.97 349.14L326.15 349.09L329.42 375.87L327.9 376ZM337.32 231.9C337.501 232.103 337.639 232.341 337.725 232.598C337.81 232.856 337.843 233.129 337.82 233.4C337.82 233.64 336.99 234.11 336.72 234C334.652 233.302 332.669 232.373 330.81 231.23C330.53 231.04 331.81 228.58 332.52 226.78C332.001 226.483 331.537 226.097 331.15 225.64C330.725 224.892 330.389 224.096 330.15 223.27C331.09 223.27 332.37 222.96 332.92 223.44C334.74 225.06 336.31 226.98 338.28 229.12L334.72 230.63C335.628 230.951 336.499 231.367 337.32 231.87V231.9ZM331.26 211.78C331.41 211.34 331.57 210.9 331.73 210.46C333.57 210.21 335.4 209.99 335.8 213.29L331.26 211.78ZM332.75 170.58C333.07 171.65 333.36 172.58 333.62 173.49C329.68 176.49 327.93 172.38 325.31 171.16C321.31 173.74 321.78 177.16 324.17 181.16L319.07 180.66C321.97 183.11 324.44 182.06 326.51 179.72C332.58 184.54 337.93 189.43 335.98 197.97C332.7 199.72 331.47 192.38 327.55 196.45L334.31 201.77L326.59 204.62C329.13 209.49 333.79 204.26 336.72 207.14C334.82 208.99 327.72 208.96 325.55 207.79C321.8 205.79 322.55 202 321.55 198.94C321.28 198.12 322.36 196.87 322.87 195.7C321.61 194.23 320.62 193.7 318.87 195.47C317.37 196.97 317.58 199.3 316.64 200.24C314.28 202.63 315.42 204.61 316.13 206.86L317.06 209.86C313.06 209.19 313.67 201.97 308.06 204.09C307.851 202.099 307.493 200.127 306.99 198.19C306.4 196.39 305.15 194.83 304.42 193.07C302.92 189.41 301.58 185.68 300.42 182.71C300.92 180.38 301.31 178.61 301.68 176.82C301.96 175.44 301.68 173.47 302.54 172.76C305.21 170.49 304.54 169.07 301.98 167.54C301.45 167.23 301.17 166.49 300.62 165.74L304.78 164.24C303.54 163.24 302.51 162.77 302.05 161.97C301.44 160.88 300.61 158.79 301.05 158.43C302.796 157.114 304.665 155.969 306.63 155.01C306.96 156.37 307.63 157.76 307.55 159.1C307.34 162.68 306.76 166.22 306.43 169.79C306.285 171.573 306.255 173.363 306.34 175.15C306.34 176.15 306.41 177.55 307.03 178.08C307.65 178.61 309.03 178.37 309.92 177.97C315.62 175.24 321.11 172.23 324.57 166.55C325.86 164.45 329.78 163.66 330.81 165.55C332.81 169.1 336.43 169.07 339.32 170.55L341.18 176.14C337.58 174.27 337.16 169.8 332.75 170.55V170.58ZM340.9 181.42C341.63 177.8 342.22 177.48 346.9 179.17L341.48 182.3L340.9 181.42ZM343.05 193.17L342.16 193.07V184.68L343.05 184.88V193.17ZM346.44 283.22C345.74 283.63 344.62 283.32 343.68 283.34C343.94 282.2 343.88 280.34 344.52 280.08C345.87 279.46 347.59 279.65 349.16 279.51L349.22 280.51C348.406 281.513 347.472 282.413 346.44 283.19V283.22ZM360.85 448.42C360.02 448.07 358.85 447.95 358.44 447.33C357.63 446.132 356.994 444.826 356.55 443.45C355.44 440.45 354.31 437.45 353.43 434.4C353.061 432.896 352.936 431.343 353.06 429.8C353.23 426.5 353.52 423.2 353.93 419.92C354.01 419.26 354.85 418.69 355.75 417.59C356.155 418.598 356.509 419.626 356.81 420.67C358.07 426.57 359.32 432.46 360.5 438.37C361.01 440.97 361.43 443.6 361.7 446.24C361.78 446.9 361.15 447.66 360.85 448.39V448.42ZM361 229.26C365.79 227.13 367.86 231.06 370.86 233.06C366.71 235.94 362.82 234.36 361 229.26ZM397.2 460.15C397.55 460.784 397.758 461.487 397.81 462.21C398.36 464.54 398.81 466.89 399.46 469.21C400.11 471.53 399.26 472.61 396.91 473.72C396.56 471.64 396.6 469.72 395.91 468.07C392.73 460.57 386.65 455.2 381.56 449.07C381.21 448.65 380.47 448.57 379.99 448.23C379.33 447.77 378.43 447.34 378.18 446.68C376.18 441.44 374.09 436.19 372.32 430.85C371.19 427.43 370.46 423.85 369.67 420.35C368.98 417.26 368.46 414.12 367.86 411.01L369.47 410.38C370.15 411.87 370.75 413.38 371.54 414.83C372.33 416.28 373.17 418.61 374.31 418.83C377.16 419.36 378.37 421 379.43 423.31C379.81 424.15 380.79 425.22 381.57 425.31C384.76 425.58 385.57 428.12 386.74 430.31C387.91 432.5 388.12 435.11 389.66 436.66C391.66 438.66 391.52 440.82 392.23 443.08C394 448.71 392.89 455.23 397.17 460.15H397.2ZM383.34 378.86C387.68 378.56 389.64 380.86 390.14 386.59L383.34 378.86ZM398.42 383.62C398.06 382.92 397.66 382.24 397.33 381.53C394.46 375.27 391.66 368.99 388.69 362.78C387.823 361.33 386.819 359.967 385.69 358.71L384.57 359.05C384.17 361.18 383.76 363.3 383.36 365.43L382.42 365.59C380.482 362.043 379.532 358.04 379.67 354C379.758 351.254 379.631 348.506 379.29 345.78C379.1 344.21 378.77 342.78 380.69 342.31C382.25 341.96 383.69 342.12 384.48 344.1C387.03 350.23 390.07 356.17 392.39 362.38C394.96 369.23 396.95 376.3 399.19 383.28L398.42 383.62ZM418.1 383.53C417.66 379.94 416.71 376.27 419.5 372.94C419.96 372.4 419.45 370.51 418.82 369.69C417.6 368.13 415.89 366.95 414.51 365.49C412.45 363.32 410.1 361.29 408.61 358.76C406.82 355.76 405.16 352.91 401.92 351.09C399.21 349.57 397.25 347.17 397.49 343.62C398.87 344.876 400.053 346.332 401 347.94C402.17 349.89 403.6 350.51 405.47 349.08C411.84 359.08 411.84 359.08 415.63 360.94L413.89 357.16C421.28 358.4 423.53 374.21 418.07 383.53H418.1Z" stroke="white" stroke-width="3"/>
<path d="M331.25 495.31C328.76 495.42 328.74 497.42 329.25 499.36C329.76 501.3 330.86 502.6 332.83 501.61C335.41 500.31 337.77 498.56 340.22 497C340.14 496.61 340.05 496.23 339.97 495.85C337.076 495.5 334.165 495.319 331.25 495.31V495.31Z" stroke="white" stroke-width="3"/>
<path d="M312.77 468.54C311.02 468.9 310.21 469.68 310.55 471.48C310.84 472.98 311.14 474.48 311.46 476.06H315.82C315.916 474.265 315.916 472.465 315.82 470.67C315.59 469 314.69 468.15 312.77 468.54Z" stroke="white" stroke-width="3"/>
<path d="M365.29 494.43L343.42 496.81C345.83 498.79 354.09 498 365.29 494.43Z" stroke="white" stroke-width="3"/>
<path d="M394.58 204.08C392.58 201.7 390.69 199.16 388.48 196.98C387.18 195.69 386 196.56 385.76 198.24C385.721 199.174 385.781 200.109 385.94 201.03C388.19 202.19 390.43 203.37 392.7 204.5C393.07 204.68 393.55 204.64 394.58 204.08Z" stroke="white" stroke-width="3"/>
<path d="M296.88 469.6C295.88 469.73 294.97 470.74 294.44 471.09C294.44 474.21 296.39 476.71 298.24 476.35C298.755 476.201 299.229 475.935 299.625 475.572C300.02 475.21 300.327 474.761 300.52 474.26C300.93 472.49 298.46 469.38 296.88 469.6Z" stroke="white" stroke-width="3"/>
<path d="M308.31 513L309.31 513.78C311.97 513.34 312.56 511.34 312.75 509.04L311.85 508.36L308.31 513Z" stroke="white" stroke-width="3"/>
<path d="M280.26 349.66L289.19 351.36C286.11 346.07 284.25 345.87 280.26 349.66Z" stroke="white" stroke-width="3"/>
</svg>
