<svg width="307" height="391" viewBox="0 0 307 391" fill="none" xmlns="http://www.w3.org/2000/svg">
<path d="M306.609 268.702C306.178 266.739 306.432 264.628 306.27 262.595C306.093 260.293 305.409 259.89 303.375 260.54C301.786 258.626 300.141 256.847 298.772 254.891C298.355 254.298 298.539 253.133 298.772 252.307C298.968 251.553 299.398 250.881 300 250.387C301.878 248.974 301.652 247.492 300.643 245.727C300.325 245.169 300.021 244.23 300.275 243.785C301.603 241.434 300.346 239.231 300.092 236.971C300.057 236.654 300.028 236.145 299.838 236.053C296.929 234.641 297.55 232.227 297.882 229.847C297.882 229.635 297.712 229.395 297.592 229.141C295.524 229.014 296.505 230.779 295.905 232.078L291.563 228.59C291.941 228.209 292.339 227.849 292.756 227.51C295.298 225.844 295.778 223.471 293.575 221.261C290.751 218.437 287.446 216.149 284.721 213.269C282.412 210.84 279.602 208.503 279.778 204.528C279.856 202.833 280.484 201.929 282.2 201.484C284.682 200.896 287.102 200.076 289.43 199.034C291.817 197.89 291.704 197.403 289.953 195.398C288.745 193.986 287.764 192.411 285.413 192.115C285.78 193.527 287.496 195.066 284.813 195.645C282.13 196.224 280.357 195.546 279.771 193.308C279.637 192.771 279.468 192.242 279.312 191.705H278.719L278.401 195.596L277.78 195.772C276.368 192.659 275.034 189.524 273.544 186.445C272.954 185.405 272.266 184.424 271.489 183.515C270.988 182.851 270.43 182.23 269.893 181.587C270.663 181.489 271.426 181.383 272.195 181.291C272.506 181.291 272.824 181.234 273.657 181.164C271.496 179.61 268.841 178.714 270.126 175.515C270.508 175.565 271.094 175.565 271.108 175.649C271.553 178.615 276.29 178.94 275.45 182.752C275.351 183.218 276.156 183.889 276.502 184.468L277.095 184.129C276.898 183.289 276.693 182.456 276.389 181.234C278.762 182.103 278.394 183.946 278.585 185.894C279.291 185.104 279.715 184.609 280.082 184.179L285.688 188.803L281.183 188.577C281.6 189.99 282.659 190.039 283.746 190.032H289.43C289.385 188.835 289.265 187.641 289.07 186.459C288.484 183.713 287.863 180.966 287.044 178.283C286.698 177.261 286.044 176.37 285.173 175.734C283.405 174.602 281.581 173.561 279.708 172.613C279.898 174.237 280.103 175.946 280.414 178.262C279.395 177.614 278.438 176.874 277.554 176.052C277.432 175.792 277.377 175.506 277.394 175.22C277.411 174.934 277.5 174.657 277.653 174.414C279.616 173.362 279.383 171.533 278.79 170.128C278.36 169.281 278.197 168.323 278.324 167.381C278.45 166.439 278.858 165.558 279.496 164.854C277.928 163.244 275.33 162.227 275.605 159.205C279.701 160.264 280.364 161.323 280.887 165.002C281.254 167.537 281.995 170.191 285.201 171.512C285.169 170.906 285.089 170.304 284.961 169.711C284.297 167.357 283.5 165.042 282.574 162.778C281.981 161.472 281.784 160.73 283.923 160.384L280.449 157.412C281.607 155.936 283.351 154.481 280.922 152.921L277.992 154.538L277.434 154.065C277.68 152.951 278.025 151.862 278.465 150.81C279.828 148.233 279.877 148.261 277.152 146.686C276.986 146.714 276.823 146.756 276.665 146.814L274.123 148.056C273.627 147.05 273.198 146.012 272.838 144.95C272.637 143.968 272.519 142.971 272.485 141.97C270.995 141.56 269.357 141.412 268.072 140.657C266.024 139.442 265.375 141.073 263.998 141.998C264.224 140.452 264.887 138.821 264.577 137.395C264.097 135.192 265.918 134.627 266.737 133.377C267.394 132.382 268.276 131.527 266.307 130.673C269.59 130.228 270.261 130.616 271.8 133.744L268.771 135.065C269.795 137.522 271.736 136.371 272.824 135.862C275.224 134.754 273.092 133.172 272.725 131.704L274.914 130.454C273.771 129.735 272.593 129.076 271.383 128.477C270.091 127.919 268.63 127.693 267.401 127.065C266.787 126.733 266.533 125.752 266.123 125.067L266.66 124.657C264.831 123.148 262.914 121.75 260.919 120.47C258.822 119.4 256.662 118.457 254.452 117.646L254.127 118.112C254.972 118.936 255.718 119.855 256.351 120.851C256.873 121.911 257.368 123.245 256.04 124.212C254.353 123.888 255.652 119.934 252.453 121.607C251.098 122.313 249.389 122.369 247.702 122.751C247.772 122.511 247.751 121.896 248.026 121.713C249.276 120.873 249.742 119.891 249.057 118.458C248.478 117.243 248.182 115.867 246.233 116.382C245.753 116.502 244.821 115.57 244.355 114.92C243.056 113.007 241.389 111.948 239.052 112.096C238.791 109.053 240.464 107.231 242.915 105.812C244.907 104.698 246.821 103.448 248.641 102.07C249.464 101.44 250.107 100.605 250.506 99.6486C250.905 98.6919 251.046 97.6473 250.914 96.6192C250.731 94.7481 251.437 93.8373 253.294 93.3783C255.913 92.7288 256.224 91.9238 256.118 89.2196C256.048 87.8676 256.242 86.515 256.69 85.2374C257.17 83.9241 263.553 82.2931 264.704 83.1615C264.955 83.4282 265.138 83.752 265.236 84.105C265.335 84.458 265.346 84.8297 265.269 85.188C264.695 86.4773 264.019 87.7191 263.249 88.9019L263.673 89.2337C264.583 88.0597 265.581 86.9574 266.66 85.9364C267.634 85.1315 268.919 84.7219 270.028 84.0794C270.807 83.7251 271.506 83.2158 272.082 82.5826C273.162 81.0645 273.967 79.3558 275.005 77.8025C276.043 76.2491 277.83 75.5854 279.341 74.5899C282.8 72.3446 287.425 70.8407 287.813 65.531C287.877 64.6908 288.625 63.9141 288.971 63.0739C289.635 61.457 290.327 59.8472 290.842 58.1809C291.669 55.519 292.127 52.73 293.165 50.167C294.578 46.7426 294.274 44.5749 291.52 41.9837C291.201 41.5436 290.986 41.0365 290.892 40.5009C290.68 39.8372 290.511 39.1594 290.32 38.4816L289.663 38.3051C288.957 39.2653 288.11 40.1903 287.453 41.207C286.797 42.2237 286.041 42.6191 284.918 41.9131C283.796 41.207 282.765 40.7834 281.205 39.9784C281.764 39.7561 282.337 39.5698 282.92 39.4206C284.686 39.1382 286.027 38.3121 286.288 36.434C286.564 34.4499 286.013 32.713 284.17 31.5762C283.739 31.3079 283.316 31.0114 282.871 30.7642C280.096 29.218 280.117 29.1756 281.551 26.4502C281.752 25.8443 281.711 25.1841 281.438 24.6073C280.28 22.0019 278.077 20.5333 275.471 19.7637C274.765 19.5519 273.777 20.1944 272.435 20.9852C271.806 19.7832 271.295 18.5228 270.91 17.2219C270.07 13.1055 265.812 9.39158 261.632 9.22212C260.89 9.15282 260.178 8.89521 259.564 8.47369C258.151 7.5558 257.156 5.74121 254.981 6.66616C254.734 6.77207 254.233 6.34137 253.873 6.12249C252.785 5.45172 251.755 4.50559 250.611 4.13138C246.714 2.78224 242.744 1.65311 238.72 0.749311C237.308 0.473944 235.656 1.69544 234.082 1.85784C232.652 2.07248 231.192 1.90939 229.845 1.38477C226.851 -0.0767884 224.055 0.311549 221.337 1.76605C219.833 2.5639 218.456 2.78279 216.974 2.02729C216.146 1.57455 215.207 1.36789 214.266 1.43169C213.325 1.4955 212.422 1.82711 211.664 2.38739C209.673 3.65831 207.428 4.56208 205.528 5.91773C203.629 7.27338 203.82 7.67584 205.726 9.04561C205.641 9.25743 205.62 9.57516 205.458 9.70225C202.697 11.8699 200.106 14.3482 197.091 16.0569C193.857 17.9138 193.236 20.7169 192.706 23.8236L193.462 23.6753C193.977 24.685 195.022 25.7935 194.874 26.6973C194.485 29.6416 193.116 30.616 189.896 30.6795C189.854 31.555 189.811 32.4447 189.769 33.299L192.374 33.4402C192.311 34.2522 192.268 35.0642 192.198 35.8762C191.915 39.0605 191.096 42.2308 193.024 45.2951C193.596 46.1848 193.596 47.4133 193.963 48.4583C194.605 50.2941 195.333 52.0946 196.018 53.9091C196.328 54.5106 196.554 55.1521 196.688 55.8155C197.091 61.5135 197.627 67.2044 197.733 72.9024C197.874 80.4291 195.121 87.2567 191.894 93.8938C190.447 96.8804 188.907 99.8459 187.17 102.67C185.222 105.84 183.033 108.658 178.564 108.396C176.332 108.262 174.285 111.461 174.991 113.635C175.509 115.252 176.292 116.772 177.307 118.133C180.313 122.228 184.54 125.264 189.38 126.804C189.945 126.986 190.492 127.223 191.011 127.51C191.188 127.609 191.273 127.884 191.661 128.505C185.843 127.192 181.607 123.767 177.476 120.738C176.022 121.296 176.212 124.043 174.031 122.299C175.485 120.181 174.737 118.557 172.463 117.356C173.099 116.1 174.49 114.885 173.007 113.826C169.815 115.845 166.765 117.759 163.743 119.715C163.23 120.031 162.809 120.477 162.522 121.007C162.157 121.873 161.575 122.631 160.834 123.208C160.092 123.786 159.215 124.163 158.285 124.304C157.071 124.523 157.106 124.869 158.321 126.112C158.088 126.225 157.855 126.458 157.671 126.422C157.184 126.345 156.704 126.288 156.259 126.246C153.893 125.659 151.433 125.563 149.029 125.963C148.845 125.963 148.612 125.766 148.379 125.646C149.594 124.403 149.629 124.064 148.422 123.838C147.491 123.699 146.613 123.323 145.871 122.745C145.128 122.168 144.548 121.408 144.185 120.541C143.895 120.014 143.475 119.572 142.964 119.256C139.942 117.293 136.891 115.386 133.7 113.36C132.224 114.433 133.608 115.641 134.251 116.89C131.949 118.07 131.229 119.715 132.683 121.833C130.501 123.577 130.685 120.823 129.231 120.265C125.1 123.273 120.864 126.691 115.046 128.032C115.434 127.418 115.519 127.135 115.695 127.044C116.215 126.757 116.761 126.52 117.326 126.338C122.165 124.794 126.391 121.759 129.4 117.667C130.418 116.308 131.201 114.788 131.716 113.169C132.422 110.988 130.374 107.789 128.143 107.923C123.674 108.192 121.485 105.367 119.536 102.204C117.799 99.3799 116.26 96.4074 114.813 93.4207C111.586 86.7907 108.832 79.963 108.973 72.4364C109.079 66.7313 109.623 61.0404 110.018 55.3495C110.154 54.6841 110.38 54.0404 110.689 53.4361C111.395 51.6215 112.101 49.821 112.744 47.9923C113.111 46.9473 113.118 45.7188 113.683 44.8221C115.611 41.786 114.791 38.5875 114.509 35.4031C114.438 34.5982 114.396 33.7862 114.34 32.9742L116.938 32.826C116.896 31.9787 116.853 31.082 116.811 30.2135C113.591 30.1429 112.221 29.1685 111.868 26.2242C111.748 25.2993 112.793 24.219 113.281 23.2093L114.036 23.3505C113.506 20.2862 112.885 17.4761 109.651 15.6191C106.636 13.8892 104.045 11.418 101.284 9.26449C101.122 9.13033 101.101 8.81967 101.016 8.60078C102.922 7.23101 103.064 6.80737 101.214 5.47996C99.3639 4.15256 97.0692 3.19937 95.0781 1.94963C94.3203 1.39076 93.4187 1.05997 92.4793 0.996178C91.5399 0.932385 90.6019 1.13824 89.7755 1.58953C88.2575 2.32384 86.9089 2.11908 85.4332 1.30004C82.7148 -0.154456 79.9188 -0.535732 76.9604 0.918767C75.6154 1.45026 74.1531 1.61356 72.724 1.39183C71.1494 1.22944 69.4973 -0.0203031 68.0851 0.290367C64.0677 1.15983 60.1026 2.25599 56.2091 3.57358C55.0299 3.9478 54.0344 4.88687 52.947 5.55763C52.5869 5.78357 52.0856 6.21427 51.8385 6.10836C49.6638 5.18342 48.6683 6.99095 47.2561 7.90884C46.6415 8.33035 45.9294 8.58796 45.1873 8.65727C41.0004 8.82673 36.7145 12.5477 35.9096 16.6641C35.5176 17.9614 35.0047 19.219 34.3774 20.4204C33.043 19.6296 32.0686 19.0082 31.3414 19.2059C28.736 19.9755 26.533 21.4442 25.3821 24.0425C25.243 24.3271 25.1614 24.6364 25.142 24.9526C25.1226 25.2689 25.1658 25.5858 25.2692 25.8853C26.6813 28.6107 26.7166 28.6531 23.9418 30.2065C23.4969 30.4536 23.0733 30.7501 22.6426 31.0184C20.8139 32.1481 20.2702 33.8851 20.5244 35.8762C20.7856 37.7473 22.1272 38.5804 23.8923 38.8558C24.4753 39.0086 25.0483 39.1972 25.6081 39.4206C24.0477 40.2256 22.9391 40.7269 21.9012 41.3482C20.8633 41.9695 20.0443 41.7224 19.3594 40.6421C18.6745 39.5619 17.8978 38.7005 17.1494 37.7402L16.4927 37.9167C16.3021 38.5875 16.1397 39.2724 15.9208 39.9361C15.8274 40.4697 15.6123 40.9746 15.2924 41.4118C12.5388 44.0101 12.2563 46.1777 13.6473 49.5951C14.6852 52.1581 15.1442 54.9541 15.9703 57.6089C16.4857 59.2753 17.1776 60.8851 17.8413 62.502C18.1873 63.3422 18.9357 64.1189 18.9993 64.9662C19.3806 70.2758 24.0053 71.7797 27.4721 74.018C29.0043 75.0135 30.7553 75.649 31.8074 77.2306C32.8594 78.8122 33.6502 80.4926 34.7305 82.0177C35.307 82.6487 36.0061 83.1556 36.7851 83.5075C37.8937 84.1571 39.1858 84.5666 40.1531 85.3645C41.2319 86.3877 42.2304 87.4925 43.1397 88.6689L43.5634 88.337C42.7974 87.1518 42.1223 85.9103 41.544 84.6231C41.4662 84.2649 41.4769 83.893 41.5753 83.5399C41.6738 83.1868 41.8569 82.863 42.1089 82.5967C43.2739 81.7565 49.6638 83.3875 50.1298 84.729C50.5707 86.0081 50.7625 87.3599 50.6947 88.7112C50.5817 91.4225 50.8994 92.2416 53.5189 92.877C55.3759 93.336 56.089 94.2397 55.8984 96.1179C55.7709 97.1447 55.9135 98.1869 56.3123 99.1417C56.711 100.096 57.352 100.931 58.1719 101.562C59.9922 102.94 61.9055 104.19 63.8981 105.304C66.3694 106.716 68.0216 108.552 67.7603 111.588C65.4232 111.475 63.7569 112.527 62.4578 114.412C62.02 115.062 61.0456 116.001 60.5796 115.874C58.5956 115.358 58.299 116.742 57.7553 117.992C57.0493 119.404 57.5365 120.407 58.7862 121.24C59.0616 121.423 59.0474 122.038 59.111 122.278C57.4235 121.896 55.7219 121.854 54.3592 121.141C51.1607 119.46 52.4598 123.414 50.7723 123.746C49.4449 122.772 49.9392 121.437 50.4617 120.385C51.0928 119.388 51.8393 118.468 52.6858 117.646C52.5799 117.491 52.474 117.328 52.361 117.173C50.1529 117.99 47.9935 118.933 45.8934 119.997C43.8999 121.28 41.9832 122.678 40.1531 124.184L40.6967 124.594C40.2802 125.3 39.9907 126.267 39.4117 126.592C38.1831 127.255 36.7286 127.474 35.4295 128.039C34.2184 128.635 33.04 129.295 31.8991 130.016L34.088 131.259C33.7208 132.727 31.5885 134.316 33.9891 135.425C35.0764 135.926 37.0181 137.084 38.0419 134.62L35.02 133.306C36.5521 130.179 37.2229 129.776 40.5132 130.228C38.5362 131.082 39.4188 131.937 40.0754 132.939C40.8944 134.189 42.7161 134.747 42.236 136.957C41.9253 138.369 42.589 140.014 42.8149 141.553C41.4028 140.635 40.7885 139.004 38.7409 140.212C37.4559 140.967 35.8178 141.123 34.328 141.532C34.2931 142.533 34.175 143.53 33.975 144.512C33.6149 145.574 33.1856 146.612 32.6899 147.618C31.8427 147.202 31.0024 146.785 30.1481 146.376C29.9926 146.316 29.8318 146.271 29.668 146.242C26.9284 147.823 26.9849 147.788 28.3476 150.372C28.7924 151.422 29.1375 152.512 29.3785 153.627L28.8278 154.093L25.8976 152.476C23.4616 154.044 25.1915 155.498 26.3636 156.967L22.8897 159.946C25.0079 160.292 24.8314 161.034 24.2383 162.34C23.3135 164.602 22.5168 166.915 21.8518 169.266C21.7232 169.862 21.6429 170.466 21.6117 171.074C24.8243 169.747 25.5657 167.099 25.9258 164.557C26.4483 160.878 27.112 159.819 31.2072 158.76C31.4826 161.81 28.8913 162.827 27.3168 164.444C27.956 165.148 28.366 166.029 28.4921 166.971C28.6182 167.913 28.4546 168.872 28.0228 169.718C27.4368 171.131 27.1967 172.945 29.1667 174.004C29.3169 174.248 29.404 174.526 29.4201 174.812C29.4361 175.098 29.3805 175.383 29.2584 175.642C28.3842 176.459 27.4391 177.196 26.4342 177.845C26.7025 175.522 26.9072 173.807 27.0979 172.197C25.2249 173.142 23.4009 174.181 21.6329 175.31C20.7608 175.949 20.1073 176.842 19.7618 177.866C18.9428 180.542 18.3497 183.296 17.7354 186.043C17.5479 187.223 17.4277 188.414 17.3753 189.608H23.0168C24.1042 189.608 25.135 189.608 25.5798 188.147L21.0751 188.373L26.6813 183.755L28.1782 185.471C28.3688 183.515 28.0087 181.672 30.374 180.804C30.0846 182.025 29.8798 182.865 29.668 183.699L30.2611 184.037C30.6353 183.466 31.412 182.795 31.3131 182.322C30.4729 178.516 35.2106 178.184 35.6554 175.219C35.6554 175.134 36.2556 175.134 36.6369 175.085C37.9219 178.283 35.2671 179.187 33.1065 180.733C33.9397 180.804 34.2574 180.818 34.5751 180.86L36.8699 181.15C36.3332 181.792 35.7755 182.413 35.2741 183.077C34.4995 183.99 33.8117 184.974 33.2195 186.014C31.7367 189.086 30.3952 192.228 28.9831 195.342L28.3617 195.158L28.044 191.268H27.458C27.3026 191.804 27.1332 192.341 26.992 192.877C26.4059 195.116 24.7184 195.822 21.9577 195.207C19.197 194.593 20.9833 193.089 21.3505 191.677C18.9993 191.981 18.0179 193.576 16.8105 194.96C15.0665 196.973 14.9465 197.453 17.333 198.597C19.6586 199.644 22.0798 200.464 24.5631 201.047C26.2859 201.491 26.9072 202.395 26.9849 204.097C27.1685 208.072 24.3583 210.402 22.0424 212.838C19.317 215.712 15.9914 218.013 13.1884 220.824C10.9854 223.041 11.4655 225.413 14.0074 227.072C14.4234 227.414 14.8217 227.777 15.2006 228.16L10.8866 231.591C10.2864 230.285 11.2678 228.527 9.19907 228.647C9.07904 228.936 8.88134 229.176 8.90958 229.388C9.24143 231.761 9.86277 234.211 6.95377 235.587C6.76313 235.679 6.73489 236.188 6.69959 236.512C6.4454 238.765 5.19566 240.968 6.51601 243.319C6.77019 243.771 6.46659 244.731 6.14886 245.268C5.13918 247.026 4.94148 248.537 6.79844 249.949C7.39974 250.44 7.82786 251.11 8.01993 251.862C8.22469 252.695 8.40827 253.853 8.01993 254.447C6.6431 256.416 4.99797 258.189 3.40931 260.095C1.35466 259.431 0.705074 259.834 0.493254 262.129C0.337919 264.169 0.592103 266.273 0.154341 268.236C-0.332846 270.418 0.330858 271.802 2.18076 272.614C2.92316 272.933 3.57592 273.43 4.08185 274.06C4.58777 274.69 4.93142 275.435 5.08269 276.229C7.03144 283.478 9.00608 290.722 11.0066 297.961C11.3314 299.134 11.8398 300.263 12.4187 301.781C13.5353 300.418 14.7281 299.119 15.9914 297.891C17.6931 296.436 18.4768 294.615 19.204 292.546C20.5244 288.776 22.2119 285.132 23.8923 281.503C24.669 279.83 25.6504 279.872 26.9496 281.263C26.1094 282.223 24.8314 283.063 24.5278 284.158C23.624 287.575 23.0592 291.084 22.4449 294.572C22.1201 296.401 22.3602 298.42 21.6894 300.087C19.4441 305.608 16.8105 310.967 14.5087 316.467C13.0356 319.963 11.7603 323.539 10.6889 327.179C9.72324 330.482 9.00112 333.852 8.5283 337.261C8.39035 338.735 8.71356 340.215 9.45325 341.498C10.4064 343.178 11.8892 344.513 11.9386 346.68C12.0043 347.039 12.1589 347.376 12.3883 347.659C12.6177 347.943 12.9147 348.165 13.2519 348.304C15.596 348.594 17.9684 349.653 20.3126 347.803C22.6567 345.953 25.4174 344.498 27.8322 342.444C30.4305 340.191 33.9891 338.751 37.3641 337.755C40.7391 336.76 42.7867 334.677 44.9755 332.432C46.9737 330.356 47.708 330.25 50.0027 331.945C51.3513 332.94 52.4528 333.646 53.9496 332.079C54.681 331.484 55.6068 331.182 56.548 331.231C60.6996 331.351 64.8513 331.599 69.003 331.853C71.2483 331.994 73.4865 332.248 75.7601 332.453C75.8236 332.354 75.9931 332.227 76.0072 332.079C76.0707 331.408 76.099 330.723 76.1272 330.045C76.332 325.844 79.4457 323.86 83.1879 325.569C84.0705 325.971 84.9743 326.338 85.9345 326.748C86.1587 326.362 86.3455 325.955 86.4923 325.533C87.1984 322.003 87.1984 322.003 90.8629 321.65C91.7101 321.572 92.621 321.29 93.3976 321.495C94.4163 321.766 95.3587 322.268 96.1513 322.963C98.0083 324.679 99.5899 326.713 101.524 328.322C104.003 330.377 104.109 330.257 101.962 332.686C100.727 334.098 100.953 335.298 102.619 336.153C103.113 336.407 103.636 336.619 104.222 336.859C103.403 338.73 102.81 340.551 101.842 342.119C101.136 343.192 100.042 344.385 98.8908 344.71C94.8027 345.847 90.6299 346.68 86.4641 347.534C84.9954 347.831 83.5056 348.008 82.0088 348.191C82.5366 349.568 83.1522 350.91 83.8516 352.209C84.5577 353.458 85.6168 353.289 86.5629 352.209C87.269 351.418 88.0527 350.719 89.0271 349.766C90.2627 352.978 88.7658 356.283 90.9547 359.305C92.1338 355.033 95.1558 352.675 98.1001 350.218C99.0404 349.354 99.8833 348.391 100.614 347.344C102.732 344.597 105.147 342.055 105.973 338.518C106.117 337.929 106.474 337.413 106.975 337.071C108.055 336.48 109.002 335.673 109.757 334.702C110.512 333.73 111.06 332.614 111.367 331.422C111.438 331.154 111.988 331.005 112.313 330.808C112.228 331.027 112.144 331.238 112.052 331.457C112.942 332.241 113.888 332.968 114.693 333.83C115.879 335.087 117.34 336.301 117.905 337.826C118.103 338.363 116.027 339.754 114.982 340.749C114.55 341.073 114.157 341.445 113.81 341.858C112.553 343.87 111.36 345.925 109.962 348.262C109.298 346.927 108.811 345.953 108.133 344.576C106.912 347.068 105.937 349.053 105.104 350.761C103.975 351.594 102.223 352.237 102.082 353.134C101.828 354.765 100.748 355.577 99.9994 356.742C98.9921 358.093 98.1328 359.549 97.4363 361.084C96.8644 362.581 96.0242 363.011 94.7321 362.39C92.9316 361.529 91.8514 362.242 90.8417 363.668C90.4763 364.202 89.9454 364.602 89.3307 364.805C86.2875 365.589 84.2188 367.954 84.7059 371.075C85.172 374.033 83.4633 375.671 81.8111 377.429C81.4227 377.846 80.6602 377.902 80.0671 378.135C79.9612 377.521 79.6223 376.843 79.7847 376.314C80.3213 374.591 79.474 374.196 78.0195 374.097C76.4869 374.026 74.9594 373.871 73.4442 373.631C70.5069 373.115 67.6191 372.268 64.6677 371.957C60.4313 371.505 56.1949 371.456 51.9585 371.152C49.2402 370.955 48.054 369.656 47.6374 366.973C47.3889 365.881 47.0609 364.81 46.656 363.767C45.7451 364.685 44.7919 365.56 43.9588 366.549C43.6693 366.895 43.7187 367.523 43.5563 368.003C43.1957 369.244 42.7449 370.457 42.2077 371.633C41.6076 372.783 41.311 373.843 42.6879 374.414C46.6011 376.088 50.8162 376.941 55.0723 376.921C58.2002 376.921 61.3351 376.695 64.4489 376.843C67.3479 376.988 70.2334 377.334 73.0841 377.881C75.2393 378.347 77.3474 379.009 79.3822 379.858C79.6437 380.066 79.8496 380.335 79.9814 380.642C80.1133 380.949 80.167 381.284 80.1377 381.616C79.9174 382.345 79.5223 383.009 78.9868 383.551C76.7556 386.375 73.7619 387.787 70.2527 388.402C69.1725 388.592 67.485 388.564 67.5909 390.52H79.3751C79.7256 390.16 80.1008 389.825 80.4978 389.517C82.8207 387.922 83.2232 386.884 82.4748 384.194C82.1147 382.887 84.9672 379.689 86.1816 380.197C86.5252 380.403 86.8175 380.684 87.0364 381.019C87.2554 381.354 87.3953 381.735 87.4455 382.132C87.5585 384.419 88.6741 385.74 90.5875 386.94C91.7525 387.646 92.3527 389.298 93.207 390.52H101.404C102.308 388.331 104.681 388.331 106.531 390.52H118.823C122.707 388.938 126.307 386.99 129.132 383.727C129.466 383.257 129.972 382.937 130.54 382.837C131.108 382.736 131.693 382.864 132.168 383.191C131.179 385.657 130.965 388.366 131.554 390.958H142.851L150.243 382.379L147.977 381.673C149.858 380.455 151.899 379.504 154.042 378.849C155.728 379.435 157.332 380.235 158.815 381.228L156.548 381.934L163.941 390.513H175.238C175.79 388.189 175.665 385.756 174.878 383.502C175.349 383.263 175.89 383.203 176.401 383.333C176.913 383.463 177.36 383.773 177.66 384.208C180.484 387.441 184.085 389.411 187.968 391H200.268C202.111 388.811 204.504 388.811 205.387 391H213.584C214.439 389.771 215.039 388.14 216.204 387.413C218.117 386.22 219.233 384.9 219.353 382.605C219.402 382.208 219.541 381.828 219.758 381.493C219.976 381.157 220.267 380.876 220.61 380.67C221.831 380.169 224.677 383.367 224.317 384.667C223.568 387.357 223.971 388.402 226.301 389.997C226.696 390.305 227.068 390.64 227.416 391H239.201C239.314 389.058 237.626 389.087 236.539 388.882C233.008 388.268 230.036 386.869 227.805 384.038C227.272 383.492 226.877 382.826 226.654 382.096C226.628 381.764 226.683 381.43 226.814 381.124C226.946 380.818 227.15 380.548 227.409 380.338C229.443 379.488 231.552 378.829 233.707 378.368C236.558 377.818 239.443 377.471 242.343 377.331C245.456 377.175 248.591 377.373 251.719 377.401C255.965 377.416 260.168 376.558 264.068 374.88C265.445 374.309 265.149 373.249 264.548 372.099C264.01 370.924 263.562 369.711 263.207 368.469C263.037 367.989 263.087 367.368 262.797 367.015C261.964 366.033 261.011 365.151 260.107 364.233C259.697 365.275 259.366 366.346 259.119 367.439C258.702 370.129 257.523 371.421 254.798 371.618C250.561 371.922 246.325 371.979 242.088 372.423C239.137 372.741 236.249 373.588 233.319 374.104C231.801 374.34 230.271 374.496 228.737 374.57C227.282 374.662 226.435 375.057 226.972 376.787C227.141 377.309 226.795 377.994 226.689 378.601C226.096 378.383 225.333 378.319 224.952 377.895C223.293 376.116 221.584 374.485 222.05 371.541C222.544 368.42 220.469 366.048 217.433 365.271C216.817 365.065 216.285 364.666 215.914 364.134C214.905 362.722 213.796 362.016 212.031 362.849C210.725 363.477 209.913 363.047 209.32 361.543C208.641 360.014 207.804 358.561 206.82 357.208C206.072 356.05 204.992 355.231 204.737 353.6C204.596 352.71 202.852 352.067 201.715 351.227L198.686 345.049L196.858 348.728C195.446 346.398 194.266 344.343 193.01 342.331C192.665 341.913 192.271 341.539 191.838 341.215C190.793 340.22 188.717 338.836 188.914 338.292C189.479 336.767 190.941 335.56 192.127 334.296C192.939 333.441 193.878 332.714 194.768 331.93C194.676 331.711 194.591 331.493 194.507 331.274C194.831 331.479 195.382 331.62 195.453 331.895C195.759 333.087 196.306 334.204 197.062 335.176C197.817 336.147 198.764 336.953 199.844 337.544C200.347 337.889 200.706 338.406 200.854 338.998C201.673 342.528 204.102 345.077 206.206 347.817C206.937 348.864 207.78 349.827 208.72 350.691C211.664 353.148 214.686 355.506 215.865 359.785C218.054 356.763 216.571 353.43 217.8 350.246C218.767 351.199 219.565 351.898 220.257 352.682C221.203 353.755 222.234 353.924 222.968 352.682C223.67 351.382 224.286 350.038 224.811 348.657C223.321 348.481 221.824 348.304 220.356 348.008C216.19 347.167 212.017 346.327 207.929 345.183C206.778 344.866 205.662 343.672 204.978 342.592C203.989 341.032 203.417 339.21 202.598 337.332C203.184 337.064 203.707 336.859 204.201 336.626C205.867 335.771 206.093 334.557 204.865 333.159C202.746 330.73 202.817 330.857 205.295 328.803C207.23 327.193 208.826 325.159 210.668 323.443C211.459 322.746 212.402 322.243 213.422 321.975C214.199 321.763 215.11 322.053 215.957 322.13C219.6 322.455 219.593 322.462 220.327 326.006C220.475 326.43 220.662 326.839 220.885 327.228C221.845 326.811 222.749 326.451 223.632 326.042C227.339 324.34 230.452 326.324 230.657 330.525C230.657 331.231 230.714 331.881 230.777 332.559C230.777 332.7 230.961 332.834 231.024 332.926C233.298 332.721 235.536 332.467 237.781 332.333C241.933 332.072 246.085 331.832 250.236 331.711C251.18 331.661 252.109 331.963 252.842 332.559C254.332 334.126 255.433 333.413 256.782 332.418C259.076 330.73 259.811 330.829 261.809 332.912C263.998 335.178 266.144 337.226 269.42 338.193C272.696 339.161 276.354 340.629 278.952 342.889C281.36 345.007 284.121 346.355 286.535 348.29C288.837 350.133 291.21 349.081 293.554 348.784C293.893 348.651 294.193 348.432 294.423 348.148C294.653 347.865 294.806 347.527 294.867 347.167C294.916 344.993 296.399 343.637 297.352 341.985C298.089 340.701 298.415 339.223 298.284 337.748C297.802 334.322 297.07 330.936 296.096 327.616C295.034 323.985 293.77 320.417 292.311 316.926C290.009 311.433 287.369 306.067 285.13 300.546C284.46 298.886 284.7 296.867 284.375 295.031C283.768 291.55 283.196 288.041 282.292 284.624C282.002 283.522 280.717 282.689 279.87 281.722C281.169 280.31 282.151 280.31 282.927 281.962C284.615 285.591 286.295 289.242 287.616 293.005C288.322 295.081 289.127 296.902 290.828 298.357C292.094 299.583 293.289 300.879 294.408 302.24C294.959 300.722 295.467 299.6 295.82 298.42C297.821 291.186 299.795 283.944 301.744 276.695C301.894 275.9 302.237 275.153 302.743 274.522C303.249 273.89 303.903 273.393 304.646 273.073C306.432 272.261 307.096 270.884 306.609 268.702ZM254.035 87.4897L255.101 87.9628C254.819 88.7536 254.529 89.5444 254.247 90.3281L252.835 89.728C253.237 88.9654 253.64 88.2593 254.035 87.4897ZM52.5163 89.8692L51.662 87.5039L52.7281 87.0237C53.1235 87.7722 53.526 88.5206 53.9285 89.269L52.5163 89.8692ZM96.3278 370.686C95.5631 371.457 94.8794 372.304 94.2873 373.214C93.9907 373.009 93.7013 372.798 93.4118 372.586C94.1955 370.581 94.9722 368.575 95.7842 366.492C98.4672 368.349 98.4601 368.949 96.3278 370.686ZM210.979 366.958C211.791 369.034 212.568 371.039 213.351 373.045L212.483 373.68C211.888 372.77 211.202 371.923 210.435 371.152C208.289 369.408 208.289 368.808 210.979 366.987V366.958ZM271.595 208.997C271.941 211.186 272.153 213.396 272.414 215.599L271.002 215.839C270.529 213.685 270.013 211.532 269.639 209.364C269.583 209.046 270.126 208.39 270.501 208.298C270.728 208.309 270.949 208.379 271.141 208.502C271.333 208.624 271.489 208.795 271.595 208.997V208.997ZM272.668 219.454L272.351 224.721C270.776 222.963 271.037 221.191 271.644 219.433L272.668 219.454ZM270.967 188.387L270.592 189.135C268.248 190.011 266.109 188.599 263.913 188.147C263.609 188.09 263.292 186.671 263.482 186.029C263.631 185.513 264.774 184.743 265.064 184.892C267.09 185.944 269.011 187.201 270.967 188.394V188.387ZM266.024 195.73L265.509 196.528L261.519 193.816L261.943 193.11L266.024 195.73ZM271.313 146.658C271.887 147.557 272.463 148.454 273.042 149.348C272.929 149.581 272.817 149.814 272.696 150.054C272.125 149.843 271.185 149.772 271.037 149.391C270.801 148.499 270.687 147.58 270.698 146.658H271.313ZM265.763 154.785C267.281 155.731 268.587 156.515 268.509 153.571C268.509 153.048 269.562 152.497 270.126 151.961L270.607 152.391C270.381 153.429 270.162 154.467 269.936 155.512L272.125 157.052L271.969 157.673L268.213 157.461C268.764 158.605 269.251 159.579 269.738 160.596C267.747 158.908 265.255 157.68 264.711 154.665C265.276 154.736 265.565 154.679 265.749 154.792L265.763 154.785ZM260.489 160.744C260.157 159.24 261.717 157.666 263.708 157.489C263.052 158.591 262.43 159.643 261.759 160.78L264.287 162.298C262.19 162.707 260.884 162.615 260.474 160.751L260.489 160.744ZM264.146 143.982L262.423 148.219C260.948 145.055 261.244 144.314 264.132 143.989L264.146 143.982ZM264.513 129.543C264.294 130.553 263.553 131.457 263.03 132.41C262.635 133.116 261.894 133.822 261.915 134.528C261.985 136.646 260.722 137.825 259.091 139.146C258.879 134.563 260.425 130.913 263.638 127.517C263.927 128.152 264.626 128.936 264.499 129.55L264.513 129.543ZM261.95 121.932L262.55 122.108L263.391 124.933L258.194 131.125L257.685 130.814C257.911 127.263 261.661 125.448 261.95 121.932ZM250.265 156.939L247.871 155.703L247.469 156.247C248.104 156.79 248.711 157.398 249.396 157.878C250.964 158.993 250.568 159.833 249.234 160.66C245.266 157.419 245.237 152.455 243.366 148.36C242.943 147.435 243.049 146.242 242.915 145.211L243.451 145.098C245.711 148.981 247.928 152.893 250.258 156.939H250.265ZM246.127 170.947C243.126 171.046 242.597 170.05 244.305 166.181C245.442 168.546 249.354 169.097 247.518 172.783C247.518 172.846 247.518 172.952 247.518 173.037C247.991 175.861 248.485 178.735 248.93 181.594C249.142 183.007 249.234 184.419 249.403 186.064C244.821 185.358 244.193 183.946 245.873 180.366C246.476 178.802 246.766 177.135 246.727 175.459C246.65 173.941 246.447 172.431 246.12 170.947H246.127ZM239.307 88.0405C240.627 87.9487 241.954 88.4853 241.933 90.1092C241.933 90.6812 241.107 91.246 240.26 92.3263C239.201 91.1683 238.36 90.4693 237.88 89.5797C237.753 89.3538 238.756 88.0828 239.299 88.0405H239.307ZM238.989 112.047C239.596 114.031 240.21 116.015 240.874 118.183L241.531 118.062L242.611 117.837C243.07 120.287 242.046 121.106 239.737 120.385C236.581 116.276 236.482 115.182 238.982 112.075L238.989 112.047ZM202.796 123.266C205.726 123.775 205.486 126.705 207.124 128.357C203.664 130.666 201.793 127.411 198.891 126.945C200 125.06 200.148 122.857 202.789 123.294L202.796 123.266ZM192.84 230.461L194.069 231.167L191.908 235.121L190.891 234.585L192.84 230.461ZM171.658 132.233C171.799 132 172.364 132.014 172.816 131.901L172.181 129.734L172.513 129.557C172.746 129.755 173.056 129.91 173.219 130.164C174.059 131.655 175.432 132.774 177.061 133.297C178.69 133.821 180.457 133.711 182.009 132.989C183.708 132.229 185.513 131.734 187.361 131.52C188.025 131.435 188.823 132.473 189.557 133.003C188.857 133.44 188.133 133.839 187.389 134.196C187.128 134.309 186.733 134.076 186.394 134.041C183.181 133.758 181.614 135.149 181.501 138.32C180.569 138.32 179.559 138.56 178.747 138.256C177.646 137.854 176.099 137.225 175.81 136.343C175.174 134.38 174.242 134.224 172.569 134.747C172.117 134.888 171.46 134.387 170.903 134.182C171.101 133.509 171.364 132.856 171.686 132.233H171.658ZM154.713 376.999C152.947 376.723 151.182 376.384 149.452 376.017C149.79 375.434 150.244 374.927 150.787 374.527C151.489 374.132 152.075 373.56 152.486 372.867C152.897 372.174 153.12 371.386 153.131 370.58C153.185 369.982 153.289 369.389 153.442 368.808C153.527 369.24 153.591 369.676 153.632 370.115C153.644 370.921 153.866 371.71 154.277 372.404C154.689 373.098 155.274 373.671 155.976 374.068C156.746 374.527 157.212 375.481 157.812 376.243C157.523 376.328 157.226 376.448 156.93 376.561C156.188 376.716 155.454 376.865 154.713 376.999ZM123.879 239.4L122.099 241.476C121.64 240.826 120.751 240.12 120.821 239.534C120.892 238.948 121.838 238.299 122.403 237.684L123.879 239.4ZM129.146 243.164C131.787 245.049 131.85 245.649 130.106 247.4C129.181 248.332 128.334 249.349 127.451 250.323C127.119 250.118 126.788 249.914 126.463 249.702C127.338 247.548 128.221 245.416 129.146 243.164ZM131.102 238.299L130.96 237.868L135.049 237.247C134.992 238.108 134.957 238.701 134.921 239.33L131.102 238.299ZM152.587 330.158C152.495 329.79 152.493 329.404 152.583 329.035C152.673 328.666 152.851 328.325 153.103 328.04C153.546 328.291 153.893 328.683 154.087 329.154C154.282 329.625 154.313 330.148 154.176 330.638C153.915 332.135 153.668 333.625 153.42 335.122C153.145 333.448 152.877 331.803 152.587 330.158ZM141.431 356.989C142.363 357.165 142.844 357.102 143.105 357.328L143.74 357.942C143.253 358.712 142.787 359.495 142.328 360.286C142.139 359.155 141.839 358.046 141.431 356.975V356.989ZM163.383 358.055L163.665 357.787C163.891 357.561 164.372 357.624 165.332 357.448C165.006 358.298 164.75 359.174 164.569 360.067C164.188 359.38 163.793 358.704 163.383 358.041V358.055ZM175.81 238.327L175.669 238.765L171.856 239.789C171.814 239.16 171.778 238.567 171.722 237.706L175.81 238.327ZM177.624 243.623C178.556 245.875 179.432 248.014 180.315 250.154L179.319 250.775C178.436 249.794 177.596 248.777 176.664 247.845C174.913 246.108 174.977 245.508 177.617 243.594L177.624 243.623ZM184.367 238.115C184.932 238.722 185.871 239.294 185.949 239.958C186.027 240.622 185.13 241.25 184.671 241.9C184.141 241.3 183.619 240.692 182.892 239.859L184.367 238.115ZM119.409 131.061C121.26 131.278 123.067 131.776 124.768 132.537C126.319 133.258 128.085 133.368 129.713 132.845C131.341 132.321 132.712 131.203 133.552 129.713C133.686 129.465 134.004 129.303 134.258 129.105L134.59 129.289C134.399 129.946 134.201 130.602 133.954 131.45C134.406 131.57 134.971 131.548 135.112 131.788C135.437 132.414 135.702 133.069 135.903 133.744C135.338 133.949 134.688 134.45 134.23 134.309C132.556 133.787 131.624 133.942 130.989 135.898C130.706 136.78 129.153 137.409 128.059 137.818C127.239 138.115 126.23 137.875 125.305 137.875C125.185 134.704 123.617 133.321 120.405 133.603C120.066 133.603 119.699 133.871 119.409 133.758C118.661 133.427 117.997 132.968 117.242 132.558C117.912 132.036 118.738 130.984 119.402 131.061H119.409ZM113.93 230.002L115.879 234.098L114.862 234.627L112.702 230.666L113.93 230.002ZM103.975 122.857C106.615 122.398 106.799 124.622 107.879 126.556C104.977 127.008 103.113 130.263 99.6463 127.969C101.284 126.274 101.044 123.344 103.975 122.857ZM66.5529 91.8885C65.6986 90.8083 64.8796 90.2434 64.8725 89.6715C64.8725 88.0475 66.1858 87.5109 67.4991 87.6098C68.0428 87.6521 69.0454 88.923 68.9112 89.1419C68.4099 90.0104 67.5697 90.7094 66.5176 91.8603L66.5529 91.8885ZM64.1947 117.427L65.282 117.653C65.5786 117.717 65.8892 117.766 65.9316 117.773C66.5953 115.612 67.2096 113.628 67.8168 111.644C70.3163 114.744 70.2245 115.845 67.1107 119.983C64.7242 120.675 63.7075 119.856 64.1594 117.399L64.1947 117.427ZM58.9415 155.265L56.4844 156.48L63.298 144.632L63.8346 144.752C63.7004 145.804 63.8346 146.969 63.3827 147.894C61.5116 151.989 61.4834 156.953 57.5153 160.194C56.1808 159.374 55.7854 158.534 57.3529 157.419C58.059 156.931 58.645 156.331 59.2805 155.781C59.1745 155.597 59.0404 155.421 58.9062 155.237L58.9415 155.265ZM60.9256 179.935C62.5919 183.536 61.9635 184.941 57.3953 185.633C57.5647 183.967 57.6565 182.555 57.8683 181.157C58.3061 178.332 58.8074 175.452 59.2805 172.599C59.2805 172.514 59.3369 172.416 59.2805 172.345C57.4517 168.659 61.3563 168.109 62.4931 165.743C64.1947 169.612 63.6722 170.608 60.6714 170.509C60.3447 171.996 60.1416 173.508 60.0642 175.028C60.0232 176.692 60.3037 178.349 60.8903 179.907L60.9256 179.935ZM44.22 121.642L44.8272 121.466C45.1026 124.996 48.8518 126.797 49.0637 130.341L48.5623 130.652C46.8748 128.653 45.1944 126.648 43.3586 124.467L44.22 121.642ZM42.2642 129.084C42.1371 128.477 42.8361 127.672 43.1115 127.093C46.3241 130.489 47.8704 134.154 47.6586 138.722C46.0558 137.395 44.7919 136.258 44.8343 134.097C44.8343 133.391 44.1282 132.685 43.7187 131.979C43.2245 131.005 42.4831 130.101 42.2642 129.084ZM44.3824 147.739L42.6596 143.502C45.498 143.855 45.8157 144.597 44.3542 147.739H44.3824ZM45.0885 160.321L43.0691 157.03C45.0602 157.207 46.5995 158.788 46.2888 160.285C45.8793 162.156 44.5731 162.241 42.4902 161.839L45.0885 160.321ZM44.8343 192.687L45.2579 193.393L41.2687 196.104L40.7532 195.299L44.8343 192.687ZM33.7349 148.911C34.3092 148.016 34.8858 147.112 35.4648 146.199H36.0791C36.0905 147.119 35.9765 148.036 35.7402 148.925C35.5919 149.306 34.6599 149.377 34.0809 149.588C33.9609 149.355 33.8479 149.122 33.7349 148.889V148.911ZM34.8081 157.242L34.6528 156.614L36.8416 155.082C36.6157 154.03 36.3968 152.963 36.1356 151.954L36.6157 151.523C37.1805 152.06 38.2467 152.617 38.2326 153.133C38.1337 156.084 39.4611 155.293 40.9792 154.354C41.1628 154.241 41.4522 154.291 42.0312 154.234C41.4875 157.242 38.9951 158.471 37.004 160.165L38.5291 157.03L34.8081 157.242ZM41.6994 184.454C41.9889 184.306 43.1115 185.075 43.281 185.598C43.4716 186.24 43.1539 187.652 42.8503 187.716C40.6544 188.161 38.515 189.573 36.1709 188.705L35.7966 187.949C37.7524 186.742 39.673 185.485 41.6994 184.433V184.454ZM35.1682 208.552C35.2752 208.349 35.4329 208.178 35.6259 208.054C35.819 207.93 36.0408 207.859 36.2697 207.846C36.6439 207.945 37.1876 208.594 37.1311 208.912C36.7569 211.087 36.2415 213.233 35.7684 215.387L34.3563 215.154C34.5963 212.93 34.8223 210.72 35.1682 208.531V208.552ZM35.1047 218.981C35.726 220.746 35.9873 222.511 34.3986 224.269L34.0809 219.009L35.1047 218.981ZM23.0098 247.428C20.715 248.713 19.543 250.704 18.2791 252.851C17.2271 254.637 15.5678 256.07 14.1133 257.603C13.1389 258.626 11.9386 259.46 11.0772 260.568C10.6253 261.147 10.2652 262.475 10.59 262.863C12.567 265.214 11.8892 267.805 11.5785 270.333C7.72339 263.76 9.31204 252.597 14.5511 251.714L13.3296 254.383C15.9985 253.049 15.9985 253.049 20.4962 246.009C21.8236 247.026 22.8332 246.581 23.6523 245.204C24.3266 244.083 25.1589 243.065 26.1235 242.182C26.3 244.667 24.9161 246.362 23.0098 247.428ZM26.2435 268.921C26.0105 269.422 25.7281 269.909 25.4739 270.397L24.9091 270.178C26.4907 265.235 27.8957 260.293 29.7103 255.414C31.3484 251.029 33.4949 246.835 35.2953 242.507C35.8743 241.095 36.8699 241.003 37.9713 241.25C39.327 241.547 39.094 242.585 38.9598 243.7C38.7186 245.625 38.6288 247.565 38.6915 249.504C38.7937 252.351 38.1279 255.172 36.764 257.673L36.1002 257.56C35.8178 256.056 35.5283 254.552 35.2459 253.056L34.4551 252.815C33.6582 253.703 32.9489 254.665 32.3369 255.689C30.2469 260.067 28.2417 264.508 26.2435 268.921ZM36.1285 267.036L31.3272 272.501C31.6732 268.427 33.0571 266.831 36.1214 267.036H36.1285ZM45.7734 296.338C45.2156 298.823 44.7002 301.336 43.9023 303.744C42.6526 307.515 41.2051 311.221 39.7718 314.921C39.5882 315.387 38.9528 315.698 38.4868 316.023C38.1478 316.263 37.6324 316.319 37.3853 316.616C33.7843 320.916 29.4915 324.707 27.2532 330.031C26.766 331.182 26.7943 332.545 26.5471 334.02C24.895 333.237 24.3089 332.361 24.7467 330.829C25.1844 329.297 25.5234 327.553 25.9188 325.886C25.9493 325.374 26.094 324.874 26.3424 324.425C29.3644 320.951 28.6018 316.347 29.8727 312.351C30.374 310.748 30.2893 309.209 31.6873 307.811C32.7747 306.724 32.9794 304.796 33.749 303.328C34.5187 301.859 35.1612 300.002 37.3994 299.797C37.9501 299.748 38.6421 298.992 38.9104 298.385C39.6588 296.747 40.5132 295.596 42.5255 295.222C43.3304 295.067 43.9376 293.429 44.4813 292.398C45.0249 291.367 45.4627 290.279 45.9428 289.256L47.0796 289.7C46.5995 291.939 46.2535 294.149 45.7663 296.338H45.7734ZM44.9332 164.091C47.0514 162.679 48.5129 159.904 51.895 161.415C50.5888 165.016 47.8422 166.132 44.9332 164.091ZM57.1905 306.237C56.5692 308.397 55.7784 310.473 54.9946 312.591C54.6805 313.574 54.2314 314.507 53.6602 315.366C53.3354 315.804 52.5375 315.889 51.9515 316.136C51.7396 315.62 51.3019 315.084 51.3513 314.596C51.542 312.732 51.8385 310.875 52.1986 309.04C53.0318 304.867 53.9143 300.701 54.804 296.542C54.9381 295.928 55.2135 295.349 55.5524 294.361C56.1879 295.144 56.781 295.54 56.8375 296.006C57.134 298.322 57.3317 300.652 57.4588 302.982C57.5437 304.074 57.4532 305.173 57.1905 306.237ZM62.133 199.486C61.3985 198.931 60.7367 198.286 60.163 197.566L60.2054 196.86C61.3139 196.958 62.5284 196.86 63.4816 197.262C63.9334 197.467 63.8911 198.766 64.0747 199.564C63.4392 199.564 62.6484 199.818 62.133 199.486V199.486ZM65.1479 135.841L64.5265 135.905V130.052L65.1479 129.91V135.841ZM65.6633 128.23L61.8364 126.02C65.1549 124.834 65.5715 125.053 66.0728 127.616L65.6633 128.23ZM73.2182 162.785C71.901 163.586 70.4992 164.24 69.0383 164.734C68.8477 164.811 68.2758 164.486 68.2616 164.31C68.2454 164.119 68.2683 163.926 68.329 163.744C68.3897 163.562 68.4869 163.394 68.6147 163.251C69.2017 162.89 69.8239 162.589 70.4716 162.354L67.958 161.295C69.3702 159.777 70.4575 158.428 71.7425 157.277C72.1309 156.939 73.0346 157.186 73.6984 157.157C73.5292 157.741 73.2923 158.303 72.9923 158.831C72.7182 159.157 72.3883 159.432 72.0179 159.643C72.4839 160.907 73.3877 162.651 73.197 162.785H73.2182ZM69.6879 150.076C69.9633 147.753 71.2554 147.908 72.5545 148.084L72.8934 149.016L69.6879 150.076ZM76.9321 252.561C76.6003 255.386 76.0707 258.21 75.6683 261.034C75.4776 262.34 75.3929 263.661 75.2588 264.981L74.1926 264.903C74.9552 258.596 75.7224 252.291 76.4944 245.988L77.3275 246.03C77.1934 248.233 77.1722 250.429 76.918 252.597L76.9321 252.561ZM82.9196 147.647L83.5762 145.529C84.0776 143.94 84.8825 142.535 83.2161 140.854C82.5595 140.191 82.7007 138.538 81.6416 137.479C80.3778 136.215 79.6787 136.604 78.8173 137.649C79.1774 138.468 79.94 139.35 79.7564 139.936C79.0503 142.097 79.594 144.794 76.9321 146.185C75.3717 147.004 70.3869 147.032 69.0454 145.719C71.1141 143.686 74.4044 147.378 76.1978 143.947L70.747 141.935L75.52 138.171C72.7522 135.305 71.8838 140.487 69.5679 139.252C68.191 133.222 71.9755 129.762 76.2543 126.359C77.7159 128.011 79.4599 128.759 81.5075 127.03L77.9065 127.383C79.6011 124.509 79.9329 122.129 77.1087 120.322C75.2517 121.183 74.0231 124.071 71.2342 121.967C71.4178 121.346 71.6225 120.675 71.8485 119.919C68.7347 119.39 68.4381 122.539 65.8892 123.838C66.4259 122.214 66.8213 121.049 67.2096 119.884C69.2431 118.804 71.8132 118.825 73.2112 116.354C73.9172 115.055 76.7415 115.648 77.617 117.102C80.06 121.113 83.9716 123.231 87.9609 125.158C88.554 125.448 89.6131 125.575 90.0015 125.243C90.3898 124.911 90.4604 123.888 90.4886 123.167C90.5522 121.908 90.531 120.646 90.4251 119.39C90.1992 116.869 89.7826 114.363 89.6343 111.842C89.5778 110.896 90.0509 109.914 90.2839 108.947C91.6716 109.626 92.991 110.437 94.2237 111.369C94.5132 111.623 93.9272 113.092 93.5177 113.861C93.1929 114.433 92.4656 114.765 91.5972 115.464L94.5274 116.53C94.139 117.06 93.9413 117.575 93.5671 117.801C91.7596 118.882 91.2865 119.877 93.1717 121.487C93.7648 121.988 93.5883 123.372 93.786 124.354C94.0402 125.61 94.3155 126.867 94.6686 128.505C93.8707 130.623 92.9246 133.236 91.8443 135.82C91.3289 137.07 90.4322 138.171 90.0297 139.435C89.6734 140.805 89.4231 142.2 89.2813 143.608C85.3061 142.111 85.7227 147.216 82.9055 147.682L82.9196 147.647ZM91.2936 243.954C91.7807 243.495 92.5221 242.994 92.5857 242.45C92.9458 239.118 95.883 238.729 98.2342 237.607C97.0134 238.759 95.8716 239.993 94.8168 241.3C94.2721 242.204 93.9795 243.238 93.9696 244.293C93.9696 244.809 94.6191 245.374 94.9792 245.917C95.4523 245.529 95.9254 245.126 96.3914 244.752C97.4999 243.898 98.5096 242.719 99.7734 242.309C100.889 241.949 101.8 241.773 101.673 240.48C101.546 239.188 103.791 237.162 99.6322 236.534L101.814 234.062L102.647 234.684L103.996 236.936C104.532 235.764 104.878 234.987 105.231 234.218C108.628 234.966 108.762 235.595 105.937 238.722L108.409 239.711C108.112 240.452 107.816 241.179 107.47 242.02C108.698 242.655 109.842 243.707 111 243.735C112.377 243.771 113.775 242.909 115.328 242.38C114.248 242.013 112.843 241.956 112.25 241.229C111.657 240.502 111.819 239.111 111.657 237.967C114.163 236.272 114.58 236.378 115.893 239.068C117.898 243.305 117.016 244.434 113.203 247.16C111.237 248.655 108.915 249.611 106.467 249.935C105.556 250.055 104.744 250.86 103.643 251.502C103.381 250.464 103.17 249.638 102.866 248.438L99.9994 250.097C99.371 250.189 98.5872 250.563 98.1495 250.316C94.718 248.36 93.9131 248.417 91.1524 251.163C89.3942 249.052 89.4931 245.621 91.2936 243.954ZM99.9076 250.161C100.557 250.521 101.447 250.768 101.729 251.319C101.906 251.665 101.27 252.688 100.755 253.084C99.6796 253.802 98.5567 254.446 97.394 255.011C96.8856 252.54 99.2509 251.792 99.9076 250.161ZM92.2044 257.179C92.4444 255.541 92.621 254.355 92.861 252.717L95.7418 252.011C95.4241 254.524 94.6544 256.212 92.2044 257.179ZM99.9288 281.51L100.077 280.663C101.821 280.451 103.268 281.298 104.73 282.11C104.681 282.329 104.624 282.541 104.575 282.753L99.9288 281.51ZM97.5281 275.007C100.776 273.426 101.722 273.765 103.092 277.083L100.409 278.22L97.5281 275.007ZM100.261 320.725C100.261 318.275 100.833 317.633 103.043 317.957C105.253 318.282 107.484 318.748 109.863 319.186C106.862 322.052 103.593 321.699 100.261 320.725ZM106.093 306.47C107.583 306.575 108.825 306.985 109.023 308.785C106.439 309.259 106.17 309.054 106.079 306.47H106.093ZM107.597 302.939L106.057 306.392C104.744 305.403 104.822 304.196 106.382 302.389C107.568 301.026 108.5 301.767 109.863 302.939H107.597ZM110.767 282.859C109.567 280.86 112.038 280.804 112.356 279.484L109.03 277.711C110.687 276.983 112.298 276.153 113.852 275.226C115.202 274.16 116.478 273.004 117.672 271.766L119.557 272.021C119.437 272.896 119.332 273.673 119.183 274.774H122.149C122.174 275.486 122.105 276.198 121.944 276.892C121.643 277.456 121.257 277.971 120.8 278.418C120.32 277.968 119.904 277.455 119.565 276.892C119.077 275.805 116.74 275.05 115.851 275.791L113.951 277.33C115.844 280.663 112.052 280.959 110.753 282.837L110.767 282.859ZM116.881 264.981L120.235 261.874C119.706 263.477 119.324 265.214 116.867 264.96L116.881 264.981ZM122.297 268.511L121.838 268.984L118.075 266.866L120.094 264.96L122.297 268.511ZM113.393 296.62C114.671 294.699 114.671 294.699 116.924 295.476C115.935 297.178 115.794 297.255 113.393 296.62ZM117.34 293.287C117.524 292.278 117.51 291.014 117.99 289.976C118.823 288.175 120.624 288.684 122.106 288.5L122.509 289.086L117.34 293.287ZM126.202 265.426C124.083 263.731 124.083 262.7 126.117 260.385L128.009 260.483C127.352 262.291 126.781 263.837 126.202 265.426ZM126.096 260.293L123.695 259.544C124.062 258.69 124.401 257.829 124.804 256.974C125.206 256.12 125.566 255.28 126.103 254.093C122.361 254.743 120.038 256.275 120.334 257.885C120.553 259.107 120.059 259.502 119.332 260.159C117.333 261.945 115.321 263.512 112.589 262.333C112.518 263.534 112.85 265.066 112.299 265.518C111.367 266.273 109.736 266.887 108.649 266.605C105.895 265.899 103.742 267.438 101.334 268.017C100.938 268.109 100.592 268.66 100.331 269.069C100.07 269.479 100.063 270.149 99.724 270.481C98.8947 271.243 97.9717 271.895 96.9774 272.423C96.7656 272.529 95.6853 271.668 95.7418 271.463C95.9506 270.436 96.39 269.47 97.0268 268.638C98.5096 267.043 100.211 265.645 101.757 263.774L99.1521 264.204L97.6552 259.509C98.9332 257.8 99.8229 256.515 100.833 255.329C101.322 254.906 101.869 254.555 102.456 254.284C102.456 254.99 102.732 255.894 102.407 256.402C101.489 257.906 100.331 259.262 99.2651 260.681L99.6675 261.154L103.72 257.829L104.426 258.344C103.753 259.62 103.08 260.898 102.407 262.178L102.915 262.587C104.723 261.302 106.608 260.116 108.303 258.704C108.937 258.143 109.703 257.753 110.529 257.57C111.356 257.387 112.215 257.418 113.026 257.659C114.32 257.999 115.68 257.999 116.973 257.659C118.611 257.115 119.798 255.845 119.423 253.811C121.139 252.837 123.737 254.079 124.366 250.839L128.037 254.757C128.298 254.079 128.629 253.431 129.026 252.823C129.599 252.143 130.279 251.561 131.038 251.1C131.631 250.761 132.775 250.959 133.043 250.528C133.697 249.441 134.149 248.245 134.378 246.998C134.455 246.588 133.672 246.016 133.114 245.303C134.314 243.093 137.541 241.617 136.369 238.165L136.545 238.2L136.884 240.269C137.124 241.681 137.922 242.938 138.24 244.322C137.739 246.687 137.266 249.066 136.665 251.417C136.292 252.375 135.708 253.237 134.957 253.938C134.198 254.831 133.332 255.628 132.38 256.311C131.434 256.96 130.304 257.807 129.287 257.772C126.237 257.574 126.209 257.426 126.096 260.293V260.293ZM180.562 265.885C179.983 264.303 179.418 262.75 178.754 260.942L180.646 260.836C182.659 263.166 182.652 264.197 180.562 265.885V265.885ZM184.283 289.545L184.685 288.966C186.168 289.143 187.968 288.641 188.802 290.442C189.282 291.48 189.268 292.744 189.451 293.753L184.283 289.545ZM186.712 265.383L188.731 267.283L184.968 269.401L184.509 268.921L186.712 265.383ZM186.57 262.312L189.924 265.426C187.467 265.68 187.065 263.943 186.542 262.312H186.57ZM189.861 295.942C192.12 295.165 192.12 295.165 193.391 297.079C190.976 297.686 190.828 297.637 189.832 295.942H189.861ZM196.039 283.296C194.74 281.418 190.948 281.122 192.84 277.761C192.134 277.203 191.555 276.709 190.941 276.222C190.023 275.516 187.714 276.222 187.227 277.323C186.885 277.885 186.47 278.398 185.991 278.848C185.536 278.4 185.15 277.886 184.848 277.323C184.688 276.629 184.619 275.917 184.643 275.205H187.622C187.474 274.11 187.368 273.327 187.248 272.458L189.133 272.204C190.327 273.44 191.604 274.593 192.953 275.657C194.51 276.585 196.123 277.415 197.783 278.142L194.457 279.921C194.74 281.242 197.211 281.298 196.01 283.296H196.039ZM200.423 302.826C201.991 304.634 202.061 305.841 200.748 306.837L199.209 303.384H196.942C198.249 302.198 199.209 301.492 200.395 302.826H200.423ZM200.713 306.936C200.621 309.513 200.353 309.718 197.783 309.244C197.952 307.444 199.195 307.034 200.685 306.936H200.713ZM196.95 319.645C199.322 319.207 201.532 318.734 203.763 318.409C205.994 318.084 206.587 318.734 206.545 321.177C203.17 322.165 199.901 322.519 196.921 319.652L196.95 319.645ZM202.224 283.212C202.167 282.993 202.111 282.781 202.061 282.569C203.523 281.75 204.978 280.903 206.714 281.115L206.863 281.969L202.224 283.212ZM206.383 278.679L203.7 277.535C205.069 274.216 206.015 273.878 209.263 275.466L206.383 278.679ZM209.814 272.811C208.823 272.282 207.9 271.632 207.067 270.877C206.729 270.573 206.729 269.916 206.46 269.465C206.192 269.013 205.853 268.504 205.458 268.413C203.05 267.862 200.896 266.294 198.143 267.036C197.055 267.311 195.424 266.704 194.499 265.941C193.942 265.489 194.274 263.964 194.203 262.764C191.47 263.943 189.458 262.369 187.467 260.589C186.761 259.933 186.238 259.53 186.464 258.316C186.754 256.699 184.431 255.167 180.689 254.517C181.225 255.703 181.614 256.551 181.988 257.405C182.362 258.259 182.729 259.114 183.096 259.968L180.696 260.723C180.583 257.857 180.555 257.998 177.504 258.111C176.488 258.146 175.386 257.292 174.419 256.649C173.464 255.967 172.597 255.17 171.835 254.277C171.083 253.573 170.499 252.709 170.126 251.749C169.483 249.257 168.996 246.722 168.453 244.194C168.488 244.053 168.509 243.905 168.544 243.764C168.855 242.352 169.667 241.081 169.907 239.683C169.971 239.308 170.027 238.941 170.091 238.567L170.423 238.504C169.25 241.949 172.477 243.446 173.685 245.642C173.127 246.348 172.336 246.927 172.421 247.336C172.648 248.583 173.098 249.779 173.748 250.867C174.024 251.297 175.16 251.1 175.76 251.446C176.518 251.907 177.195 252.489 177.766 253.169C178.165 253.773 178.497 254.419 178.754 255.096L182.426 251.177C183.033 254.425 185.631 253.183 187.368 254.157C187.001 256.19 188.18 257.461 189.825 258.005C191.117 258.344 192.474 258.344 193.765 258.005C194.576 257.764 195.435 257.733 196.261 257.915C197.087 258.096 197.854 258.485 198.489 259.043C200.183 260.455 202.076 261.648 203.876 262.933L204.384 262.517L202.365 258.683L203.071 258.175C204.427 259.276 205.778 260.382 207.124 261.493L207.526 261.02C206.46 259.608 205.302 258.245 204.384 256.741C204.067 256.219 204.335 255.329 204.335 254.623C204.925 254.887 205.472 255.236 205.959 255.661C206.969 256.847 207.858 258.139 209.136 259.841C208.762 261.034 208.197 262.792 207.639 264.536L205.041 264.113C206.58 265.984 208.282 267.382 209.765 268.977C210.402 269.809 210.842 270.775 211.05 271.802C211.113 272.07 209.998 272.924 209.786 272.818L209.814 272.811ZM209.398 255.463C208.236 254.896 207.113 254.252 206.037 253.536C205.521 253.147 204.886 252.124 205.062 251.778C205.352 251.22 206.234 250.98 206.884 250.613C207.512 252.251 209.878 253.006 209.369 255.47L209.398 255.463ZM211.05 252.441L213.93 253.147C214.171 254.771 214.347 255.972 214.587 257.61C212.116 256.678 211.339 254.99 211.021 252.448L211.05 252.441ZM215.689 251.587C212.907 248.84 212.123 248.763 208.691 250.74C208.261 250.987 207.47 250.613 206.842 250.528L203.982 248.869C203.671 250.062 203.459 250.888 203.198 251.933C202.069 251.283 201.257 250.485 200.374 250.365C197.923 250.041 195.598 249.082 193.631 247.584C189.825 244.865 188.936 243.7 190.941 239.499C192.219 236.809 192.643 236.675 195.142 238.391C194.98 239.506 195.142 240.904 194.549 241.653C193.956 242.401 192.551 242.443 191.47 242.803C193.024 243.333 194.422 244.216 195.799 244.166C196.971 244.166 198.122 243.079 199.329 242.45C198.983 241.61 198.686 240.876 198.39 240.142L200.861 239.153C198.037 236.018 198.136 235.39 201.532 234.641L202.768 237.367C203.389 236.322 203.756 235.715 204.116 235.114L204.949 234.486L207.131 236.957C202.993 237.593 205.232 239.556 205.09 240.911C204.949 242.267 205.874 242.38 206.99 242.74C208.247 243.142 209.263 244.329 210.372 245.183C210.859 245.557 211.332 245.953 211.784 246.341C212.144 245.797 212.822 245.239 212.794 244.717C212.783 243.664 212.49 242.632 211.946 241.73C210.893 240.422 209.752 239.188 208.529 238.038C210.88 239.153 213.817 239.548 214.178 242.874C214.241 243.418 214.983 243.926 215.47 244.378C217.27 246.08 217.376 249.511 215.66 251.594L215.689 251.587ZM231.519 265.482C231.392 264.169 231.3 262.849 231.116 261.543C230.707 258.718 230.177 255.894 229.845 253.07C229.591 250.902 229.57 248.706 229.45 246.517L230.283 246.482L232.592 265.391L231.519 265.482ZM238.17 163.738C238.298 163.881 238.395 164.049 238.455 164.231C238.516 164.413 238.539 164.606 238.523 164.797C238.523 164.967 237.937 165.298 237.746 165.221C236.286 164.728 234.886 164.072 233.573 163.265C233.376 163.131 234.279 161.394 234.781 160.123C234.414 159.913 234.087 159.64 233.813 159.318C233.513 158.79 233.276 158.228 233.107 157.645C233.771 157.645 234.675 157.426 235.063 157.765C236.348 158.908 237.457 160.264 238.848 161.775L236.334 162.841C236.975 163.068 237.59 163.362 238.17 163.717V163.738ZM233.891 149.532C233.997 149.221 234.11 148.911 234.223 148.6C235.522 148.423 236.814 148.268 237.097 150.598L233.891 149.532ZM234.943 120.442C235.169 121.197 235.374 121.854 235.557 122.497C232.775 124.615 231.54 121.713 229.69 120.851C226.866 122.673 227.197 125.088 228.885 127.912L225.284 127.559C227.332 129.289 229.076 128.548 230.537 126.895C234.823 130.299 238.6 133.751 237.224 139.781C234.908 141.017 234.039 135.834 231.271 138.708L236.044 142.464L230.594 144.476C232.387 147.915 235.677 144.222 237.746 146.256C236.405 147.562 231.392 147.541 229.859 146.715C227.212 145.303 227.741 142.627 227.035 140.466C226.844 139.887 227.607 139.004 227.967 138.178C227.077 137.14 226.378 136.766 225.143 138.016C224.084 139.075 224.232 140.72 223.568 141.384C221.902 143.071 222.707 144.469 223.208 146.058L223.865 148.176C221.041 147.703 221.471 142.605 217.51 144.102C217.362 142.697 217.11 141.304 216.755 139.936C216.338 138.666 215.456 137.564 214.94 136.321C213.881 133.737 212.935 131.104 212.116 129.007C212.469 127.361 212.744 126.112 213.006 124.848C213.203 123.873 213.006 122.482 213.613 121.981C215.498 120.378 215.025 119.376 213.217 118.295C212.843 118.077 212.645 117.554 212.257 117.025L215.194 115.965C214.319 115.259 213.592 114.928 213.267 114.363C212.836 113.593 212.25 112.117 212.561 111.863C213.794 110.934 215.113 110.125 216.501 109.448C216.734 110.409 217.207 111.39 217.15 112.336C217.002 114.864 216.592 117.363 216.359 119.884C216.257 121.143 216.236 122.407 216.296 123.669C216.296 124.375 216.345 125.363 216.783 125.737C217.221 126.112 218.195 125.942 218.824 125.66C222.848 123.732 226.724 121.607 229.167 117.596C230.078 116.114 232.846 115.556 233.573 116.89C234.985 119.397 237.541 119.376 239.582 120.421L240.895 124.368C238.353 123.047 238.057 119.891 234.943 120.421V120.442ZM240.697 128.096C241.213 125.54 241.629 125.314 244.934 126.507L241.107 128.717L240.697 128.096ZM242.216 136.392L241.587 136.321V130.397L242.216 130.539V136.392ZM244.609 199.973C244.115 200.263 243.324 200.044 242.66 200.058C242.844 199.253 242.802 197.94 243.253 197.756C244.207 197.319 245.421 197.453 246.53 197.354L246.572 198.06C245.997 198.768 245.338 199.404 244.609 199.952V199.973ZM254.784 316.616C254.197 316.369 253.371 316.284 253.082 315.846C252.51 315 252.061 314.078 251.747 313.107C250.964 310.988 250.166 308.87 249.545 306.717C249.284 305.655 249.196 304.558 249.283 303.469C249.403 301.139 249.608 298.809 249.898 296.493C249.954 296.027 250.547 295.624 251.183 294.848C251.469 295.559 251.718 296.285 251.931 297.022C252.821 301.188 253.703 305.347 254.536 309.52C254.897 311.356 255.193 313.213 255.384 315.077C255.44 315.543 254.995 316.079 254.784 316.595V316.616ZM254.889 161.874C258.272 160.37 259.733 163.145 261.851 164.557C258.921 166.591 256.174 165.475 254.889 161.874ZM280.449 324.898C280.696 325.346 280.843 325.842 280.88 326.352C281.268 327.998 281.586 329.657 282.045 331.295C282.504 332.933 281.904 333.696 280.244 334.479C279.997 333.011 280.025 331.655 279.538 330.49C277.293 325.195 273 321.403 269.406 317.075C269.159 316.778 268.637 316.722 268.298 316.482C267.832 316.157 267.196 315.853 267.02 315.387C265.608 311.687 264.132 307.981 262.882 304.21C262.084 301.795 261.569 299.268 261.011 296.796C260.524 294.615 260.157 292.398 259.733 290.202L260.87 289.757C261.35 290.809 261.774 291.875 262.331 292.899C262.889 293.923 263.482 295.568 264.287 295.723C266.299 296.097 267.154 297.255 267.902 298.886C268.171 299.48 268.863 300.235 269.413 300.299C271.666 300.489 272.238 302.283 273.064 303.829C273.89 305.375 274.038 307.218 275.125 308.312C276.537 309.725 276.439 311.25 276.94 312.845C278.19 316.821 277.406 321.424 280.428 324.898H280.449ZM270.663 267.502C273.727 267.29 275.111 268.914 275.464 272.96L270.663 267.502ZM281.311 270.863C281.056 270.368 280.774 269.888 280.541 269.387C278.514 264.967 276.537 260.533 274.44 256.148C273.829 255.124 273.119 254.162 272.322 253.274L271.531 253.514C271.249 255.018 270.96 256.515 270.677 258.019L270.013 258.132C268.645 255.628 267.974 252.801 268.072 249.949C268.134 248.01 268.044 246.07 267.803 244.145C267.669 243.036 267.436 242.027 268.792 241.695C269.893 241.448 270.91 241.561 271.468 242.959C273.268 247.287 275.415 251.481 277.053 255.866C278.868 260.702 280.273 265.694 281.854 270.623L281.311 270.863ZM295.206 270.799C294.895 268.264 294.224 265.673 296.194 263.322C296.519 262.941 296.159 261.606 295.714 261.027C294.853 259.926 293.646 259.092 292.671 258.062C291.217 256.529 289.557 255.096 288.505 253.31C287.241 251.192 286.069 249.179 283.782 247.894C281.868 246.821 280.484 245.126 280.654 242.62C281.628 243.506 282.464 244.535 283.132 245.67C283.958 247.047 284.968 247.485 286.288 246.475C290.786 253.536 290.786 253.536 293.462 254.849L292.233 252.18C297.451 253.056 299.04 264.218 295.185 270.799H295.206Z" fill="url(#paint0_linear)"/>
<defs>
<linearGradient id="paint0_linear" x1="112" y1="151.5" x2="206.5" y2="403.5" gradientUnits="userSpaceOnUse">
<stop stop-color="#5449E8"/>
<stop offset="0.869792" stop-color="#5449E8" stop-opacity="0.333333"/>
<stop offset="1" stop-color="#5449E8" stop-opacity="0"/>
</linearGradient>
</defs>
</svg>
